<svg version="1.2" xmlns="http://www.w3.org/2000/svg" viewBox="0 0 4000 2000" width="4000" height="2000">
    <style>.a{fill: #8c573f; fill-opacity: 0.05;}</style>
    <path class="a"
          d="m129.3 656.6c20.5-3.8 39.4-11.3 56-22.3 8.9-6 17.1-12.9 24.3-20.7 7.3-7.7 13.6-16.4 18.9-25.6 4.9-8.6 8.8-17.8 11.8-27.3q0.4-1.3 0.8-2.6c2.5-8.5 4.2-17.3 5.2-26.4q0.3-3.2 0.5-6.5c1-15.5-0.4-31.6-4-47.8-2.9-13.4-7.5-26.9-13.5-40.2q-2.1-4.7-4.4-9.4-5.8-11.3-12.8-22.5c-16.8-26.3-39.3-51.8-67.1-75.8-12.2-11.4-24.6-21.7-37.3-30.9q-11.6-8.3-23.4-15.3-5.6-3.4-11.3-6.5c-23.7-12.7-47.8-21.4-71.6-25.8q-0.7-0.2-1.4-0.3v27.4c24.3 5 50.1 15.3 76.4 31.9q11.8 7.4 23.7 16.6 13.5 10.3 26.9 22.9c39.1 33.7 64.6 68.3 78.8 101.2q5.5 12.5 8.8 24.6c5.9 21.6 7 42.1 3.9 60.7-1.5 9.5-4.1 18.5-7.7 26.9-8.4 20.1-22.4 36.9-40.5 49-41 27.3-103.1 30.1-170.3-8.1v30.5c21.1 10.6 42.5 17.9 63.6 21.8 22.7 4.2 44.8 4.4 65.7 0.5z"/>
    <path class="a"
          d="m77.4 508.3c38.8 19.9 77.5 43.9 104.5 79-7.6-25.6-25.3-46.9-44.1-65.2-25.7-24.1-56.7-42.2-88.9-56.2-3.6-1.5-7.7-3.5-11.1-5.2-13.4-6.5-26-14.2-37.8-23v32.3c8.9 6 18.3 11.3 28 15.9 16.2 7.4 33.6 14.3 49.4 22.4z"/>
    <path class="a"
          d="m147.1 406.7c0 0-38.3-52.9-106.1-88.2-15.1-7.8-28.9-12.3-41-14.8v13.8q6.3 2.1 13.4 4.6c61.9 22 133.7 84.6 133.7 84.6z"/>
    <path class="a"
          d="m9 586c0 0 36.9 21.4 65.1 26.4 38.2 6.8 53.4-2.2 53.4-2.2 0 0-34.4 0.6-76.3-11.9-11.7-3.5-42.2-12.3-42.2-12.3z"/>
    <path fill-rule="evenodd" class="a"
          d="m877.7 273c16.9-11.2 36-18.8 56.9-22.6 20.9-3.8 42.9-3.7 65.4 0.3q0.7 0.1 1.4 0.3c23.8 4.4 47.9 13.1 71.6 25.8q5.7 3.1 11.3 6.5 11.8 7 23.4 15.3c12.7 9.2 25.1 19.5 37.3 30.9 27.8 24 50.3 49.5 67.1 75.8q7 11.2 12.8 22.5 2.3 4.7 4.4 9.4c6 13.3 10.6 26.8 13.5 40.2 3.6 16.2 5 32.3 4 47.8q-0.2 3.3-0.5 6.5c-1 9.1-2.7 17.9-5.2 26.4q-0.4 1.3-0.8 2.6c-3 9.5-6.9 18.7-11.8 27.3-5.3 9.2-11.6 17.9-18.9 25.6-7.2 7.8-15.4 14.7-24.3 20.7-16.6 11-35.5 18.5-56 22.3-20.9 3.9-43 3.7-65.7-0.5-21.1-3.9-42.5-11.2-63.6-21.8q-3.5-1.7-7-3.6c-24.3-13-48.3-30.4-71.3-51.7-36.7-31.3-64.4-64.7-82.3-99.4-8.5-16.5-14.8-33.3-18.6-49.9-3.8-16.3-5.3-32.5-4.3-48.1 0.6-11.3 2.5-22.3 5.6-32.8 3-10.4 7.2-20.4 12.5-29.7 5.3-9.2 11.6-17.8 18.9-25.5 7.2-7.7 15.3-14.6 24.2-20.6zm15 22.5c-68.1 45.3-77.9 157.3 46.9 263.3 20.3 18.9 40.6 33.7 60.4 45 67.2 38.2 129.3 35.4 170.3 8.1 18.1-12.1 32.1-28.9 40.5-49 3.6-8.4 6.2-17.4 7.7-26.9 3.1-18.6 2-39.1-3.9-60.7q-3.3-12.1-8.8-24.6c-14.2-32.9-39.7-67.5-78.8-101.2q-13.4-12.6-26.9-22.9-11.9-9.2-23.7-16.6c-26.3-16.6-52.1-26.9-76.4-31.9-42.1-8.6-79.6-1.1-107.3 17.4z"/>
    <path class="a"
          d="m1000 470c8.9 6 18.3 11.3 28 15.9 16.2 7.4 33.6 14.3 49.4 22.4 38.8 19.9 77.5 43.9 104.5 79-7.6-25.6-25.3-46.9-44.1-65.2-25.7-24.1-56.7-42.2-88.9-56.2-3.6-1.5-7.7-3.5-11.1-5.2-13.4-6.5-26-14.2-37.8-23-44.8-33.2-78.1-81.5-95.1-134.6 1.5 67 39.9 129.8 95.1 166.9z"/>
    <path class="a"
          d="m128.5 883c3.2-2.2 6.9-4.8 10.2-6.9 59-39.4 134.2-50.5 203.1-35.2-68.1-37.8-156.5-29.7-219.9 14.1-14.6 10.2-29.3 21.8-44.3 31.3-24.4 15.5-50.2 30.1-77.6 39.8v12.6c11.9-1.4 23.8-4.1 35.2-7.3 33.8-10 65-27.6 93.3-48.4z"/>
    <path class="a"
          d="m130.1 997.8c0 0 65-6.4 129.7-47.1 49.7-31.4 58-70.2 58-70.2 0 0-14.2 16.7-47.2 44.5-50.2 42.3-140.5 72.8-140.5 72.8z"/>
    <path class="a" d="m13.1 818.2c8.9-8.3 31.9-30.2 31.9-30.2 0 0-25.7 14.6-45 32.1v11.2c4-4.3 8.4-8.7 13.1-13.1z"/>
    <path class="a"
          d="m62.3 53.3q5.1 0.6 10.3 0.9 12.7 0.8 25.9 0.3c31.2-1.2 64.5-7.7 99.3-19.6 16-4.8 31.2-10.3 45.5-16.7q13-5.7 25-12.4 5.2-2.8 10.2-5.8h-61.6q-13 5-27.3 9.2c-48.8 16.8-91.5 21.3-127.1 17.1q-13.6-1.7-25.7-5c-13.6-3.6-25.9-8.7-36.8-15v30.3q10 4.6 20.7 8.1c13.1 4.2 27 7.1 41.6 8.6z"/>
    <path class="a"
          d="m1013.1 818.2c8.9-8.3 31.9-30.2 31.9-30.2 0 0-25.7 14.6-45 32.1-3.9 3.5-7.5 7.1-10.7 10.8-25 29.5-25 47.2-25 47.2 0 0 12.3-21.8 35.7-46.8 4-4.3 8.4-8.7 13.1-13.1z"/>
    <path class="a"
          d="m951.9 2.4c6.1 6.5 12.9 12.5 20.2 17.8q2.6 2 5.4 3.8c7 4.7 14.5 8.9 22.5 12.6q10 4.6 20.7 8.1c13.1 4.2 27 7.1 41.6 8.6q5.1 0.6 10.3 0.9 12.7 0.8 25.9 0.3c31.2-1.2 64.5-7.7 99.3-19.6 16-4.8 31.2-10.3 45.5-16.7q13-5.7 25-12.4 5.2-2.8 10.2-5.8h-61.6q-13 5-27.3 9.2c-48.8 16.8-91.5 21.3-127.1 17.1q-13.6-1.7-25.7-5c-13.6-3.6-25.9-8.7-36.8-15q-5.2-3-9.9-6.3h-40.4q0.2 0.2 0.4 0.5 0.9 1 1.8 1.9z"/>
    <path fill-rule="evenodd" class="a"
          d="m462.3 761.6c-17.8-5.7-34.1-13.1-48.5-22.2-14.2-8.8-26.6-19.2-37-31-7.5-8.4-14-17.5-19.2-27.1-5.2-9.5-9.3-19.6-12.1-29.9-2.8-10.2-4.4-20.8-4.8-31.4-0.3-10.5 0.6-21.2 2.7-31.6 4-19.9 12.1-38.8 24.2-56.3 12.3-17.8 28.4-33.5 47.7-46.8 19.9-13.7 43.1-24.6 68.9-32.3q6.2-1.8 12.6-3.4 13.2-3.4 27.3-5.7c15.5-2.5 31.6-4 48.3-4.5 36.6-2.7 70.5-0.6 101 6.2q12.9 2.9 24.9 6.9 5 1.6 9.8 3.4c13.7 5.3 26.5 11.6 38 19 14 8.9 26.3 19.3 36.6 31q2.2 2.4 4.2 5c5.7 7 10.8 14.5 15 22.3q0.7 1.2 1.3 2.3c4.6 8.9 8.3 18.2 10.9 27.7 2.8 10.3 4.4 20.9 4.8 31.5 0.3 10.6-0.5 21.3-2.6 31.8-4 19.6-12 38.2-23.9 55.4-12 17.5-27.8 33-46.8 46.1-19.6 13.5-42.4 24.2-67.9 31.9-26.4 8-55.7 12.6-87 13.8-48.1 3.8-91.3-0.3-128.4-12.1zm126.8-14.8c121.5-4.5 188.2-63 200.7-125.6 4.3-21.3 2.3-43-5.9-63.2-3.4-8.5-7.9-16.7-13.6-24.5-11-15.3-26.2-29.1-45.6-40.1q-11-6.3-23.7-11.3c-33.3-13.2-75.7-19.6-127.2-15.8q-18.5 0.5-35.3 2.7-14.9 2-28.5 5.1c-82.9 18.7-129.9 67.9-140.2 119.6-16.1 80.2 56.2 166.3 219.3 153.1z"/>
    <path class="a"
          d="m650.9 613.6c41.6-13.3 85.9-23.7 129.7-18-23.4-12.7-51-15.3-77.2-14.8-35.3 1-70 10.1-102.6 23.1-3.6 1.4-7.9 2.9-11.6 4.1-67.1 23.1-142.7 14.7-205.4-17.6 56.3 53.9 143.8 68.5 216.3 42.3 16.7-6.2 33.9-13.7 50.8-19.1z"/>
    <path class="a"
          d="m628.5 492.5c0 0-64.6-10.4-137.5 12.6-56 17.7-73.9 53.1-73.9 53.1 0 0 17.9-12.5 57-31.1 59.3-28.1 154.4-34.6 154.4-34.6z"/>
    <path class="a"
          d="m696 695.8c-10.7 5.8-38.5 21.2-38.5 21.2 0 0 41.2-11 64.7-27.4 31.7-22.2 36.1-39.3 36.1-39.3 0 0-23.8 24.7-62.3 45.5z"/>
    <path fill-rule="evenodd" class="a"
          d="m264.5 58.1c23.4-4.2 48.7-4.5 75-0.9 27.3 3.7 55.9 11.6 84.9 23.5 45.3 16.4 83 38 111.9 64.2 13.8 12.5 25.5 26.1 34.9 40.3 9.2 13.9 16.3 28.5 20.9 43.5 3.3 10.8 5.4 21.8 6.2 32.7 0.8 10.8 0.3 21.6-1.4 32.2-1.7 10.4-4.6 20.7-8.7 30.5-4 9.7-9.2 19.1-15.5 27.7-11.8 16.4-27.1 30.3-45.4 41.2-18.5 11-39.7 18.7-62.7 22.8-23.9 4.2-49.5 4.5-76.1 0.8q-6.4-0.8-12.9-2-13.5-2.5-27.2-6.2c-15.1-4.2-30.4-9.5-45.9-15.9-34.4-12.8-64.4-28.7-89.3-47.5q-10.5-8-19.9-16.6-3.8-3.6-7.4-7.2c-10.3-10.4-19.3-21.5-26.8-33-9-13.9-15.9-28.5-20.4-43.4q-1-3.1-1.8-6.3c-2.3-8.8-3.7-17.7-4.4-26.5q-0.1-1.3-0.1-2.7c-0.6-9.9-0.1-19.9 1.5-29.6 1.7-10.6 4.6-20.9 8.7-30.7 4-9.8 9.3-19.2 15.6-27.9 11.6-16.1 26.6-29.8 44.6-40.5 18.2-10.9 39-18.5 61.7-22.5zm-84.5 78.8c-12.7 17.6-19.9 38.2-20.8 60-0.4 9.2 0.3 18.5 2.2 27.9 3.7 18.5 11.9 37.4 24.9 55.5q7.4 10.2 16.9 20c24.8 25.8 60.8 49.3 109.2 67.2q17 7.1 33.2 12 14.4 4.4 28.1 7.3c83.2 17.3 146.3-8.1 177.2-50.7 47.9-66.4 17.8-174.7-136.2-230.3-112.4-46.3-197.3-20.6-234.7 31.1z"/>
    <path class="a"
          d="m177.8 164c16 21.3 40 35.1 64.1 45.5 32.5 13.7 67.9 19.8 103 21.6 3.8 0.2 8.4 0.6 12.2 1 70.7 6.8 135.9 45.7 179.7 101.1-28.9-72.3-102.6-121.9-179.4-128.1-17.7-1.3-36.5-1.6-54.1-3.7-43.4-5.1-88-14-125.5-37.4z"/>
    <path class="a"
          d="m273.5 320.9c0 0 54.4 36.2 130.3 45.5 58.4 7.1 89.4-17.7 89.4-17.7 0 0-21.6 4-64.8 4.7-65.7 1-154.9-32.5-154.9-32.5z"/>
    <path class="a"
          d="m340.2 104.6c0 0-42.1-7.1-70.3-1.9-38.1 7-49.2 20.8-49.2 20.8 0 0 32-12.6 75.6-15.6 12.2-0.9 43.9-3.3 43.9-3.3z"/>
    <path class="a"
          d="m587.7 137.7q6.4 12.7 13.5 24.4 3.5 5.6 7.1 11c15.1 22.3 32.4 41.1 51.5 56 18.4 14.5 38.3 25 58.9 31.4 20.3 6.4 40.8 8.5 60.9 6.3 10.6-1.1 21.1-3.5 31-6.9 10-3.5 19.6-8.2 28.6-14 8.9-5.7 17.3-12.6 24.8-20.5 7.6-7.9 14.4-16.8 20.2-26.4 8-13.5 14.2-28.5 18.4-44.6 4.3-16.5 6.5-34.3 6.6-52.9 0.2-31.8-5.8-65.8-17.8-101.5h-28.5c51.6 142.9-7.5 231.6-86.1 240-52.4 5.6-113.4-24.4-156.2-97.9q-7-12.1-13.3-25.7-7.1-15.4-13.2-32.8c-12-30.1-19-58.1-22-83.6h-27.1c3.1 29.6 11.1 60.8 23.8 93 5.6 15.8 11.8 30.7 18.9 44.7z"/>
    <path class="a"
          d="m724.7 26.4c42.1 57.1 56.7 131.7 44.8 201.2 34.5-69.8 22.1-157.7-24.6-219q-3.3-4.3-6.7-8.6h-33.7q6.1 8.5 12.7 16.6c2.4 3 5.2 6.7 7.5 9.8z"/>
    <path class="a"
          d="m728.8 205.6c0 0-17.4-13.4-46.7-45.1-44.7-48.1-79.4-136.9-79.4-136.9 0 0 9.4 64.7 53.2 127.3 33.7 48.2 72.9 54.7 72.9 54.7z"/>
    <path class="a"
          d="m704.5 1000q6.1 8.5 12.7 16.6c2.4 3 5.2 6.7 7.5 9.8 42.1 57.1 56.7 131.7 44.8 201.2 34.5-69.8 22.1-157.7-24.6-219q-3.3-4.3-6.7-8.6c-9-11.2-18.5-22.6-26.7-34.1-25.1-35.7-48.3-74.9-56-118.4-5.2 26.1 0.7 53.3 9 78.2 9.2 26.6 23.3 51.5 40 74.3z"/>
    <path class="a"
          d="m808.2 928.6c0 0-22.8-36-45.5-53.5-30.7-23.6-48.4-22.7-48.4-22.7 0 0 30.8 15.3 62.2 45.8 8.7 8.5 31.7 30.4 31.7 30.4z"/>
    <path class="a"
          d="m1013.4 322.1c61.9 22 133.7 84.6 133.7 84.6 0 0-38.3-52.9-106.1-88.2-15.1-7.8-28.9-12.3-41-14.8-29.8-6.2-48.8 0.1-48.8 0.1 0 0 16.8 3 48.8 13.7q6.3 2.1 13.4 4.6z"/>
    <path class="a"
          d="m1051.2 598.3c-11.7-3.5-42.2-12.3-42.2-12.3 0 0 36.9 21.4 65.1 26.4 38.2 6.8 53.4-2.2 53.4-2.2 0 0-34.4 0.6-76.3-11.9z"/>
    <path fill-rule="evenodd" class="a"
          d="m1877.7 273c16.9-11.2 36-18.8 56.9-22.6 20.9-3.8 42.9-3.7 65.4 0.3q0.7 0.1 1.4 0.3c23.8 4.4 47.9 13.1 71.6 25.8q5.7 3.1 11.3 6.5 11.8 7 23.4 15.3c12.7 9.2 25.1 19.5 37.3 30.9 27.8 24 50.3 49.5 67.1 75.8q7 11.2 12.8 22.5 2.3 4.7 4.4 9.4c6 13.3 10.6 26.8 13.5 40.2 3.6 16.2 5 32.3 4 47.8q-0.2 3.3-0.5 6.5c-1 9.1-2.7 17.9-5.2 26.4q-0.4 1.3-0.8 2.6c-3 9.5-6.9 18.7-11.8 27.3-5.3 9.2-11.6 17.9-18.9 25.6-7.2 7.8-15.4 14.7-24.3 20.7-16.6 11-35.5 18.5-56 22.3-20.9 3.9-43 3.7-65.7-0.5-21.1-3.9-42.5-11.2-63.6-21.8q-3.5-1.7-7-3.6c-24.3-13-48.3-30.4-71.3-51.7-36.7-31.3-64.4-64.7-82.3-99.4-8.5-16.5-14.8-33.3-18.6-49.9-3.8-16.3-5.3-32.5-4.3-48.1 0.6-11.3 2.5-22.3 5.6-32.8 3-10.4 7.2-20.4 12.5-29.7 5.3-9.2 11.6-17.8 18.9-25.5 7.2-7.7 15.3-14.6 24.2-20.6zm15 22.5c-68.1 45.3-77.9 157.3 46.9 263.3 20.3 18.9 40.6 33.7 60.4 45 67.2 38.2 129.3 35.4 170.3 8.1 18.1-12.1 32.1-28.9 40.5-49 3.6-8.4 6.2-17.4 7.7-26.9 3.1-18.6 2-39.1-3.9-60.7q-3.3-12.1-8.8-24.6c-14.2-32.9-39.7-67.5-78.8-101.2q-13.4-12.6-26.9-22.9-11.9-9.2-23.7-16.6c-26.3-16.6-52.1-26.9-76.4-31.9-42.1-8.6-79.6-1.1-107.3 17.4z"/>
    <path class="a"
          d="m2000 470c8.9 6 18.3 11.3 28 15.9 16.2 7.4 33.6 14.3 49.4 22.4 38.8 19.9 77.5 43.9 104.5 79-7.6-25.6-25.3-46.9-44.1-65.2-25.7-24.1-56.7-42.2-88.9-56.2-3.6-1.5-7.7-3.5-11.1-5.2-13.4-6.5-26-14.2-37.8-23-44.8-33.2-78.1-81.5-95.1-134.6 1.5 67 39.9 129.8 95.1 166.9z"/>
    <path class="a"
          d="m1035.2 931.4c33.8-10 65-27.6 93.3-48.4 3.2-2.2 6.9-4.8 10.2-6.9 59-39.4 134.2-50.5 203.1-35.2-68.1-37.8-156.5-29.7-219.9 14.1-14.6 10.2-29.3 21.8-44.3 31.3-24.4 15.5-50.2 30.1-77.6 39.8-14 4.9-28.5 8.6-43.3 10.5 14.2 3.5 28.8 3.8 43.3 2.1 11.9-1.4 23.8-4.1 35.2-7.3z"/>
    <path class="a"
          d="m1270.6 925c-50.2 42.3-140.5 72.8-140.5 72.8 0 0 65-6.4 129.7-47.1 49.7-31.4 58-70.2 58-70.2 0 0-14.2 16.7-47.2 44.5z"/>
    <path fill-rule="evenodd" class="a"
          d="m2000 761.2q7-5 14.5-9.5c23.5-14.5 50.7-26.4 80.7-35.5 45.5-15.9 88.3-22.9 127.3-20.9 18.5 1 36.2 4 52.5 9.1 15.9 5 30.6 11.9 43.7 20.6 9.3 6.2 17.9 13.4 25.4 21.4 7.5 7.8 14 16.5 19.3 25.8 5.3 9.2 9.5 19 12.6 29.1 3 10.1 4.8 20.7 5.4 31.3 1.2 20.2-1.9 40.6-9.1 60.6-7.4 20.3-18.9 39.6-34.2 57.4-15.8 18.3-35.5 34.7-58.5 48.7q-0.5 0.4-1.1 0.7-5 3-10.2 5.8-12 6.7-25 12.4c-14.3 6.4-29.5 11.9-45.5 16.7-34.8 11.9-68.1 18.4-99.3 19.6q-13.2 0.5-25.9-0.3-5.2-0.3-10.3-0.9c-14.6-1.5-28.5-4.4-41.6-8.6q-10.7-3.5-20.7-8.1c-8-3.7-15.5-7.9-22.5-12.6q-2.8-1.8-5.4-3.8c-7.3-5.3-14.1-11.3-20.2-17.8q-0.9-0.9-1.8-1.9-0.2-0.3-0.4-0.5c-6.6-7.3-12.3-15.1-17.1-23.5-5.4-9.2-9.6-19.1-12.7-29.2-3-10.2-4.9-20.8-5.5-31.5-1.2-19.9 1.8-39.9 9-59.6 7.2-20 18.5-39 33.5-56.5 12.2-14 26.6-26.9 43.1-38.5zm0 33.9c-42.6 35.7-61.1 79.3-58.7 119.2 1.2 21.6 8.7 42.1 21.8 59.6 5.4 7.3 11.9 14.1 19.3 20.3q3.7 3 7.7 5.8 4.7 3.3 9.9 6.3c10.9 6.3 23.2 11.4 36.8 15q12.1 3.3 25.7 5c35.6 4.2 78.3-0.3 127.1-17.1q14.3-4.2 27.3-9.2 3.1-1.2 6.1-2.4 13.9-5.6 26.3-12.1c75.4-39.2 108.3-98.7 105.3-151.3-4.8-81.7-96.6-146.6-251.1-92.4-43.6 13.2-77.9 31.8-103.5 53.3z"/>
    <path class="a"
          d="m2000 926.1c-14 4.9-28.5 8.6-43.3 10.5 14.2 3.5 28.8 3.8 43.3 2.1 11.9-1.4 23.8-4.1 35.2-7.3 33.8-10 65-27.6 93.3-48.4 3.2-2.2 6.9-4.8 10.2-6.9 59-39.4 134.2-50.5 203.1-35.2-68.1-37.8-156.5-29.7-219.9 14.1-14.6 10.2-29.3 21.8-44.3 31.3-24.4 15.5-50.2 30.1-77.6 39.8z"/>
    <path class="a"
          d="m2000 831.3c4-4.3 8.4-8.7 13.1-13.1 8.9-8.3 31.9-30.2 31.9-30.2 0 0-25.7 14.6-45 32.1-3.9 3.5-7.5 7.1-10.7 10.8-25 29.5-25 47.2-25 47.2 0 0 12.3-21.8 35.7-46.8z"/>
    <path class="a"
          d="m1951.9 2.4c6.1 6.5 12.9 12.5 20.2 17.8q2.6 2 5.4 3.8c7 4.7 14.5 8.9 22.5 12.6q10 4.6 20.7 8.1c13.1 4.2 27 7.1 41.6 8.6q5.1 0.6 10.3 0.9 12.7 0.8 25.9 0.3c31.2-1.2 64.5-7.7 99.3-19.6 16-4.8 31.2-10.3 45.5-16.7q13-5.7 25-12.4 5.2-2.8 10.2-5.8h-61.6q-13 5-27.3 9.2c-48.8 16.8-91.5 21.3-127.1 17.1q-13.6-1.7-25.7-5c-13.6-3.6-25.9-8.7-36.8-15q-5.2-3-9.9-6.3h-40.4q0.2 0.2 0.4 0.5 0.9 1 1.8 1.9z"/>
    <path fill-rule="evenodd" class="a"
          d="m1345.5 651.4c-2.8-10.2-4.4-20.8-4.8-31.4-0.3-10.5 0.6-21.2 2.7-31.6 4-19.9 12.1-38.8 24.2-56.3 12.3-17.8 28.4-33.5 47.7-46.8 19.9-13.7 43.1-24.6 68.9-32.3q6.2-1.8 12.6-3.4 13.2-3.4 27.3-5.7c15.5-2.5 31.6-4 48.3-4.5 36.6-2.7 70.5-0.6 101 6.2q12.9 2.9 24.9 6.9 5 1.6 9.8 3.4c13.7 5.3 26.5 11.6 38 19 14 8.9 26.3 19.3 36.6 31q2.2 2.4 4.2 5c5.7 7 10.8 14.5 15 22.3q0.7 1.2 1.3 2.3c4.6 8.9 8.3 18.2 10.9 27.7 2.8 10.3 4.4 20.9 4.8 31.5 0.3 10.6-0.5 21.3-2.6 31.8-4 19.6-12 38.2-23.9 55.4-12 17.5-27.8 33-46.8 46.1-19.6 13.5-42.4 24.2-67.9 31.9-26.4 8-55.7 12.6-87 13.8-48.1 3.8-91.3-0.3-128.4-12.1-17.8-5.7-34.1-13.1-48.5-22.2-14.2-8.8-26.6-19.2-37-31-7.5-8.4-14-17.5-19.2-27.1-5.2-9.5-9.3-19.6-12.1-29.9zm243.6 95.4c121.5-4.5 188.2-63 200.7-125.6 4.3-21.3 2.3-43-5.9-63.2-3.4-8.5-7.9-16.7-13.6-24.5-11-15.3-26.2-29.1-45.6-40.1q-11-6.3-23.7-11.3c-33.3-13.2-75.7-19.6-127.2-15.8q-18.5 0.5-35.3 2.7-14.9 2-28.5 5.1c-82.9 18.7-129.9 67.9-140.2 119.6-16.1 80.2 56.2 166.3 219.3 153.1z"/>
    <path class="a"
          d="m1600.1 632.7c16.7-6.2 33.9-13.7 50.8-19.1 41.6-13.3 85.9-23.7 129.7-18-23.4-12.7-51-15.3-77.2-14.8-35.3 1-70 10.1-102.6 23.1-3.6 1.4-7.9 2.9-11.6 4.1-67.1 23.1-142.7 14.7-205.4-17.6 56.3 53.9 143.8 68.5 216.3 42.3z"/>
    <path class="a"
          d="m1628.5 492.5c0 0-64.6-10.4-137.5 12.6-56 17.7-73.9 53.1-73.9 53.1 0 0 17.9-12.5 57-31.1 59.3-28.1 154.4-34.6 154.4-34.6z"/>
    <path class="a"
          d="m1696 695.8c-10.7 5.8-38.5 21.2-38.5 21.2 0 0 41.2-11 64.7-27.4 31.7-22.2 36.1-39.3 36.1-39.3 0 0-23.8 24.7-62.3 45.5z"/>
    <path fill-rule="evenodd" class="a"
          d="m1264.5 58.1c23.4-4.2 48.7-4.5 75-0.9 27.3 3.7 55.9 11.6 84.9 23.5 45.3 16.4 83 38 111.9 64.2 13.8 12.5 25.5 26.1 34.9 40.3 9.2 13.9 16.3 28.5 20.9 43.5 3.3 10.8 5.4 21.8 6.2 32.7 0.8 10.8 0.3 21.6-1.4 32.2-1.7 10.4-4.6 20.7-8.7 30.5-4 9.7-9.2 19.1-15.5 27.7-11.8 16.4-27.1 30.3-45.4 41.2-18.5 11-39.7 18.7-62.7 22.8-23.9 4.2-49.5 4.5-76.1 0.8q-6.4-0.8-12.9-2-13.5-2.5-27.2-6.2c-15.1-4.2-30.4-9.5-45.9-15.9-34.4-12.8-64.4-28.7-89.3-47.5q-10.5-8-19.9-16.6-3.8-3.6-7.4-7.2c-10.3-10.4-19.3-21.5-26.8-33-9-13.9-15.9-28.5-20.4-43.4q-1-3.1-1.8-6.3c-2.3-8.8-3.7-17.7-4.4-26.5q-0.1-1.3-0.1-2.7c-0.6-9.9-0.1-19.9 1.5-29.6 1.7-10.6 4.6-20.9 8.7-30.7 4-9.8 9.3-19.2 15.6-27.9 11.6-16.1 26.6-29.8 44.6-40.5 18.2-10.9 39-18.5 61.7-22.5zm-84.5 78.8c-12.7 17.6-19.9 38.2-20.8 60-0.4 9.2 0.3 18.5 2.2 27.9 3.7 18.5 11.9 37.4 24.9 55.5q7.4 10.2 16.9 20c24.8 25.8 60.8 49.3 109.2 67.2q17 7.1 33.2 12 14.4 4.4 28.1 7.3c83.2 17.3 146.3-8.1 177.2-50.7 47.9-66.4 17.8-174.7-136.2-230.3-112.4-46.3-197.3-20.6-234.7 31.1z"/>
    <path class="a"
          d="m1177.8 164c16 21.3 40 35.1 64.1 45.5 32.5 13.7 67.9 19.8 103 21.6 3.8 0.2 8.4 0.6 12.2 1 70.7 6.8 135.9 45.7 179.7 101.1-28.9-72.3-102.6-121.9-179.4-128.1-17.7-1.3-36.5-1.6-54.1-3.7-43.4-5.1-88-14-125.5-37.4z"/>
    <path class="a"
          d="m1273.5 320.9c0 0 54.4 36.2 130.3 45.5 58.4 7.1 89.4-17.7 89.4-17.7 0 0-21.6 4-64.8 4.7-65.7 1-154.9-32.5-154.9-32.5z"/>
    <path class="a"
          d="m1340.2 104.6c0 0-42.1-7.1-70.3-1.9-38.1 7-49.2 20.8-49.2 20.8 0 0 32-12.6 75.6-15.6 12.2-0.9 43.9-3.3 43.9-3.3z"/>
    <path class="a"
          d="m1587.7 137.7q6.4 12.7 13.5 24.4 3.5 5.6 7.1 11c15.1 22.3 32.4 41.1 51.5 56 18.4 14.5 38.3 25 58.9 31.4 20.3 6.4 40.8 8.5 60.9 6.3 10.6-1.1 21.1-3.5 31-6.9 10-3.5 19.6-8.2 28.6-14 8.9-5.7 17.3-12.6 24.8-20.5 7.6-7.9 14.4-16.8 20.2-26.4 8-13.5 14.2-28.5 18.4-44.6 4.3-16.5 6.5-34.3 6.6-52.9 0.2-31.8-5.8-65.8-17.8-101.5h-28.5c51.6 142.9-7.5 231.6-86.1 240-52.4 5.6-113.4-24.4-156.2-97.9q-7-12.1-13.3-25.7-7.1-15.4-13.2-32.8c-12-30.1-19-58.1-22-83.6h-27.1c3.1 29.6 11.1 60.8 23.8 93 5.6 15.8 11.8 30.7 18.9 44.7z"/>
    <path class="a"
          d="m1724.7 26.4c42.1 57.1 56.7 131.7 44.8 201.2 34.5-69.8 22.1-157.7-24.6-219q-3.3-4.3-6.7-8.6h-33.7q6.1 8.5 12.7 16.6c2.4 3 5.2 6.7 7.5 9.8z"/>
    <path class="a"
          d="m1728.8 205.6c0 0-17.4-13.4-46.7-45.1-44.7-48.1-79.4-136.9-79.4-136.9 0 0 9.4 64.7 53.2 127.3 33.7 48.2 72.9 54.7 72.9 54.7z"/>
    <path class="a"
          d="m1704.5 1000q6.1 8.5 12.7 16.6c2.4 3 5.2 6.7 7.5 9.8 42.1 57.1 56.7 131.7 44.8 201.2 34.5-69.8 22.1-157.7-24.6-219q-3.3-4.3-6.7-8.6c-9-11.2-18.5-22.6-26.7-34.1-25.1-35.7-48.3-74.9-56-118.4-5.2 26.1 0.7 53.3 9 78.2 9.2 26.6 23.3 51.5 40 74.3z"/>
    <path class="a"
          d="m1808.2 928.6c0 0-22.8-36-45.5-53.5-30.7-23.6-48.4-22.7-48.4-22.7 0 0 30.8 15.3 62.2 45.8 8.7 8.5 31.7 30.4 31.7 30.4z"/>
    <path class="a"
          d="m129.3 1656.6c20.5-3.8 39.4-11.3 56-22.3 8.9-6 17.1-12.9 24.3-20.7 7.3-7.7 13.6-16.4 18.9-25.6 4.9-8.6 8.8-17.8 11.8-27.3q0.4-1.3 0.8-2.6c2.5-8.5 4.2-17.3 5.2-26.4q0.3-3.2 0.5-6.5c1-15.5-0.4-31.6-4-47.8-2.9-13.4-7.5-26.9-13.5-40.2q-2.1-4.7-4.4-9.4-5.8-11.3-12.8-22.5c-16.8-26.3-39.3-51.8-67.1-75.8-12.2-11.4-24.6-21.7-37.3-30.9q-11.6-8.3-23.4-15.3-5.6-3.4-11.3-6.5c-23.7-12.7-47.8-21.4-71.6-25.8q-0.7-0.2-1.4-0.3v27.4c24.3 5 50.1 15.3 76.4 31.9q11.8 7.4 23.7 16.6 13.5 10.3 26.9 22.9c39.1 33.7 64.6 68.3 78.8 101.2q5.5 12.5 8.8 24.6c5.9 21.6 7 42.1 3.9 60.7-1.5 9.5-4.1 18.5-7.7 26.9-8.4 20.1-22.4 36.9-40.5 49-41 27.3-103.1 30.1-170.3-8.1v30.5c21.1 10.6 42.5 17.9 63.6 21.8 22.7 4.2 44.8 4.4 65.7 0.5z"/>
    <path class="a"
          d="m77.4 1508.3c38.8 19.9 77.5 43.9 104.5 79-7.6-25.6-25.3-46.9-44.1-65.2-25.7-24.1-56.7-42.2-88.9-56.2-3.6-1.5-7.7-3.5-11.1-5.2-13.4-6.5-26-14.2-37.8-23v32.3c8.9 6 18.3 11.3 28 15.9 16.2 7.4 33.6 14.3 49.4 22.4z"/>
    <path class="a"
          d="m147.1 1406.7c0 0-38.3-52.9-106.1-88.2-15.1-7.8-28.9-12.3-41-14.8v13.8q6.3 2.1 13.4 4.6c61.9 22 133.7 84.6 133.7 84.6z"/>
    <path class="a"
          d="m9 1586c0 0 36.9 21.4 65.1 26.4 38.2 6.8 53.4-2.2 53.4-2.2 0 0-34.4 0.6-76.3-11.9-11.7-3.5-42.2-12.3-42.2-12.3z"/>
    <path fill-rule="evenodd" class="a"
          d="m921.7 1579c-36.7-31.3-64.4-64.7-82.3-99.4-8.5-16.5-14.8-33.3-18.6-49.9-3.8-16.3-5.3-32.5-4.3-48.1 0.6-11.3 2.5-22.3 5.6-32.8 3-10.4 7.2-20.4 12.5-29.7 5.3-9.2 11.6-17.8 18.9-25.5 7.2-7.7 15.3-14.6 24.2-20.6 16.9-11.2 36-18.8 56.9-22.6 20.9-3.8 42.9-3.7 65.4 0.3q0.7 0.1 1.4 0.3c23.8 4.4 47.9 13.1 71.6 25.8q5.7 3.1 11.3 6.5 11.8 7 23.4 15.3c12.7 9.2 25.1 19.5 37.3 30.9 27.8 24 50.3 49.5 67.1 75.8q7 11.2 12.8 22.5 2.3 4.7 4.4 9.4c6 13.3 10.6 26.8 13.5 40.2 3.6 16.2 5 32.3 4 47.8q-0.2 3.3-0.5 6.5c-1 9.1-2.7 17.9-5.2 26.4q-0.4 1.3-0.8 2.6c-3 9.5-6.9 18.7-11.8 27.3-5.3 9.2-11.6 17.9-18.9 25.6-7.2 7.8-15.4 14.7-24.3 20.7-16.6 11-35.5 18.5-56 22.3-20.9 3.9-43 3.7-65.7-0.5-21.1-3.9-42.5-11.2-63.6-21.8q-3.5-1.7-7-3.6c-24.3-13-48.3-30.4-71.3-51.7zm17.9-20.2c20.3 18.9 40.6 33.7 60.4 45 67.2 38.2 129.3 35.4 170.3 8.1 18.1-12.1 32.1-28.9 40.5-49 3.6-8.4 6.2-17.4 7.7-26.9 3.1-18.6 2-39.1-3.9-60.7q-3.3-12.1-8.8-24.6c-14.2-32.9-39.7-67.5-78.8-101.2q-13.4-12.6-26.9-22.9-11.9-9.2-23.7-16.6c-26.3-16.6-52.1-26.9-76.4-31.9-42.1-8.6-79.6-1.1-107.3 17.4-68.1 45.3-77.9 157.3 46.9 263.3z"/>
    <path class="a"
          d="m1000 1470c8.9 6 18.3 11.3 28 15.9 16.2 7.4 33.6 14.3 49.4 22.4 38.8 19.9 77.5 43.9 104.5 79-7.6-25.6-25.3-46.9-44.1-65.2-25.7-24.1-56.7-42.2-88.9-56.2-3.6-1.5-7.7-3.5-11.1-5.2-13.4-6.5-26-14.2-37.8-23-44.8-33.2-78.1-81.5-95.1-134.6 1.5 67 39.9 129.8 95.1 166.9z"/>
    <path class="a"
          d="m376 1801.3c-3.1-10.1-7.3-19.9-12.6-29.1-5.3-9.3-11.8-18-19.3-25.8-7.5-8-16.1-15.2-25.4-21.4-13.1-8.7-27.8-15.6-43.7-20.6-16.3-5.1-34-8.1-52.5-9.1-39-2-81.8 5-127.3 20.9-30 9.1-57.2 21-80.7 35.5q-7.5 4.5-14.5 9.5v33.9c25.6-21.5 59.9-40.1 103.5-53.3 154.5-54.2 246.3 10.7 251.1 92.4 3 52.6-29.9 112.1-105.3 151.3q-12.4 6.5-26.3 12.1-3 1.2-6.1 2.4h61.6q0.6-0.3 1.1-0.7c23-14 42.7-30.4 58.5-48.7 15.3-17.8 26.8-37.1 34.2-57.4 7.2-20 10.3-40.4 9.1-60.6-0.6-10.6-2.4-21.2-5.4-31.3z"/>
    <path class="a"
          d="m341.8 1840.9c-68.1-37.8-156.5-29.7-219.9 14.1-14.6 10.2-29.3 21.8-44.3 31.3-24.4 15.5-50.2 30.1-77.6 39.8v12.6c11.9-1.4 23.8-4.1 35.2-7.3 33.8-10 65-27.6 93.3-48.4 3.2-2.2 6.9-4.8 10.2-6.9 59-39.4 134.2-50.5 203.1-35.2z"/>
    <path class="a"
          d="m317.8 1880.5c0 0-14.2 16.7-47.2 44.5-50.2 42.3-140.5 72.8-140.5 72.8 0 0 65-6.4 129.7-47.1 49.7-31.4 58-70.2 58-70.2z"/>
    <path class="a" d="m13.1 1818.2c8.9-8.3 31.9-30.2 31.9-30.2 0 0-25.7 14.6-45 32.1v11.2c4-4.3 8.4-8.7 13.1-13.1z"/>
    <path class="a"
          d="m62.3 1053.3q5.1 0.6 10.3 0.9 12.7 0.8 25.9 0.3c31.2-1.2 64.5-7.7 99.3-19.6 16-4.8 31.2-10.3 45.5-16.7q13-5.7 25-12.4 5.2-2.8 10.2-5.8 0.6-0.3 1.1-0.7c23-14 42.7-30.4 58.5-48.7 15.3-17.8 26.8-37.1 34.2-57.4 7.2-20 10.3-40.4 9.1-60.6-0.6-10.6-2.4-21.2-5.4-31.3-3.1-10.1-7.3-19.9-12.6-29.1-5.3-9.3-11.8-18-19.3-25.8-7.5-8-16.1-15.2-25.4-21.4-13.1-8.7-27.8-15.6-43.7-20.6-16.3-5.1-34-8.1-52.5-9.1-39-2-81.8 5-127.3 20.9-30 9.1-57.2 21-80.7 35.5q-7.5 4.5-14.5 9.5v33.9c25.6-21.5 59.9-40.1 103.5-53.3 154.5-54.2 246.3 10.7 251.1 92.4 3 52.6-29.9 112.1-105.3 151.3q-12.4 6.5-26.3 12.1-3 1.2-6.1 2.4-13 5-27.3 9.2c-48.8 16.8-91.5 21.3-127.1 17.1q-13.6-1.7-25.7-5c-13.6-3.6-25.9-8.7-36.8-15v30.3q10 4.6 20.7 8.1c13.1 4.2 27 7.1 41.6 8.6z"/>
    <path class="a"
          d="m989.3 1830.9c-25 29.5-25 47.2-25 47.2 0 0 12.3-21.8 35.7-46.8 4-4.3 8.4-8.7 13.1-13.1 8.9-8.3 31.9-30.2 31.9-30.2 0 0-25.7 14.6-45 32.1-3.9 3.5-7.5 7.1-10.7 10.8z"/>
    <path fill-rule="evenodd" class="a"
          d="m949.7 1000c-6.6-7.3-12.3-15.1-17.1-23.5-5.4-9.2-9.6-19-12.7-29.2-3-10.2-4.9-20.8-5.5-31.5-1.2-19.9 1.8-39.9 9-59.6 7.2-20 18.5-39 33.5-56.5 12.2-14 26.6-26.9 43.1-38.5q7-5 14.5-9.5c23.5-14.5 50.7-26.4 80.7-35.5 45.5-15.9 88.3-22.9 127.3-20.9 18.5 1 36.2 4 52.5 9.1 15.9 5 30.6 11.9 43.7 20.6 9.3 6.2 17.9 13.4 25.4 21.4 7.5 7.8 14 16.5 19.3 25.8 5.3 9.2 9.5 19 12.6 29.1 3 10.1 4.8 20.7 5.4 31.3 1.2 20.2-1.9 40.6-9.1 60.6-7.4 20.3-18.9 39.6-34.2 57.4-15.8 18.3-35.5 34.7-58.5 48.7q-0.5 0.4-1.1 0.7-5 3-10.2 5.8-12 6.7-25 12.4c-14.3 6.4-29.5 11.9-45.5 16.7-34.8 11.9-68.1 18.4-99.3 19.6q-13.2 0.5-25.9-0.3-5.2-0.3-10.3-0.9c-14.6-1.5-28.5-4.4-41.6-8.6q-10.7-3.5-20.7-8.1c-8-3.7-15.5-7.9-22.5-12.6q-2.8-1.8-5.4-3.8c-7.3-5.3-14.1-11.3-20.2-17.8q-0.9-0.9-1.8-1.9-0.2-0.3-0.4-0.5zm40.4 0q4.7 3.3 9.9 6.3c10.9 6.3 23.2 11.4 36.8 15q12.1 3.3 25.7 5c35.6 4.2 78.3-0.3 127.1-17.1q14.3-4.2 27.3-9.2 3.1-1.2 6.1-2.4 13.9-5.6 26.3-12.1c75.4-39.2 108.3-98.7 105.3-151.3-4.8-81.7-96.6-146.6-251.1-92.4-43.6 13.2-77.9 31.8-103.5 53.3-42.6 35.7-61.1 79.3-58.7 119.2 1.2 21.6 8.7 42.1 21.8 59.6 5.4 7.3 11.9 14.1 19.3 20.3q3.7 3 7.7 5.8z"/>
    <path fill-rule="evenodd" class="a"
          d="m462.3 1761.6c-17.8-5.7-34.1-13.1-48.5-22.2-14.2-8.8-26.6-19.2-37-31-7.5-8.4-14-17.5-19.2-27.1-5.2-9.5-9.3-19.6-12.1-29.9-2.8-10.2-4.4-20.8-4.8-31.4-0.3-10.5 0.6-21.2 2.7-31.6 4-19.9 12.1-38.8 24.2-56.3 12.3-17.8 28.4-33.5 47.7-46.8 19.9-13.7 43.1-24.6 68.9-32.3q6.2-1.8 12.6-3.4 13.2-3.4 27.3-5.7c15.5-2.5 31.6-4 48.3-4.5 36.6-2.7 70.5-0.6 101 6.2q12.9 2.9 24.9 6.9 5 1.6 9.8 3.4c13.7 5.3 26.5 11.6 38 19 14 8.9 26.3 19.3 36.6 31q2.2 2.4 4.2 5c5.7 7 10.8 14.5 15 22.3q0.7 1.2 1.3 2.3c4.6 8.9 8.3 18.2 10.9 27.7 2.8 10.3 4.4 20.9 4.8 31.5 0.3 10.6-0.5 21.3-2.6 31.8-4 19.6-12 38.2-23.9 55.4-12 17.5-27.8 33-46.8 46.1-19.6 13.5-42.4 24.2-67.9 31.9-26.4 8-55.7 12.6-87 13.8-48.1 3.8-91.3-0.3-128.4-12.1zm126.8-14.8c121.5-4.5 188.2-63 200.7-125.6 4.3-21.3 2.3-43-5.9-63.2-3.4-8.5-7.9-16.7-13.6-24.5-11-15.3-26.2-29.1-45.6-40.1q-11-6.3-23.7-11.3c-33.3-13.2-75.7-19.6-127.2-15.8q-18.5 0.5-35.3 2.7-14.9 2-28.5 5.1c-82.9 18.7-129.9 67.9-140.2 119.6-16.1 80.2 56.2 166.3 219.3 153.1z"/>
    <path class="a"
          d="m650.9 1613.6c41.6-13.3 85.9-23.7 129.7-18-23.4-12.7-51-15.3-77.2-14.8-35.3 1-70 10.1-102.6 23.1-3.6 1.4-7.9 2.9-11.6 4.1-67.1 23.1-142.7 14.7-205.4-17.6 56.3 53.9 143.8 68.5 216.3 42.3 16.7-6.2 33.9-13.7 50.8-19.1z"/>
    <path class="a"
          d="m628.5 1492.5c0 0-64.6-10.4-137.5 12.6-56 17.7-73.9 53.1-73.9 53.1 0 0 17.9-12.5 57-31.1 59.3-28.1 154.4-34.6 154.4-34.6z"/>
    <path class="a"
          d="m696 1695.8c-10.7 5.8-38.5 21.2-38.5 21.2 0 0 41.2-11 64.7-27.4 31.7-22.2 36.1-39.3 36.1-39.3 0 0-23.8 24.7-62.3 45.5z"/>
    <path fill-rule="evenodd" class="a"
          d="m339.5 1057.2c27.3 3.7 55.9 11.6 84.9 23.5 45.3 16.4 83 38 111.9 64.2 13.8 12.5 25.5 26.1 34.9 40.3 9.2 13.9 16.3 28.5 20.9 43.5 3.3 10.8 5.4 21.8 6.2 32.7 0.8 10.8 0.3 21.6-1.4 32.2-1.7 10.4-4.6 20.7-8.7 30.5-4 9.7-9.2 19.1-15.5 27.7-11.8 16.4-27.1 30.3-45.4 41.2-18.5 11-39.7 18.7-62.7 22.8-23.9 4.2-49.5 4.5-76.1 0.8q-6.4-0.8-12.9-2-13.5-2.5-27.2-6.2c-15.1-4.2-30.4-9.5-45.9-15.9-34.4-12.8-64.4-28.7-89.3-47.5q-10.5-8-19.9-16.6-3.8-3.6-7.4-7.2c-10.3-10.4-19.3-21.5-26.8-33-9-13.9-15.9-28.5-20.4-43.4q-1-3.1-1.8-6.3c-2.3-8.8-3.7-17.7-4.4-26.5q-0.1-1.3-0.1-2.7c-0.6-9.9-0.1-19.9 1.5-29.6 1.7-10.6 4.6-20.9 8.7-30.7 4-9.8 9.3-19.2 15.6-27.9 11.6-16.1 26.6-29.8 44.6-40.5 18.2-10.9 39-18.5 61.7-22.5 23.4-4.2 48.7-4.5 75-0.9zm75.2 48.6c-112.4-46.3-197.3-20.6-234.7 31.1-12.7 17.6-19.9 38.2-20.8 60-0.4 9.2 0.3 18.5 2.2 27.9 3.7 18.5 11.9 37.4 24.9 55.5q7.4 10.2 16.9 20c24.8 25.8 60.8 49.3 109.2 67.2q17 7.1 33.2 12 14.4 4.4 28.1 7.3c83.2 17.3 146.3-8.1 177.2-50.7 47.9-66.4 17.8-174.7-136.2-230.3z"/>
    <path class="a"
          d="m177.8 1164c16 21.3 40 35.1 64.1 45.5 32.5 13.7 67.9 19.8 103 21.6 3.8 0.2 8.4 0.6 12.2 1 70.7 6.8 135.9 45.7 179.7 101.1-28.9-72.3-102.6-121.9-179.4-128.1-17.7-1.3-36.5-1.6-54.1-3.7-43.4-5.1-88-14-125.5-37.4z"/>
    <path class="a"
          d="m273.5 1320.9c0 0 54.4 36.2 130.3 45.5 58.4 7.1 89.4-17.7 89.4-17.7 0 0-21.6 4-64.8 4.7-65.7 1-154.9-32.5-154.9-32.5z"/>
    <path class="a"
          d="m269.9 1102.7c-38.1 7-49.2 20.8-49.2 20.8 0 0 32-12.6 75.6-15.6 12.2-0.9 43.9-3.3 43.9-3.3 0 0-42.1-7.1-70.3-1.9z"/>
    <path fill-rule="evenodd" class="a"
          d="m601.2 1162.1q-7.1-11.7-13.5-24.4c-7.1-14-13.3-28.9-18.9-44.7-12.7-32.2-20.7-63.4-23.8-93q-0.3-2.6-0.5-5.2-1.1-13.2-0.9-25.9 0.1-5.2 0.4-10.3c0.8-14.7 3.1-28.7 6.6-42 4.3-16 10.6-30.8 18.6-44.2q1.7-2.8 3.5-5.5c5-7.6 10.7-14.6 16.8-21q1-1 1.9-1.9c7.1-7.1 14.8-13.4 23.1-18.7 9-5.8 18.6-10.5 28.6-14 10-3.5 20.5-5.9 31.2-7 19.8-2.2 40-0.1 60 6.1 20.3 6.3 39.8 16.6 57.9 30.8 18.8 14.7 35.9 33.3 50.8 55.2 15.6 22.9 28.8 49.4 39.3 78.9q5 12.5 9.1 24.7c12 35.7 18 69.7 17.8 101.5-0.1 18.6-2.3 36.4-6.6 52.9-4.2 16.1-10.4 31.1-18.4 44.6-5.8 9.6-12.6 18.5-20.2 26.4-7.5 7.9-15.9 14.8-24.8 20.5-9 5.8-18.6 10.5-28.6 14-9.9 3.4-20.4 5.8-31 6.9-20.1 2.2-40.6 0.1-60.9-6.3-20.6-6.4-40.5-16.9-58.9-31.4-19.1-14.9-36.4-33.7-51.5-56q-3.6-5.4-7.1-11zm-7.1-78.5q6.1 17.4 13.2 32.8 6.3 13.6 13.3 25.7c42.8 73.5 103.8 103.5 156.2 97.9 78.6-8.4 137.7-97.1 86.1-240q-2.7-7.5-5.8-15.1c-40.7-114.6-116.5-160.6-180-153.9-21.6 2.3-41.7 10.8-58.5 24.7-7.1 5.8-13.6 12.6-19.3 20.3-11.3 15.1-19.9 33.7-24.6 55.6q-2.7 12.3-3.7 25.9c-0.9 13.2-0.6 27.4 1.1 42.5 3 25.5 10 53.5 22 83.6z"/>
    <path class="a"
          d="m728.8 1205.6c0 0-17.4-13.4-46.7-45.1-44.7-48.1-79.4-136.9-79.4-136.9 0 0 9.4 64.7 53.2 127.3 33.7 48.2 72.9 54.7 72.9 54.7z"/>
    <path class="a"
          d="m843 1896.4c-14.9-21.9-32-40.5-50.8-55.2-18.1-14.2-37.6-24.5-57.9-30.8-20-6.2-40.2-8.3-60-6.1-10.7 1.1-21.2 3.5-31.2 7-10 3.5-19.6 8.2-28.6 14-8.3 5.3-16 11.6-23.1 18.7q-0.9 0.9-1.9 1.9c-6.1 6.4-11.8 13.4-16.8 21q-1.8 2.7-3.5 5.5c-8 13.4-14.3 28.2-18.6 44.2-3.5 13.3-5.8 27.3-6.6 42q-0.3 5.1-0.4 10.3-0.2 12.7 0.9 25.9 0.2 2.6 0.5 5.2h27.1c-1.7-15.1-2-29.3-1.1-42.5q1-13.6 3.7-25.9c4.7-21.9 13.3-40.5 24.6-55.6 5.7-7.7 12.2-14.5 19.3-20.3 16.8-13.9 36.9-22.4 58.5-24.7 63.5-6.7 139.3 39.3 180 153.9q3.1 7.6 5.8 15.1h28.5q-4.1-12.2-9.1-24.7c-10.5-29.5-23.7-56-39.3-78.9z"/>
    <path class="a"
          d="m655.5 1847.5c-5.2 26.1 0.7 53.3 9 78.2 9.2 26.7 23.3 51.5 40 74.3h33.7c-9-11.2-18.5-22.6-26.7-34.1-25.1-35.7-48.3-74.9-56-118.4z"/>
    <path class="a"
          d="m762.7 1875.1c-30.7-23.6-48.4-22.7-48.4-22.7 0 0 30.8 15.3 62.2 45.8 8.7 8.5 31.7 30.4 31.7 30.4 0 0-22.8-36-45.5-53.5z"/>
    <path class="a"
          d="m1013.4 1322.1c61.9 22 133.7 84.6 133.7 84.6 0 0-38.3-52.9-106.1-88.2-15.1-7.8-28.9-12.3-41-14.8-29.8-6.2-48.8 0.1-48.8 0.1 0 0 16.8 3 48.8 13.7q6.3 2.1 13.4 4.6z"/>
    <path class="a"
          d="m1051.2 1598.3c-11.7-3.5-42.2-12.3-42.2-12.3 0 0 36.9 21.4 65.1 26.4 38.2 6.8 53.4-2.2 53.4-2.2 0 0-34.4 0.6-76.3-11.9z"/>
    <path fill-rule="evenodd" class="a"
          d="m1921.7 1579c-36.7-31.3-64.4-64.7-82.3-99.4-8.5-16.5-14.8-33.3-18.6-49.9-3.8-16.3-5.3-32.5-4.3-48.1 0.6-11.3 2.5-22.3 5.6-32.8 3-10.4 7.2-20.4 12.5-29.7 5.3-9.2 11.6-17.8 18.9-25.5 7.2-7.7 15.3-14.6 24.2-20.6 16.9-11.2 36-18.8 56.9-22.6 20.9-3.8 42.9-3.7 65.4 0.3q0.7 0.1 1.4 0.3c23.8 4.4 47.9 13.1 71.6 25.8q5.7 3.1 11.3 6.5 11.8 7 23.4 15.3c12.7 9.2 25.1 19.5 37.3 30.9 27.8 24 50.3 49.5 67.1 75.8q7 11.2 12.8 22.5 2.3 4.7 4.4 9.4c6 13.3 10.6 26.8 13.5 40.2 3.6 16.2 5 32.3 4 47.8q-0.2 3.3-0.5 6.5c-1 9.1-2.7 17.9-5.2 26.4q-0.4 1.3-0.8 2.6c-3 9.5-6.9 18.7-11.8 27.3-5.3 9.2-11.6 17.9-18.9 25.6-7.2 7.8-15.4 14.7-24.3 20.7-16.6 11-35.5 18.5-56 22.3-20.9 3.9-43 3.7-65.7-0.5-21.1-3.9-42.5-11.2-63.6-21.8q-3.5-1.7-7-3.6c-24.3-13-48.3-30.4-71.3-51.7zm17.9-20.2c20.3 18.9 40.6 33.7 60.4 45 67.2 38.2 129.3 35.4 170.3 8.1 18.1-12.1 32.1-28.9 40.5-49 3.6-8.4 6.2-17.4 7.7-26.9 3.1-18.6 2-39.1-3.9-60.7q-3.3-12.1-8.8-24.6c-14.2-32.9-39.7-67.5-78.8-101.2q-13.4-12.6-26.9-22.9-11.9-9.2-23.7-16.6c-26.3-16.6-52.1-26.9-76.4-31.9-42.1-8.6-79.6-1.1-107.3 17.4-68.1 45.3-77.9 157.3 46.9 263.3z"/>
    <path class="a"
          d="m2000 1470c8.9 6 18.3 11.3 28 15.9 16.2 7.4 33.6 14.3 49.4 22.4 38.8 19.9 77.5 43.9 104.5 79-7.6-25.6-25.3-46.9-44.1-65.2-25.7-24.1-56.7-42.2-88.9-56.2-3.6-1.5-7.7-3.5-11.1-5.2-13.4-6.5-26-14.2-37.8-23-44.8-33.2-78.1-81.5-95.1-134.6 1.5 67 39.9 129.8 95.1 166.9z"/>
    <path class="a"
          d="m1376 1801.3c-3.1-10.1-7.3-19.9-12.6-29.1-5.3-9.3-11.8-18-19.3-25.8-7.5-8-16.1-15.2-25.4-21.4-13.1-8.7-27.8-15.6-43.7-20.6-16.3-5.1-34-8.1-52.5-9.1-39-2-81.8 5-127.3 20.9-30 9.1-57.2 21-80.7 35.5q-7.5 4.5-14.5 9.5c-16.5 11.6-30.9 24.5-43.1 38.5-15 17.5-26.3 36.5-33.5 56.5-7.2 19.7-10.2 39.7-9 59.6 0.6 10.7 2.5 21.3 5.5 31.5 3.1 10.1 7.3 20 12.7 29.2 4.8 8.4 10.5 16.2 17.1 23.5h40.4q-4-2.8-7.7-5.8c-7.4-6.2-13.9-13-19.3-20.3-13.1-17.5-20.6-38-21.8-59.6-2.4-39.9 16.1-83.5 58.7-119.2 25.6-21.5 59.9-40.1 103.5-53.3 154.5-54.2 246.3 10.7 251.1 92.4 3 52.6-29.9 112.1-105.3 151.3q-12.4 6.5-26.3 12.1-3 1.2-6.1 2.4h61.6q0.6-0.3 1.1-0.7c23-14 42.7-30.4 58.5-48.7 15.3-17.8 26.8-37.1 34.2-57.4 7.2-20 10.3-40.4 9.1-60.6-0.6-10.6-2.4-21.2-5.4-31.3z"/>
    <path class="a"
          d="m1341.8 1840.9c-68.1-37.8-156.5-29.7-219.9 14.1-14.6 10.2-29.3 21.8-44.3 31.3-24.4 15.5-50.2 30.1-77.6 39.8-14 4.9-28.5 8.6-43.3 10.5 14.2 3.5 28.8 3.8 43.3 2.1 11.9-1.4 23.8-4.1 35.2-7.3 33.8-10 65-27.6 93.3-48.4 3.2-2.2 6.9-4.8 10.2-6.9 59-39.4 134.2-50.5 203.1-35.2z"/>
    <path class="a"
          d="m1317.8 1880.5c0 0-14.2 16.7-47.2 44.5-50.2 42.3-140.5 72.8-140.5 72.8 0 0 65-6.4 129.7-47.1 49.7-31.4 58-70.2 58-70.2z"/>
    <path class="a"
          d="m1989.3 1830.9c-25 29.5-25 47.2-25 47.2 0 0 12.3-21.8 35.7-46.8 4-4.3 8.4-8.7 13.1-13.1 8.9-8.3 31.9-30.2 31.9-30.2 0 0-25.7 14.6-45 32.1-3.9 3.5-7.5 7.1-10.7 10.8z"/>
    <path fill-rule="evenodd" class="a"
          d="m1462.3 1761.6c-17.8-5.7-34.1-13.1-48.5-22.2-14.2-8.8-26.6-19.2-37-31-7.5-8.4-14-17.5-19.2-27.1-5.2-9.5-9.3-19.6-12.1-29.9-2.8-10.2-4.4-20.8-4.8-31.4-0.3-10.5 0.6-21.2 2.7-31.6 4-19.9 12.1-38.8 24.2-56.3 12.3-17.8 28.4-33.5 47.7-46.8 19.9-13.7 43.1-24.6 68.9-32.3q6.2-1.8 12.6-3.4 13.2-3.4 27.3-5.7c15.5-2.5 31.6-4 48.3-4.5 36.6-2.7 70.5-0.6 101 6.2q12.9 2.9 24.9 6.9 5 1.6 9.8 3.4c13.7 5.3 26.5 11.6 38 19 14 8.9 26.3 19.3 36.6 31q2.2 2.4 4.2 5c5.7 7 10.8 14.5 15 22.3q0.7 1.2 1.3 2.3c4.6 8.9 8.3 18.2 10.9 27.7 2.8 10.3 4.4 20.9 4.8 31.5 0.3 10.6-0.5 21.3-2.6 31.8-4 19.6-12 38.2-23.9 55.4-12 17.5-27.8 33-46.8 46.1-19.6 13.5-42.4 24.2-67.9 31.9-26.4 8-55.7 12.6-87 13.8-48.1 3.8-91.3-0.3-128.4-12.1zm126.8-14.8c121.5-4.5 188.2-63 200.7-125.6 4.3-21.3 2.3-43-5.9-63.2-3.4-8.5-7.9-16.7-13.6-24.5-11-15.3-26.2-29.1-45.6-40.1q-11-6.3-23.7-11.3c-33.3-13.2-75.7-19.6-127.2-15.8q-18.5 0.5-35.3 2.7-14.9 2-28.5 5.1c-82.9 18.7-129.9 67.9-140.2 119.6-16.1 80.2 56.2 166.3 219.3 153.1z"/>
    <path class="a"
          d="m1650.9 1613.6c41.6-13.3 85.9-23.7 129.7-18-23.4-12.7-51-15.3-77.2-14.8-35.3 1-70 10.1-102.6 23.1-3.6 1.4-7.9 2.9-11.6 4.1-67.1 23.1-142.7 14.7-205.4-17.6 56.3 53.9 143.8 68.5 216.3 42.3 16.7-6.2 33.9-13.7 50.8-19.1z"/>
    <path class="a"
          d="m1628.5 1492.5c0 0-64.6-10.4-137.5 12.6-56 17.7-73.9 53.1-73.9 53.1 0 0 17.9-12.5 57-31.1 59.3-28.1 154.4-34.6 154.4-34.6z"/>
    <path class="a"
          d="m1696 1695.8c-10.7 5.8-38.5 21.2-38.5 21.2 0 0 41.2-11 64.7-27.4 31.7-22.2 36.1-39.3 36.1-39.3 0 0-23.8 24.7-62.3 45.5z"/>
    <path fill-rule="evenodd" class="a"
          d="m1132.4 1209.3c-0.6-9.9-0.1-19.9 1.5-29.6 1.7-10.6 4.6-20.9 8.7-30.7 4-9.8 9.3-19.2 15.6-27.9 11.6-16.1 26.6-29.8 44.6-40.5 18.2-10.9 39-18.5 61.7-22.5 23.4-4.2 48.7-4.5 75-0.9 27.3 3.7 55.9 11.6 84.9 23.5 45.3 16.4 83 38 111.9 64.2 13.8 12.5 25.5 26.1 34.9 40.3 9.2 13.9 16.3 28.5 20.9 43.5 3.3 10.8 5.4 21.8 6.2 32.7 0.8 10.8 0.3 21.6-1.4 32.2-1.7 10.4-4.6 20.7-8.7 30.5-4 9.7-9.2 19.1-15.5 27.7-11.8 16.4-27.1 30.3-45.4 41.2-18.5 11-39.7 18.7-62.7 22.8-23.9 4.2-49.5 4.5-76.1 0.8q-6.4-0.8-12.9-2-13.5-2.5-27.2-6.2c-15.1-4.2-30.4-9.5-45.9-15.9-34.4-12.8-64.4-28.7-89.3-47.5q-10.5-8-19.9-16.6-3.8-3.6-7.4-7.2c-10.3-10.4-19.3-21.5-26.8-33-9-13.9-15.9-28.5-20.4-43.4q-1-3.1-1.8-6.3c-2.3-8.8-3.7-17.7-4.4-26.5q-0.1-1.3-0.1-2.7zm29 15.5c3.7 18.5 11.9 37.4 24.9 55.5q7.4 10.2 16.9 20c24.8 25.8 60.8 49.3 109.2 67.2q17 7.1 33.2 12 14.4 4.4 28.1 7.3c83.2 17.3 146.3-8.1 177.2-50.7 47.9-66.4 17.8-174.7-136.2-230.3-112.4-46.3-197.3-20.6-234.7 31.1-12.7 17.6-19.9 38.2-20.8 60-0.4 9.2 0.3 18.5 2.2 27.9z"/>
    <path class="a"
          d="m1241.9 1209.5c32.5 13.7 67.9 19.8 103 21.6 3.8 0.2 8.4 0.6 12.2 1 70.7 6.8 135.9 45.7 179.7 101.1-28.9-72.3-102.6-121.9-179.4-128.1-17.7-1.3-36.5-1.6-54.1-3.7-43.4-5.1-88-14-125.5-37.4 16 21.3 40 35.1 64.1 45.5z"/>
    <path class="a"
          d="m1273.5 1320.9c0 0 54.4 36.2 130.3 45.5 58.4 7.1 89.4-17.7 89.4-17.7 0 0-21.6 4-64.8 4.7-65.7 1-154.9-32.5-154.9-32.5z"/>
    <path class="a"
          d="m1340.2 1104.6c0 0-42.1-7.1-70.3-1.9-38.1 7-49.2 20.8-49.2 20.8 0 0 32-12.6 75.6-15.6 12.2-0.9 43.9-3.3 43.9-3.3z"/>
    <path fill-rule="evenodd" class="a"
          d="m1601.2 1162.1q-7.1-11.7-13.5-24.4c-7.1-14-13.3-28.9-18.9-44.7-12.7-32.2-20.7-63.4-23.8-93q-0.3-2.6-0.5-5.2-1.1-13.2-0.9-25.9 0.1-5.2 0.4-10.3c0.8-14.7 3.1-28.7 6.6-42 4.3-16 10.6-30.8 18.6-44.2q1.7-2.8 3.5-5.5c5-7.6 10.7-14.6 16.8-21q1-1 1.9-1.9c7.1-7.1 14.8-13.4 23.1-18.7 9-5.8 18.6-10.5 28.6-14 10-3.5 20.5-5.9 31.2-7 19.8-2.2 40-0.1 60 6.1 20.3 6.3 39.8 16.6 57.9 30.8 18.8 14.7 35.9 33.3 50.8 55.2 15.6 22.9 28.8 49.4 39.3 78.9q5 12.5 9.1 24.7c12 35.7 18 69.7 17.8 101.5-0.1 18.6-2.3 36.4-6.6 52.9-4.2 16.1-10.4 31.1-18.4 44.6-5.8 9.6-12.6 18.5-20.2 26.4-7.5 7.9-15.9 14.8-24.8 20.5-9 5.8-18.6 10.5-28.6 14-9.9 3.4-20.4 5.8-31 6.9-20.1 2.2-40.6 0.1-60.9-6.3-20.6-6.4-40.5-16.9-58.9-31.4-19.1-14.9-36.4-33.7-51.5-56q-3.6-5.4-7.1-11zm-7.1-78.5q6.1 17.4 13.2 32.8 6.3 13.6 13.3 25.7c42.8 73.5 103.8 103.5 156.2 97.9 78.6-8.4 137.7-97.1 86.1-240q-2.7-7.5-5.8-15.1c-40.7-114.6-116.5-160.6-180-153.9-21.6 2.3-41.7 10.8-58.5 24.7-7.1 5.8-13.6 12.6-19.3 20.3-11.3 15.1-19.9 33.7-24.6 55.6q-2.7 12.3-3.7 25.9c-0.9 13.2-0.6 27.4 1.1 42.5 3 25.5 10 53.5 22 83.6z"/>
    <path class="a"
          d="m1728.8 1205.6c0 0-17.4-13.4-46.7-45.1-44.7-48.1-79.4-136.9-79.4-136.9 0 0 9.4 64.7 53.2 127.3 33.7 48.2 72.9 54.7 72.9 54.7z"/>
    <path class="a"
          d="m1843 1896.4c-14.9-21.9-32-40.5-50.8-55.2-18.1-14.2-37.6-24.5-57.9-30.8-20-6.2-40.2-8.3-60-6.1-10.7 1.1-21.2 3.5-31.2 7-10 3.5-19.6 8.2-28.6 14-8.3 5.3-16 11.6-23.1 18.7q-0.9 0.9-1.9 1.9c-6.1 6.4-11.8 13.4-16.8 21q-1.8 2.7-3.5 5.5c-8 13.4-14.3 28.2-18.6 44.2-3.5 13.3-5.8 27.3-6.6 42q-0.3 5.1-0.4 10.3-0.2 12.7 0.9 25.9 0.2 2.6 0.5 5.2h27.1c-1.7-15.1-2-29.3-1.1-42.5q1-13.6 3.7-25.9c4.7-21.9 13.3-40.5 24.6-55.6 5.7-7.7 12.2-14.5 19.3-20.3 16.8-13.9 36.9-22.4 58.5-24.7 63.5-6.7 139.3 39.3 180 153.9q3.1 7.6 5.8 15.1h28.5q-4.1-12.2-9.1-24.7c-10.5-29.5-23.7-56-39.3-78.9z"/>
    <path class="a"
          d="m1655.5 1847.5c-5.2 26.1 0.7 53.3 9 78.2 9.2 26.7 23.3 51.5 40 74.3h33.7c-9-11.2-18.5-22.6-26.7-34.1-25.1-35.7-48.3-74.9-56-118.4z"/>
    <path class="a"
          d="m1762.7 1875.1c-30.7-23.6-48.4-22.7-48.4-22.7 0 0 30.8 15.3 62.2 45.8 8.7 8.5 31.7 30.4 31.7 30.4 0 0-22.8-36-45.5-53.5z"/>
    <path class="a"
          d="m2013.4 322.1c61.9 22 133.7 84.6 133.7 84.6 0 0-38.3-52.9-106.1-88.2-15.1-7.8-28.9-12.3-41-14.8-29.8-6.2-48.8 0.1-48.8 0.1 0 0 16.8 3 48.8 13.7q6.3 2.1 13.4 4.6z"/>
    <path class="a"
          d="m2051.2 598.3c-11.7-3.5-42.2-12.3-42.2-12.3 0 0 36.9 21.4 65.1 26.4 38.2 6.8 53.4-2.2 53.4-2.2 0 0-34.4 0.6-76.3-11.9z"/>
    <path fill-rule="evenodd" class="a"
          d="m2877.7 273c16.9-11.2 36-18.8 56.9-22.6 20.9-3.8 42.9-3.7 65.4 0.3q0.7 0.1 1.4 0.3c23.8 4.4 47.9 13.1 71.6 25.8q5.7 3.1 11.3 6.5 11.8 7 23.4 15.3c12.7 9.2 25.1 19.5 37.3 30.9 27.8 24 50.3 49.5 67.1 75.8q7 11.2 12.8 22.5 2.3 4.7 4.4 9.4c6 13.3 10.6 26.8 13.5 40.2 3.6 16.2 5 32.3 4 47.8q-0.2 3.3-0.5 6.5c-1 9.1-2.7 17.9-5.2 26.4q-0.4 1.3-0.8 2.6c-3 9.5-6.9 18.7-11.8 27.3-5.3 9.2-11.6 17.9-18.9 25.6-7.2 7.8-15.4 14.7-24.3 20.7-16.6 11-35.5 18.5-56 22.3-20.9 3.9-43 3.7-65.7-0.5-21.1-3.9-42.5-11.2-63.6-21.8q-3.5-1.7-7-3.6c-24.3-13-48.3-30.4-71.3-51.7-36.7-31.3-64.4-64.7-82.3-99.4-8.5-16.5-14.8-33.3-18.6-49.9-3.8-16.3-5.3-32.5-4.3-48.1 0.6-11.3 2.5-22.3 5.6-32.8 3-10.4 7.2-20.4 12.5-29.7 5.3-9.2 11.6-17.8 18.9-25.5 7.2-7.7 15.3-14.6 24.2-20.6zm15 22.5c-68.1 45.3-77.9 157.3 46.9 263.3 20.3 18.9 40.6 33.7 60.4 45 67.2 38.2 129.3 35.4 170.3 8.1 18.1-12.1 32.1-28.9 40.5-49 3.6-8.4 6.2-17.4 7.7-26.9 3.1-18.6 2-39.1-3.9-60.7q-3.3-12.1-8.8-24.6c-14.2-32.9-39.7-67.5-78.8-101.2q-13.4-12.6-26.9-22.9-11.9-9.2-23.7-16.6c-26.3-16.6-52.1-26.9-76.4-31.9-42.1-8.6-79.6-1.1-107.3 17.4z"/>
    <path class="a"
          d="m3000 470c8.9 6 18.3 11.3 28 15.9 16.2 7.4 33.6 14.3 49.4 22.4 38.8 19.9 77.5 43.9 104.5 79-7.6-25.6-25.3-46.9-44.1-65.2-25.7-24.1-56.7-42.2-88.9-56.2-3.6-1.5-7.7-3.5-11.1-5.2-13.4-6.5-26-14.2-37.8-23-44.8-33.2-78.1-81.5-95.1-134.6 1.5 67 39.9 129.8 95.1 166.9z"/>
    <path class="a"
          d="m2270.6 925c-50.2 42.3-140.5 72.8-140.5 72.8 0 0 65-6.4 129.7-47.1 49.7-31.4 58-70.2 58-70.2 0 0-14.2 16.7-47.2 44.5z"/>
    <path class="a"
          d="m3013.1 818.2c8.9-8.3 31.9-30.2 31.9-30.2 0 0-25.7 14.6-45 32.1-3.9 3.5-7.5 7.1-10.7 10.8-25 29.5-25 47.2-25 47.2 0 0 12.3-21.8 35.7-46.8 4-4.3 8.4-8.7 13.1-13.1z"/>
    <path class="a"
          d="m2951.9 2.4c6.1 6.5 12.9 12.5 20.2 17.8q2.6 2 5.4 3.8c7 4.7 14.5 8.9 22.5 12.6q10 4.6 20.7 8.1c13.1 4.2 27 7.1 41.6 8.6q5.1 0.6 10.3 0.9 12.7 0.8 25.9 0.3c31.2-1.2 64.5-7.7 99.3-19.6 16-4.8 31.2-10.3 45.5-16.7q13-5.7 25-12.4 5.2-2.8 10.2-5.8h-61.6q-13 5-27.3 9.2c-48.8 16.8-91.5 21.3-127.1 17.1q-13.6-1.7-25.7-5c-13.6-3.6-25.9-8.7-36.8-15q-5.2-3-9.9-6.3h-40.4q0.2 0.2 0.4 0.5 0.9 1 1.8 1.9z"/>
    <path fill-rule="evenodd" class="a"
          d="m2345.5 651.4c-2.8-10.2-4.4-20.8-4.8-31.4-0.3-10.5 0.6-21.2 2.7-31.6 4-19.9 12.1-38.8 24.2-56.3 12.3-17.8 28.4-33.5 47.7-46.8 19.9-13.7 43.1-24.6 68.9-32.3q6.2-1.8 12.6-3.4 13.2-3.4 27.3-5.7c15.5-2.5 31.6-4 48.3-4.5 36.6-2.7 70.5-0.6 101 6.2q12.9 2.9 24.9 6.9 5 1.6 9.8 3.4c13.7 5.3 26.5 11.6 38 19 14 8.9 26.3 19.3 36.6 31q2.2 2.4 4.2 5c5.7 7 10.8 14.5 15 22.3q0.7 1.2 1.3 2.3c4.6 8.9 8.3 18.2 10.9 27.7 2.8 10.3 4.4 20.9 4.8 31.5 0.3 10.6-0.5 21.3-2.6 31.8-4 19.6-12 38.2-23.9 55.4-12 17.5-27.8 33-46.8 46.1-19.6 13.5-42.4 24.2-67.9 31.9-26.4 8-55.7 12.6-87 13.8-48.1 3.8-91.3-0.3-128.4-12.1-17.8-5.7-34.1-13.1-48.5-22.2-14.2-8.8-26.6-19.2-37-31-7.5-8.4-14-17.5-19.2-27.1-5.2-9.5-9.3-19.6-12.1-29.9zm243.6 95.4c121.5-4.5 188.2-63 200.7-125.6 4.3-21.3 2.3-43-5.9-63.2-3.4-8.5-7.9-16.7-13.6-24.5-11-15.3-26.2-29.1-45.6-40.1q-11-6.3-23.7-11.3c-33.3-13.2-75.7-19.6-127.2-15.8q-18.5 0.5-35.3 2.7-14.9 2-28.5 5.1c-82.9 18.7-129.9 67.9-140.2 119.6-16.1 80.2 56.2 166.3 219.3 153.1z"/>
    <path class="a"
          d="m2600.1 632.7c16.7-6.2 33.9-13.7 50.8-19.1 41.6-13.3 85.9-23.7 129.7-18-23.4-12.7-51-15.3-77.2-14.8-35.3 1-70 10.1-102.6 23.1-3.6 1.4-7.9 2.9-11.6 4.1-67.1 23.1-142.7 14.7-205.4-17.6 56.3 53.9 143.8 68.5 216.3 42.3z"/>
    <path class="a"
          d="m2628.5 492.5c0 0-64.6-10.4-137.5 12.6-56 17.7-73.9 53.1-73.9 53.1 0 0 17.9-12.5 57-31.1 59.3-28.1 154.4-34.6 154.4-34.6z"/>
    <path class="a"
          d="m2696 695.8c-10.7 5.8-38.5 21.2-38.5 21.2 0 0 41.2-11 64.7-27.4 31.7-22.2 36.1-39.3 36.1-39.3 0 0-23.8 24.7-62.3 45.5z"/>
    <path fill-rule="evenodd" class="a"
          d="m2264.5 58.1c23.4-4.2 48.7-4.5 75-0.9 27.3 3.7 55.9 11.6 84.9 23.5 45.3 16.4 83 38 111.9 64.2 13.8 12.5 25.5 26.1 34.9 40.3 9.2 13.9 16.3 28.5 20.9 43.5 3.3 10.8 5.4 21.8 6.2 32.7 0.8 10.8 0.3 21.6-1.4 32.2-1.7 10.4-4.6 20.7-8.7 30.5-4 9.7-9.2 19.1-15.5 27.7-11.8 16.4-27.1 30.3-45.4 41.2-18.5 11-39.7 18.7-62.7 22.8-23.9 4.2-49.5 4.5-76.1 0.8q-6.4-0.8-12.9-2-13.5-2.5-27.2-6.2c-15.1-4.2-30.4-9.5-45.9-15.9-34.4-12.8-64.4-28.7-89.3-47.5q-10.5-8-19.9-16.6-3.8-3.6-7.4-7.2c-10.3-10.4-19.3-21.5-26.8-33-9-13.9-15.9-28.5-20.4-43.4q-1-3.1-1.8-6.3c-2.3-8.8-3.7-17.7-4.4-26.5q-0.1-1.3-0.1-2.7c-0.6-9.9-0.1-19.9 1.5-29.6 1.7-10.6 4.6-20.9 8.7-30.7 4-9.8 9.3-19.2 15.6-27.9 11.6-16.1 26.6-29.8 44.6-40.5 18.2-10.9 39-18.5 61.7-22.5zm-84.5 78.8c-12.7 17.6-19.9 38.2-20.8 60-0.4 9.2 0.3 18.5 2.2 27.9 3.7 18.5 11.9 37.4 24.9 55.5q7.4 10.2 16.9 20c24.8 25.8 60.8 49.3 109.2 67.2q17 7.1 33.2 12 14.4 4.4 28.1 7.3c83.2 17.3 146.3-8.1 177.2-50.7 47.9-66.4 17.8-174.7-136.2-230.3-112.4-46.3-197.3-20.6-234.7 31.1z"/>
    <path class="a"
          d="m2177.8 164c16 21.3 40 35.1 64.1 45.5 32.5 13.7 67.9 19.8 103 21.6 3.8 0.2 8.4 0.6 12.2 1 70.7 6.8 135.9 45.7 179.7 101.1-28.9-72.3-102.6-121.9-179.4-128.1-17.7-1.3-36.5-1.6-54.1-3.7-43.4-5.1-88-14-125.5-37.4z"/>
    <path class="a"
          d="m2273.5 320.9c0 0 54.4 36.2 130.3 45.5 58.4 7.1 89.4-17.7 89.4-17.7 0 0-21.6 4-64.8 4.7-65.7 1-154.9-32.5-154.9-32.5z"/>
    <path class="a"
          d="m2340.2 104.6c0 0-42.1-7.1-70.3-1.9-38.1 7-49.2 20.8-49.2 20.8 0 0 32-12.6 75.6-15.6 12.2-0.9 43.9-3.3 43.9-3.3z"/>
    <path class="a"
          d="m2587.7 137.7q6.4 12.7 13.5 24.4 3.5 5.6 7.1 11c15.1 22.3 32.4 41.1 51.5 56 18.4 14.5 38.3 25 58.9 31.4 20.3 6.4 40.8 8.5 60.9 6.3 10.6-1.1 21.1-3.5 31-6.9 10-3.5 19.6-8.2 28.6-14 8.9-5.7 17.3-12.6 24.8-20.5 7.6-7.9 14.4-16.8 20.2-26.4 8-13.5 14.2-28.5 18.4-44.6 4.3-16.5 6.5-34.3 6.6-52.9 0.2-31.8-5.8-65.8-17.8-101.5h-28.5c51.6 142.9-7.5 231.6-86.1 240-52.4 5.6-113.4-24.4-156.2-97.9q-7-12.1-13.3-25.7-7.1-15.4-13.2-32.8c-12-30.1-19-58.1-22-83.6h-27.1c3.1 29.6 11.1 60.8 23.8 93 5.6 15.8 11.8 30.7 18.9 44.7z"/>
    <path class="a"
          d="m2724.7 26.4c42.1 57.1 56.7 131.7 44.8 201.2 34.5-69.8 22.1-157.7-24.6-219q-3.3-4.3-6.7-8.6h-33.7q6.1 8.5 12.7 16.6c2.4 3 5.2 6.7 7.5 9.8z"/>
    <path class="a"
          d="m2728.8 205.6c0 0-17.4-13.4-46.7-45.1-44.7-48.1-79.4-136.9-79.4-136.9 0 0 9.4 64.7 53.2 127.3 33.7 48.2 72.9 54.7 72.9 54.7z"/>
    <path class="a"
          d="m2704.5 1000q6.1 8.5 12.7 16.6c2.4 3 5.2 6.7 7.5 9.8 42.1 57.1 56.7 131.7 44.8 201.2 34.5-69.8 22.1-157.7-24.6-219q-3.3-4.3-6.7-8.6c-9-11.2-18.5-22.6-26.7-34.1-25.1-35.7-48.3-74.9-56-118.4-5.2 26.1 0.7 53.3 9 78.2 9.2 26.6 23.3 51.5 40 74.3z"/>
    <path class="a"
          d="m2808.2 928.6c0 0-22.8-36-45.5-53.5-30.7-23.6-48.4-22.7-48.4-22.7 0 0 30.8 15.3 62.2 45.8 8.7 8.5 31.7 30.4 31.7 30.4z"/>
    <path class="a"
          d="m3013.4 322.1c61.9 22 133.7 84.6 133.7 84.6 0 0-38.3-52.9-106.1-88.2-15.1-7.8-28.9-12.3-41-14.8-29.8-6.2-48.8 0.1-48.8 0.1 0 0 16.8 3 48.8 13.7q6.3 2.1 13.4 4.6z"/>
    <path class="a"
          d="m3051.2 598.3c-11.7-3.5-42.2-12.3-42.2-12.3 0 0 36.9 21.4 65.1 26.4 38.2 6.8 53.4-2.2 53.4-2.2 0 0-34.4 0.6-76.3-11.9z"/>
    <path class="a"
          d="m3934.6 250.4c-20.9 3.8-40 11.4-56.9 22.6-8.9 6-17 12.9-24.2 20.6-7.3 7.7-13.6 16.3-18.9 25.5-5.3 9.3-9.5 19.3-12.5 29.7-3.1 10.5-5 21.5-5.6 32.8-1 15.6 0.5 31.8 4.3 48.1 3.8 16.6 10.1 33.4 18.6 49.9 17.9 34.7 45.6 68.1 82.3 99.4 23 21.3 47 38.7 71.3 51.7q3.5 1.9 7 3.6v-30.5c-19.8-11.3-40.1-26.1-60.4-45-124.8-106-115-218-46.9-263.3 27.7-18.5 65.2-26 107.3-17.4v-27.4c-22.5-4-44.5-4.1-65.4-0.3z"/>
    <path class="a" d="m3904.9 303.1c1.5 67 39.9 129.8 95.1 166.9v-32.3c-44.8-33.2-78.1-81.5-95.1-134.6z"/>
    <path class="a" d="m3951.2 303.8c0 0 16.8 3 48.8 13.7v-13.8c-29.8-6.2-48.8 0.1-48.8 0.1z"/>
    <path class="a"
          d="m3035.2 931.4c33.8-10 65-27.6 93.3-48.4 3.2-2.2 6.9-4.8 10.2-6.9 59-39.4 134.2-50.5 203.1-35.2-68.1-37.8-156.5-29.7-219.9 14.1-14.6 10.2-29.3 21.8-44.3 31.3-24.4 15.5-50.2 30.1-77.6 39.8-14 4.9-28.5 8.6-43.3 10.5 14.2 3.5 28.8 3.8 43.3 2.1 11.9-1.4 23.8-4.1 35.2-7.3z"/>
    <path class="a"
          d="m3270.6 925c-50.2 42.3-140.5 72.8-140.5 72.8 0 0 65-6.4 129.7-47.1 49.7-31.4 58-70.2 58-70.2 0 0-14.2 16.7-47.2 44.5z"/>
    <path class="a"
          d="m3956.9 799.7c-15 17.5-26.3 36.5-33.5 56.5-7.2 19.7-10.2 39.7-9 59.6 0.6 10.7 2.5 21.3 5.5 31.5 3.1 10.1 7.3 20 12.7 29.2 4.8 8.4 10.5 16.2 17.1 23.5q0.2 0.2 0.4 0.5 0.9 1 1.8 1.9c6.1 6.5 12.9 12.5 20.2 17.8q2.6 2 5.4 3.8c7 4.7 14.5 8.9 22.5 12.6v-30.3q-5.2-3-9.9-6.3-4-2.8-7.7-5.8c-7.4-6.2-13.9-13-19.3-20.3-13.1-17.5-20.6-38-21.8-59.6-2.4-39.9 16.1-83.5 58.7-119.2v-33.9c-16.5 11.6-30.9 24.5-43.1 38.5z"/>
    <path class="a" d="m4000 938.7v-12.6c-14 4.9-28.5 8.6-43.3 10.5 14.2 3.5 28.8 3.8 43.3 2.1z"/>
    <path class="a"
          d="m3989.3 830.9c-25 29.5-25 47.2-25 47.2 0 0 12.3-21.8 35.7-46.8v-11.2c-3.9 3.5-7.5 7.1-10.7 10.8z"/>
    <path class="a"
          d="m3990.1 0h-40.4q0.2 0.2 0.4 0.5 0.9 1 1.8 1.9c6.1 6.5 12.9 12.5 20.2 17.8q2.6 2 5.4 3.8c7 4.7 14.5 8.9 22.5 12.6v-30.3q-5.2-3-9.9-6.3z"/>
    <path fill-rule="evenodd" class="a"
          d="m3818.9 594.7c0.3 10.6-0.5 21.3-2.6 31.8-4 19.6-12 38.2-23.9 55.4-12 17.5-27.8 33-46.8 46.1-19.6 13.5-42.4 24.2-67.9 31.9-26.4 8-55.7 12.6-87 13.8-48.1 3.8-91.3-0.3-128.4-12.1-17.8-5.7-34.1-13.1-48.5-22.2-14.2-8.8-26.6-19.2-37-31-7.5-8.4-14-17.5-19.2-27.1-5.2-9.5-9.3-19.6-12.1-29.9-2.8-10.2-4.4-20.8-4.8-31.4-0.3-10.5 0.6-21.2 2.7-31.6 4-19.9 12.1-38.8 24.2-56.3 12.3-17.8 28.4-33.5 47.7-46.8 19.9-13.7 43.1-24.6 68.9-32.3q6.2-1.8 12.6-3.4 13.2-3.4 27.3-5.7c15.5-2.5 31.6-4 48.3-4.5 36.6-2.7 70.5-0.6 101 6.2q12.9 2.9 24.9 6.9 5 1.6 9.8 3.4c13.7 5.3 26.5 11.6 38 19 14 8.9 26.3 19.3 36.6 31q2.2 2.4 4.2 5c5.7 7 10.8 14.5 15 22.3q0.7 1.2 1.3 2.3c4.6 8.9 8.3 18.2 10.9 27.7 2.8 10.3 4.4 20.9 4.8 31.5zm-35-36.7c-3.4-8.5-7.9-16.7-13.6-24.5-11-15.3-26.2-29.1-45.6-40.1q-11-6.3-23.7-11.3c-33.3-13.2-75.7-19.6-127.2-15.8q-18.5 0.5-35.3 2.7-14.9 2-28.5 5.1c-82.9 18.7-129.9 67.9-140.2 119.6-16.1 80.2 56.2 166.3 219.3 153.1 121.5-4.5 188.2-63 200.7-125.6 4.3-21.3 2.3-43-5.9-63.2z"/>
    <path class="a"
          d="m3703.4 580.8c-35.3 1-70 10.1-102.6 23.1-3.6 1.4-7.9 2.9-11.6 4.1-67.1 23.1-142.7 14.7-205.4-17.6 56.3 53.9 143.8 68.5 216.3 42.3 16.7-6.2 33.9-13.7 50.8-19.1 41.6-13.3 85.9-23.7 129.7-18-23.4-12.7-51-15.3-77.2-14.8z"/>
    <path class="a"
          d="m3628.5 492.5c0 0-64.6-10.4-137.5 12.6-56 17.7-73.9 53.1-73.9 53.1 0 0 17.9-12.5 57-31.1 59.3-28.1 154.4-34.6 154.4-34.6z"/>
    <path class="a"
          d="m3696 695.8c-10.7 5.8-38.5 21.2-38.5 21.2 0 0 41.2-11 64.7-27.4 31.7-22.2 36.1-39.3 36.1-39.3 0 0-23.8 24.7-62.3 45.5z"/>
    <path fill-rule="evenodd" class="a"
          d="m3264.5 58.1c23.4-4.2 48.7-4.5 75-0.9 27.3 3.7 55.9 11.6 84.9 23.5 45.3 16.4 83 38 111.9 64.2 13.8 12.5 25.5 26.1 34.9 40.3 9.2 13.9 16.3 28.5 20.9 43.5 3.3 10.8 5.4 21.8 6.2 32.7 0.8 10.8 0.3 21.6-1.4 32.2-1.7 10.4-4.6 20.7-8.7 30.5-4 9.7-9.2 19.1-15.5 27.7-11.8 16.4-27.1 30.3-45.4 41.2-18.5 11-39.7 18.7-62.7 22.8-23.9 4.2-49.5 4.5-76.1 0.8q-6.4-0.8-12.9-2-13.5-2.5-27.2-6.2c-15.1-4.2-30.4-9.5-45.9-15.9-34.4-12.8-64.4-28.7-89.3-47.5q-10.5-8-19.9-16.6-3.8-3.6-7.4-7.2c-10.3-10.4-19.3-21.5-26.8-33-9-13.9-15.9-28.5-20.4-43.4q-1-3.1-1.8-6.3c-2.3-8.8-3.7-17.7-4.4-26.5q-0.1-1.3-0.1-2.7c-0.6-9.9-0.1-19.9 1.5-29.6 1.7-10.6 4.6-20.9 8.7-30.7 4-9.8 9.3-19.2 15.6-27.9 11.6-16.1 26.6-29.8 44.6-40.5 18.2-10.9 39-18.5 61.7-22.5zm-84.5 78.8c-12.7 17.6-19.9 38.2-20.8 60-0.4 9.2 0.3 18.5 2.2 27.9 3.7 18.5 11.9 37.4 24.9 55.5q7.4 10.2 16.9 20c24.8 25.8 60.8 49.3 109.2 67.2q17 7.1 33.2 12 14.4 4.4 28.1 7.3c83.2 17.3 146.3-8.1 177.2-50.7 47.9-66.4 17.8-174.7-136.2-230.3-112.4-46.3-197.3-20.6-234.7 31.1z"/>
    <path class="a"
          d="m3177.8 164c16 21.3 40.1 35.1 64.1 45.5 32.5 13.7 67.9 19.8 103 21.6 3.8 0.2 8.4 0.6 12.2 1 70.7 6.8 135.9 45.7 179.7 101.1-28.9-72.3-102.6-121.9-179.4-128.1-17.7-1.3-36.5-1.6-54.1-3.7-43.4-5.1-88-14-125.5-37.4z"/>
    <path class="a"
          d="m3273.5 320.9c0 0 54.4 36.2 130.3 45.5 58.4 7.1 89.4-17.7 89.4-17.7 0 0-21.6 4-64.8 4.7-65.7 1-154.9-32.5-154.9-32.5z"/>
    <path class="a"
          d="m3340.2 104.6c0 0-42.1-7.1-70.3-1.9-38.1 7-49.2 20.8-49.2 20.8 0 0 32-12.6 75.6-15.6 12.2-0.9 43.9-3.3 43.9-3.3z"/>
    <path class="a"
          d="m3587.7 137.7q6.4 12.7 13.5 24.4 3.5 5.6 7.1 11c15.1 22.3 32.4 41.1 51.5 56 18.4 14.5 38.3 25 58.9 31.4 20.3 6.4 40.8 8.5 60.9 6.3 10.6-1.1 21.1-3.5 31-6.9 10-3.5 19.6-8.2 28.6-14 8.9-5.7 17.3-12.6 24.8-20.5 7.6-7.9 14.4-16.8 20.2-26.4 8-13.5 14.2-28.5 18.4-44.6 4.3-16.5 6.5-34.3 6.6-52.9 0.2-31.8-5.8-65.8-17.8-101.5h-28.5c51.6 142.9-7.5 231.6-86.1 240-52.4 5.6-113.4-24.4-156.2-97.9q-7-12.1-13.3-25.7-7.1-15.4-13.2-32.8c-12-30.1-19-58.1-22-83.6h-27.1c3.1 29.6 11.1 60.8 23.8 93 5.6 15.8 11.8 30.7 18.9 44.7z"/>
    <path class="a"
          d="m3724.7 26.4c42.1 57.1 56.7 131.7 44.8 201.2 34.5-69.8 22.1-157.7-24.6-219q-3.3-4.3-6.7-8.6h-33.7q6.1 8.5 12.7 16.6c2.4 3 5.2 6.7 7.5 9.8z"/>
    <path class="a"
          d="m3728.8 205.6c0 0-17.4-13.4-46.7-45.1-44.7-48.1-79.4-136.9-79.4-136.9 0 0 9.4 64.7 53.2 127.3 33.7 48.2 72.9 54.7 72.9 54.7z"/>
    <path class="a"
          d="m3704.5 1000q6.1 8.5 12.7 16.6c2.4 3 5.2 6.7 7.5 9.8 42.1 57.1 56.7 131.7 44.8 201.2 34.5-69.8 22.1-157.7-24.6-219q-3.3-4.3-6.7-8.6c-9-11.2-18.5-22.6-26.7-34.1-25.1-35.7-48.3-74.9-56-118.4-5.2 26.1 0.7 53.3 9 78.2 9.2 26.6 23.3 51.5 40 74.3z"/>
    <path class="a"
          d="m3808.2 928.6c0 0-22.8-36-45.5-53.5-30.7-23.6-48.4-22.7-48.4-22.7 0 0 30.8 15.3 62.2 45.8 8.7 8.5 31.7 30.4 31.7 30.4z"/>
    <path class="a"
          d="m2013.4 1322.1c61.9 22 133.7 84.6 133.7 84.6 0 0-38.3-52.9-106.1-88.2-15.1-7.8-28.9-12.3-41-14.8-29.8-6.2-48.8 0.1-48.8 0.1 0 0 16.8 3 48.8 13.7q6.3 2.1 13.4 4.6z"/>
    <path class="a"
          d="m2051.2 1598.3c-11.7-3.5-42.2-12.3-42.2-12.3 0 0 36.9 21.4 65.1 26.4 38.2 6.8 53.4-2.2 53.4-2.2 0 0-34.4 0.6-76.3-11.9z"/>
    <path fill-rule="evenodd" class="a"
          d="m2921.7 1579c-36.7-31.3-64.4-64.7-82.3-99.4-8.5-16.5-14.8-33.3-18.6-49.9-3.8-16.3-5.3-32.5-4.3-48.1 0.6-11.3 2.5-22.3 5.6-32.8 3-10.4 7.2-20.4 12.5-29.7 5.3-9.2 11.6-17.8 18.9-25.5 7.2-7.7 15.3-14.6 24.2-20.6 16.9-11.2 36-18.8 56.9-22.6 20.9-3.8 42.9-3.7 65.4 0.3q0.7 0.1 1.4 0.3c23.8 4.4 47.9 13.1 71.6 25.8q5.7 3.1 11.3 6.5 11.8 7 23.4 15.3c12.7 9.2 25.1 19.5 37.3 30.9 27.8 24 50.3 49.5 67.1 75.8q7 11.2 12.8 22.5 2.3 4.7 4.4 9.4c6 13.3 10.6 26.8 13.5 40.2 3.6 16.2 5 32.3 4 47.8q-0.2 3.3-0.5 6.5c-1 9.1-2.7 17.9-5.2 26.4q-0.4 1.3-0.8 2.6c-3 9.5-6.9 18.7-11.8 27.3-5.3 9.2-11.6 17.9-18.9 25.6-7.2 7.8-15.4 14.7-24.3 20.7-16.6 11-35.5 18.5-56 22.3-20.9 3.9-43 3.7-65.7-0.5-21.1-3.9-42.5-11.2-63.6-21.8q-3.5-1.7-7-3.6c-24.3-13-48.3-30.4-71.3-51.7zm17.9-20.2c20.3 18.9 40.6 33.7 60.4 45 67.2 38.2 129.3 35.4 170.3 8.1 18.1-12.1 32.1-28.9 40.5-49 3.6-8.4 6.2-17.4 7.7-26.9 3.1-18.6 2-39.1-3.9-60.7q-3.3-12.1-8.8-24.6c-14.2-32.9-39.7-67.5-78.8-101.2q-13.4-12.6-26.9-22.9-11.9-9.2-23.7-16.6c-26.3-16.6-52.1-26.9-76.4-31.9-42.1-8.6-79.6-1.1-107.3 17.4-68.1 45.3-77.9 157.3 46.9 263.3z"/>
    <path class="a"
          d="m3000 1470c8.9 6 18.3 11.3 28 15.9 16.2 7.4 33.6 14.3 49.4 22.4 38.8 19.9 77.5 43.9 104.5 79-7.6-25.6-25.3-46.9-44.1-65.2-25.7-24.1-56.7-42.2-88.9-56.2-3.6-1.5-7.7-3.5-11.1-5.2-13.4-6.5-26-14.2-37.8-23-44.8-33.2-78.1-81.5-95.1-134.6 1.5 67 39.9 129.8 95.1 166.9z"/>
    <path class="a"
          d="m2376 1801.3c-3.1-10.1-7.3-19.9-12.6-29.1-5.3-9.3-11.8-18-19.3-25.8-7.5-8-16.1-15.2-25.4-21.4-13.1-8.7-27.8-15.6-43.7-20.6-16.3-5.1-34-8.1-52.5-9.1-39-2-81.8 5-127.3 20.9-30 9.1-57.2 21-80.7 35.5q-7.5 4.5-14.5 9.5c-16.5 11.6-30.9 24.5-43.1 38.5-15 17.5-26.3 36.5-33.5 56.5-7.2 19.7-10.2 39.7-9 59.6 0.6 10.7 2.5 21.3 5.5 31.5 3.1 10.1 7.3 20 12.7 29.2 4.8 8.4 10.5 16.2 17.1 23.5h40.4q-4-2.8-7.7-5.8c-7.4-6.2-13.9-13-19.3-20.3-13.1-17.5-20.6-38-21.8-59.6-2.4-39.9 16.1-83.5 58.7-119.2 25.6-21.5 59.9-40.1 103.5-53.3 154.5-54.2 246.3 10.7 251.1 92.4 3 52.6-29.9 112.1-105.3 151.3q-12.4 6.5-26.3 12.1-3 1.2-6.1 2.4h61.6q0.6-0.3 1.1-0.7c23-14 42.7-30.4 58.5-48.7 15.3-17.8 26.8-37.1 34.2-57.4 7.2-20 10.3-40.4 9.1-60.6-0.6-10.6-2.4-21.2-5.4-31.3z"/>
    <path class="a"
          d="m2341.8 1840.9c-68.1-37.8-156.5-29.7-219.9 14.1-14.6 10.2-29.3 21.8-44.3 31.3-24.4 15.5-50.2 30.1-77.6 39.8-14 4.9-28.5 8.6-43.3 10.5 14.2 3.5 28.8 3.8 43.3 2.1 11.9-1.4 23.8-4.1 35.2-7.3 33.8-10 65-27.6 93.3-48.4 3.2-2.2 6.9-4.8 10.2-6.9 59-39.4 134.2-50.5 203.1-35.2z"/>
    <path class="a"
          d="m2317.8 1880.5c0 0-14.2 16.7-47.2 44.5-50.2 42.3-140.5 72.8-140.5 72.8 0 0 65-6.4 129.7-47.1 49.7-31.4 58-70.2 58-70.2z"/>
    <path class="a"
          d="m2989.3 1830.9c-25 29.5-25 47.2-25 47.2 0 0 12.3-21.8 35.7-46.8 4-4.3 8.4-8.7 13.1-13.1 8.9-8.3 31.9-30.2 31.9-30.2 0 0-25.7 14.6-45 32.1-3.9 3.5-7.5 7.1-10.7 10.8z"/>
    <path fill-rule="evenodd" class="a"
          d="m2949.7 1000c-6.6-7.3-12.3-15.1-17.1-23.5-5.4-9.2-9.6-19-12.7-29.2-3-10.2-4.9-20.8-5.5-31.5-1.2-19.9 1.8-39.9 9-59.6 7.2-20 18.5-39 33.5-56.5 12.2-14 26.6-26.9 43.1-38.5q7-5 14.5-9.5c23.5-14.5 50.7-26.4 80.7-35.5 45.5-15.9 88.3-22.9 127.3-20.9 18.5 1 36.2 4 52.5 9.1 15.9 5 30.6 11.9 43.7 20.6 9.3 6.2 17.9 13.4 25.4 21.4 7.5 7.8 14 16.5 19.3 25.8 5.3 9.2 9.5 19 12.6 29.1 3 10.1 4.8 20.7 5.4 31.3 1.2 20.2-1.9 40.6-9.1 60.6-7.4 20.3-18.9 39.6-34.2 57.4-15.8 18.3-35.5 34.7-58.5 48.7q-0.5 0.4-1.1 0.7-5 3-10.2 5.8-12 6.7-25 12.4c-14.3 6.4-29.5 11.9-45.5 16.7-34.8 11.9-68.1 18.4-99.3 19.6q-13.2 0.5-25.9-0.3-5.2-0.3-10.3-0.9c-14.6-1.5-28.5-4.4-41.6-8.6q-10.7-3.5-20.7-8.1c-8-3.7-15.5-7.9-22.5-12.6q-2.8-1.8-5.4-3.8c-7.3-5.3-14.1-11.3-20.2-17.8q-0.9-0.9-1.8-1.9-0.2-0.3-0.4-0.5zm40.4 0q4.7 3.3 9.9 6.3c10.9 6.3 23.2 11.4 36.8 15q12.1 3.3 25.7 5c35.6 4.2 78.3-0.3 127.1-17.1q14.3-4.2 27.3-9.2 3.1-1.2 6.1-2.4 13.9-5.6 26.3-12.1c75.4-39.2 108.3-98.7 105.3-151.3-4.8-81.7-96.6-146.6-251.1-92.4-43.6 13.2-77.9 31.8-103.5 53.3-42.6 35.7-61.1 79.3-58.7 119.2 1.2 21.6 8.7 42.1 21.8 59.6 5.4 7.3 11.9 14.1 19.3 20.3q3.7 3 7.7 5.8z"/>
    <path fill-rule="evenodd" class="a"
          d="m2462.3 1761.6c-17.8-5.7-34.1-13.1-48.5-22.2-14.2-8.8-26.6-19.2-37-31-7.5-8.4-14-17.5-19.2-27.1-5.2-9.5-9.3-19.6-12.1-29.9-2.8-10.2-4.4-20.8-4.8-31.4-0.3-10.5 0.6-21.2 2.7-31.6 4-19.9 12.1-38.8 24.2-56.3 12.3-17.8 28.4-33.5 47.7-46.8 19.9-13.7 43.1-24.6 68.9-32.3q6.2-1.8 12.6-3.4 13.2-3.4 27.3-5.7c15.5-2.5 31.6-4 48.3-4.5 36.6-2.7 70.5-0.6 101 6.2q12.9 2.9 24.9 6.9 5 1.6 9.8 3.4c13.7 5.3 26.5 11.6 38 19 14 8.9 26.3 19.3 36.6 31q2.2 2.4 4.2 5c5.7 7 10.8 14.5 15 22.3q0.7 1.2 1.3 2.3c4.6 8.9 8.3 18.2 10.9 27.7 2.8 10.3 4.4 20.9 4.8 31.5 0.3 10.6-0.5 21.3-2.6 31.8-4 19.6-12 38.2-23.9 55.4-12 17.5-27.8 33-46.8 46.1-19.6 13.5-42.4 24.2-67.9 31.9-26.4 8-55.7 12.6-87 13.8-48.1 3.8-91.3-0.3-128.4-12.1zm126.8-14.8c121.5-4.5 188.2-63 200.7-125.6 4.3-21.3 2.3-43-5.9-63.2-3.4-8.5-7.9-16.7-13.6-24.5-11-15.3-26.2-29.1-45.6-40.1q-11-6.3-23.7-11.3c-33.3-13.2-75.7-19.6-127.2-15.8q-18.5 0.5-35.3 2.7-14.9 2-28.5 5.1c-82.9 18.7-129.9 67.9-140.2 119.6-16.1 80.2 56.2 166.3 219.3 153.1z"/>
    <path class="a"
          d="m2650.9 1613.6c41.6-13.3 85.9-23.7 129.7-18-23.4-12.7-51-15.3-77.2-14.8-35.3 1-70 10.1-102.6 23.1-3.6 1.4-7.9 2.9-11.6 4.1-67.1 23.1-142.7 14.7-205.4-17.6 56.3 53.9 143.8 68.5 216.3 42.3 16.7-6.2 33.9-13.7 50.8-19.1z"/>
    <path class="a"
          d="m2628.5 1492.5c0 0-64.6-10.4-137.5 12.6-56 17.7-73.9 53.1-73.9 53.1 0 0 17.9-12.5 57-31.1 59.3-28.1 154.4-34.6 154.4-34.6z"/>
    <path class="a"
          d="m2696 1695.8c-10.7 5.8-38.5 21.2-38.5 21.2 0 0 41.2-11 64.7-27.4 31.7-22.2 36.1-39.3 36.1-39.3 0 0-23.8 24.7-62.3 45.5z"/>
    <path fill-rule="evenodd" class="a"
          d="m2132.4 1209.3c-0.6-9.9-0.1-19.9 1.5-29.6 1.7-10.6 4.6-20.9 8.7-30.7 4-9.8 9.3-19.2 15.6-27.9 11.6-16.1 26.6-29.8 44.6-40.5 18.2-10.9 39-18.5 61.7-22.5 23.4-4.2 48.7-4.5 75-0.9 27.3 3.7 55.9 11.6 84.9 23.5 45.3 16.4 83 38 111.9 64.2 13.8 12.5 25.5 26.1 34.9 40.3 9.2 13.9 16.3 28.5 20.9 43.5 3.3 10.8 5.4 21.8 6.2 32.7 0.8 10.8 0.3 21.6-1.4 32.2-1.7 10.4-4.6 20.7-8.7 30.5-4 9.7-9.2 19.1-15.5 27.7-11.8 16.4-27.1 30.3-45.4 41.2-18.5 11-39.7 18.7-62.7 22.8-23.9 4.2-49.5 4.5-76.1 0.8q-6.4-0.8-12.9-2-13.5-2.5-27.2-6.2c-15.1-4.2-30.4-9.5-45.9-15.9-34.4-12.8-64.4-28.7-89.3-47.5q-10.5-8-19.9-16.6-3.8-3.6-7.4-7.2c-10.3-10.4-19.3-21.5-26.8-33-9-13.9-15.9-28.5-20.4-43.4q-1-3.1-1.8-6.3c-2.3-8.8-3.7-17.7-4.4-26.5q-0.1-1.3-0.1-2.7zm29 15.5c3.7 18.5 11.9 37.4 24.9 55.5q7.4 10.2 16.9 20c24.8 25.8 60.8 49.3 109.2 67.2q17 7.1 33.2 12 14.4 4.4 28.1 7.3c83.2 17.3 146.3-8.1 177.2-50.7 47.9-66.4 17.8-174.7-136.2-230.3-112.4-46.3-197.3-20.6-234.7 31.1-12.7 17.6-19.9 38.2-20.8 60-0.4 9.2 0.3 18.5 2.2 27.9z"/>
    <path class="a"
          d="m2241.9 1209.5c32.5 13.7 67.9 19.8 103 21.6 3.8 0.2 8.4 0.6 12.2 1 70.7 6.8 135.9 45.7 179.7 101.1-28.9-72.3-102.6-121.9-179.4-128.1-17.7-1.3-36.5-1.6-54.1-3.7-43.4-5.1-88-14-125.5-37.4 16 21.3 40 35.1 64.1 45.5z"/>
    <path class="a"
          d="m2273.5 1320.9c0 0 54.4 36.2 130.3 45.5 58.4 7.1 89.4-17.7 89.4-17.7 0 0-21.6 4-64.8 4.7-65.7 1-154.9-32.5-154.9-32.5z"/>
    <path class="a"
          d="m2340.2 1104.6c0 0-42.1-7.1-70.3-1.9-38.1 7-49.2 20.8-49.2 20.8 0 0 32-12.6 75.6-15.6 12.2-0.9 43.9-3.3 43.9-3.3z"/>
    <path fill-rule="evenodd" class="a"
          d="m2601.2 1162.1q-7.1-11.7-13.5-24.4c-7.1-14-13.3-28.9-18.9-44.7-12.7-32.2-20.7-63.4-23.8-93q-0.3-2.6-0.5-5.2-1.1-13.2-0.9-25.9 0.1-5.2 0.4-10.3c0.8-14.7 3.1-28.7 6.6-42 4.3-16 10.6-30.8 18.6-44.2q1.7-2.8 3.5-5.5c5-7.6 10.7-14.6 16.8-21q1-1 1.9-1.9c7.1-7.1 14.8-13.4 23.1-18.7 9-5.8 18.6-10.5 28.6-14 10-3.5 20.5-5.9 31.2-7 19.8-2.2 40-0.1 60 6.1 20.3 6.3 39.8 16.6 57.9 30.8 18.8 14.7 35.9 33.3 50.8 55.2 15.6 22.9 28.8 49.4 39.3 78.9q5 12.5 9.1 24.7c12 35.7 18 69.7 17.8 101.5-0.1 18.6-2.3 36.4-6.6 52.9-4.2 16.1-10.4 31.1-18.4 44.6-5.8 9.6-12.6 18.5-20.2 26.4-7.5 7.9-15.9 14.8-24.8 20.5-9 5.8-18.6 10.5-28.6 14-9.9 3.4-20.4 5.8-31 6.9-20.1 2.2-40.6 0.1-60.9-6.3-20.6-6.4-40.5-16.9-58.9-31.4-19.1-14.9-36.4-33.7-51.5-56q-3.6-5.4-7.1-11zm-7.1-78.5q6.1 17.4 13.2 32.8 6.3 13.6 13.3 25.7c42.8 73.5 103.8 103.5 156.2 97.9 78.6-8.4 137.7-97.1 86.1-240q-2.7-7.5-5.8-15.1c-40.7-114.6-116.5-160.6-180-153.9-21.6 2.3-41.7 10.8-58.5 24.7-7.1 5.8-13.6 12.6-19.3 20.3-11.3 15.1-19.9 33.7-24.6 55.6q-2.7 12.3-3.7 25.9c-0.9 13.2-0.6 27.4 1.1 42.5 3 25.5 10 53.5 22 83.6z"/>
    <path class="a"
          d="m2728.8 1205.6c0 0-17.4-13.4-46.7-45.1-44.7-48.1-79.4-136.9-79.4-136.9 0 0 9.4 64.7 53.2 127.3 33.7 48.2 72.9 54.7 72.9 54.7z"/>
    <path class="a"
          d="m2843 1896.4c-14.9-21.9-32-40.5-50.8-55.2-18.1-14.2-37.6-24.5-57.9-30.8-20-6.2-40.2-8.3-60-6.1-10.7 1.1-21.2 3.5-31.2 7-10 3.5-19.6 8.2-28.6 14-8.3 5.3-16 11.6-23.1 18.7q-0.9 0.9-1.9 1.9c-6.1 6.4-11.8 13.4-16.8 21q-1.8 2.7-3.5 5.5c-8 13.4-14.3 28.2-18.6 44.2-3.5 13.3-5.8 27.3-6.6 42q-0.3 5.1-0.4 10.3-0.2 12.7 0.9 25.9 0.2 2.6 0.5 5.2h27.1c-1.7-15.1-2-29.3-1.1-42.5q1-13.6 3.7-25.9c4.7-21.9 13.3-40.5 24.6-55.6 5.7-7.7 12.2-14.5 19.3-20.3 16.8-13.9 36.9-22.4 58.5-24.7 63.5-6.7 139.3 39.3 180 153.9q3.1 7.6 5.8 15.1h28.5q-4.1-12.2-9.1-24.7c-10.5-29.5-23.7-56-39.3-78.9z"/>
    <path class="a"
          d="m2655.5 1847.5c-5.2 26.1 0.7 53.3 9 78.2 9.2 26.7 23.3 51.5 40 74.3h33.7c-9-11.2-18.5-22.6-26.7-34.1-25.1-35.7-48.3-74.9-56-118.4z"/>
    <path class="a"
          d="m2762.7 1875.1c-30.7-23.6-48.4-22.7-48.4-22.7 0 0 30.8 15.3 62.2 45.8 8.7 8.5 31.7 30.4 31.7 30.4 0 0-22.8-36-45.5-53.5z"/>
    <path class="a"
          d="m3013.4 1322.1c61.9 22 133.7 84.6 133.7 84.6 0 0-38.3-52.9-106.1-88.2-15.1-7.8-28.9-12.3-41-14.8-29.8-6.2-48.8 0.1-48.8 0.1 0 0 16.8 3 48.8 13.7q6.3 2.1 13.4 4.6z"/>
    <path class="a"
          d="m3051.2 1598.3c-11.7-3.5-42.2-12.3-42.2-12.3 0 0 36.9 21.4 65.1 26.4 38.2 6.8 53.4-2.2 53.4-2.2 0 0-34.4 0.6-76.3-11.9z"/>
    <path class="a"
          d="m3934.6 1250.4c-20.9 3.8-40 11.4-56.9 22.6-8.9 6-17 12.9-24.2 20.6-7.3 7.7-13.6 16.3-18.9 25.5-5.3 9.3-9.5 19.3-12.5 29.7-3.1 10.5-5 21.5-5.6 32.8-1 15.6 0.5 31.8 4.3 48.1 3.8 16.6 10.1 33.4 18.6 49.9 17.9 34.7 45.6 68.1 82.3 99.4 23 21.3 47 38.7 71.3 51.7q3.5 1.9 7 3.6v-30.5c-19.8-11.3-40.1-26.1-60.4-45-124.8-106-115-218-46.9-263.3 27.7-18.5 65.2-26 107.3-17.4v-27.4c-22.5-4-44.5-4.1-65.4-0.3z"/>
    <path class="a" d="m3904.9 1303.1c1.5 67 39.9 129.8 95.1 166.9v-32.3c-44.8-33.2-78.1-81.5-95.1-134.6z"/>
    <path class="a" d="m3951.2 1303.8c0 0 16.8 3 48.8 13.7v-13.8c-29.8-6.2-48.8 0.1-48.8 0.1z"/>
    <path class="a"
          d="m3376 1801.3c-3.1-10.1-7.3-19.9-12.6-29.1-5.3-9.3-11.8-18-19.3-25.8-7.5-8-16.1-15.2-25.4-21.4-13.1-8.7-27.8-15.6-43.7-20.6-16.3-5.1-34-8.1-52.5-9.1-39-2-81.8 5-127.3 20.9-30 9.1-57.2 21-80.7 35.5q-7.5 4.5-14.5 9.5c-16.5 11.6-30.9 24.5-43.1 38.5-15 17.5-26.3 36.5-33.5 56.5-7.2 19.7-10.2 39.7-9 59.6 0.6 10.7 2.5 21.3 5.5 31.5 3.1 10.1 7.3 20 12.7 29.2 4.8 8.4 10.5 16.2 17.1 23.5h40.4q-4-2.8-7.7-5.8c-7.4-6.2-13.9-13-19.3-20.3-13.1-17.5-20.6-38-21.8-59.6-2.4-39.9 16.1-83.5 58.7-119.2 25.6-21.5 59.9-40.1 103.5-53.3 154.5-54.2 246.3 10.7 251.1 92.4 3 52.6-29.9 112.1-105.3 151.3q-12.4 6.5-26.3 12.1-3 1.2-6.1 2.4h61.6q0.6-0.3 1.1-0.7c23-14 42.7-30.4 58.5-48.7 15.3-17.8 26.8-37.1 34.2-57.4 7.2-20 10.3-40.4 9.1-60.6-0.6-10.6-2.4-21.2-5.4-31.3z"/>
    <path class="a"
          d="m3341.8 1840.9c-68.1-37.8-156.5-29.7-219.9 14.1-14.6 10.2-29.3 21.8-44.3 31.3-24.4 15.5-50.2 30.1-77.6 39.8-14 4.9-28.5 8.6-43.3 10.5 14.2 3.5 28.8 3.8 43.3 2.1 11.9-1.4 23.8-4.1 35.2-7.3 33.8-10 65-27.6 93.3-48.4 3.2-2.2 6.9-4.8 10.2-6.9 59-39.4 134.2-50.5 203.1-35.2z"/>
    <path class="a"
          d="m3317.8 1880.5c0 0-14.2 16.7-47.2 44.5-50.2 42.3-140.5 72.8-140.5 72.8 0 0 65-6.4 129.7-47.1 49.7-31.4 58-70.2 58-70.2z"/>
    <path class="a"
          d="m3956.9 1799.7c-15 17.5-26.3 36.5-33.5 56.5-7.2 19.7-10.2 39.7-9 59.6 0.6 10.7 2.5 21.3 5.5 31.5 3.1 10.1 7.3 20 12.7 29.2 4.8 8.4 10.5 16.2 17.1 23.5h40.4q-4-2.8-7.7-5.8c-7.4-6.2-13.9-13-19.3-20.3-13.1-17.5-20.6-38-21.8-59.6-2.4-39.9 16.1-83.5 58.7-119.2v-33.9c-16.5 11.6-30.9 24.5-43.1 38.5z"/>
    <path class="a" d="m4000 1938.7v-12.6c-14 4.9-28.5 8.6-43.3 10.5 14.2 3.5 28.8 3.8 43.3 2.1z"/>
    <path class="a"
          d="m3989.3 1830.9c-25 29.5-25 47.2-25 47.2 0 0 12.3-21.8 35.7-46.8v-11.2c-3.9 3.5-7.5 7.1-10.7 10.8z"/>
    <path fill-rule="evenodd" class="a"
          d="m3462.3 1761.6c-17.8-5.7-34.1-13.1-48.5-22.2-14.2-8.8-26.6-19.2-37-31-7.5-8.4-14-17.5-19.2-27.1-5.2-9.5-9.3-19.6-12.1-29.9-2.8-10.2-4.4-20.8-4.8-31.4-0.3-10.5 0.6-21.2 2.7-31.6 4-19.9 12.1-38.8 24.2-56.3 12.3-17.8 28.4-33.5 47.7-46.8 19.9-13.7 43.1-24.6 68.9-32.3q6.2-1.8 12.6-3.4 13.2-3.4 27.3-5.7c15.5-2.5 31.6-4 48.3-4.5 36.6-2.7 70.5-0.6 101 6.2q12.9 2.9 24.9 6.9 5 1.6 9.8 3.4c13.7 5.3 26.5 11.6 38 19 14 8.9 26.3 19.3 36.6 31q2.2 2.4 4.2 5c5.7 7 10.8 14.5 15 22.3q0.7 1.2 1.3 2.3c4.6 8.9 8.3 18.2 10.9 27.7 2.8 10.3 4.4 20.9 4.8 31.5 0.3 10.6-0.5 21.3-2.6 31.8-4 19.6-12 38.2-23.9 55.4-12 17.5-27.8 33-46.8 46.1-19.6 13.5-42.4 24.2-67.9 31.9-26.4 8-55.7 12.6-87 13.8-48.1 3.8-91.3-0.3-128.4-12.1zm126.8-14.8c121.5-4.5 188.2-63 200.7-125.6 4.3-21.3 2.3-43-5.9-63.2-3.4-8.5-7.9-16.7-13.6-24.5-11-15.3-26.2-29.1-45.6-40.1q-11-6.3-23.7-11.3c-33.3-13.2-75.7-19.6-127.2-15.8q-18.5 0.5-35.3 2.7-14.9 2-28.5 5.1c-82.9 18.7-129.9 67.9-140.2 119.6-16.1 80.2 56.2 166.3 219.3 153.1z"/>
    <path class="a"
          d="m3650.9 1613.6c41.6-13.3 85.9-23.7 129.7-18-23.4-12.7-51-15.3-77.2-14.8-35.3 1-70 10.1-102.6 23.1-3.6 1.4-7.9 2.9-11.6 4.1-67.1 23.1-142.7 14.7-205.4-17.6 56.3 53.9 143.8 68.5 216.3 42.3 16.7-6.2 33.9-13.7 50.8-19.1z"/>
    <path class="a"
          d="m3628.5 1492.5c0 0-64.6-10.4-137.5 12.6-56 17.7-73.9 53.1-73.9 53.1 0 0 17.9-12.5 57-31.1 59.3-28.1 154.4-34.6 154.4-34.6z"/>
    <path class="a"
          d="m3696 1695.8c-10.7 5.8-38.5 21.2-38.5 21.2 0 0 41.2-11 64.7-27.4 31.7-22.2 36.1-39.3 36.1-39.3 0 0-23.8 24.7-62.3 45.5z"/>
    <path fill-rule="evenodd" class="a"
          d="m3132.4 1209.3c-0.6-9.9-0.1-19.9 1.5-29.6 1.7-10.6 4.6-20.9 8.7-30.7 4-9.8 9.3-19.2 15.6-27.9 11.6-16.1 26.6-29.8 44.6-40.5 18.2-10.9 39-18.5 61.7-22.5 23.4-4.2 48.7-4.5 75-0.9 27.3 3.7 55.9 11.6 84.9 23.5 45.3 16.4 83 38 111.9 64.2 13.8 12.5 25.5 26.1 34.9 40.3 9.2 13.9 16.3 28.5 20.9 43.5 3.3 10.8 5.4 21.8 6.2 32.7 0.8 10.8 0.3 21.6-1.4 32.2-1.7 10.4-4.6 20.7-8.7 30.5-4 9.7-9.2 19.1-15.5 27.7-11.8 16.4-27.1 30.3-45.4 41.2-18.5 11-39.7 18.7-62.7 22.8-23.9 4.2-49.5 4.5-76.1 0.8q-6.4-0.8-12.9-2-13.5-2.5-27.2-6.2c-15.1-4.2-30.4-9.5-45.9-15.9-34.4-12.8-64.4-28.7-89.3-47.5q-10.5-8-19.9-16.6-3.8-3.6-7.4-7.2c-10.3-10.4-19.3-21.5-26.8-33-9-13.9-15.9-28.5-20.4-43.4q-1-3.1-1.8-6.3c-2.3-8.8-3.7-17.7-4.4-26.5q-0.1-1.3-0.1-2.7zm29 15.5c3.7 18.5 11.9 37.4 24.9 55.5q7.4 10.2 16.9 20c24.8 25.8 60.8 49.3 109.2 67.2q17 7.1 33.2 12 14.4 4.4 28.1 7.3c83.2 17.3 146.3-8.1 177.2-50.7 47.9-66.4 17.8-174.7-136.2-230.3-112.4-46.3-197.3-20.6-234.7 31.1-12.7 17.6-19.9 38.2-20.8 60-0.4 9.2 0.3 18.5 2.2 27.9z"/>
    <path class="a"
          d="m3241.9 1209.5c32.5 13.7 67.9 19.8 103 21.6 3.8 0.2 8.4 0.6 12.2 1 70.7 6.8 135.9 45.7 179.7 101.1-28.9-72.3-102.6-121.9-179.4-128.1-17.7-1.3-36.5-1.6-54.1-3.7-43.4-5.1-88-14-125.5-37.4 16 21.3 40.1 35.1 64.1 45.5z"/>
    <path class="a"
          d="m3273.5 1320.9c0 0 54.4 36.2 130.3 45.5 58.4 7.1 89.4-17.7 89.4-17.7 0 0-21.6 4-64.8 4.7-65.7 1-154.9-32.5-154.9-32.5z"/>
    <path class="a"
          d="m3340.2 1104.6c0 0-42.1-7.1-70.3-1.9-38.1 7-49.2 20.8-49.2 20.8 0 0 32-12.6 75.6-15.6 12.2-0.9 43.9-3.3 43.9-3.3z"/>
    <path fill-rule="evenodd" class="a"
          d="m3601.2 1162.1q-7.1-11.7-13.5-24.4c-7.1-14-13.3-28.9-18.9-44.7-12.7-32.2-20.7-63.4-23.8-93q-0.3-2.6-0.5-5.2-1.1-13.2-0.9-25.9 0.1-5.2 0.4-10.3c0.8-14.7 3.1-28.7 6.6-42 4.3-16 10.6-30.8 18.6-44.2q1.7-2.8 3.5-5.5c5-7.6 10.7-14.6 16.8-21q1-1 1.9-1.9c7.1-7.1 14.8-13.4 23.1-18.7 9-5.8 18.6-10.5 28.6-14 10-3.5 20.5-5.9 31.2-7 19.8-2.2 40-0.1 60 6.1 20.3 6.3 39.8 16.6 57.9 30.8 18.8 14.7 35.9 33.3 50.8 55.2 15.6 22.9 28.8 49.4 39.3 78.9q5 12.5 9.1 24.7c12 35.7 18 69.7 17.8 101.5-0.1 18.6-2.3 36.4-6.6 52.9-4.2 16.1-10.4 31.1-18.4 44.6-5.8 9.6-12.6 18.5-20.2 26.4-7.5 7.9-15.9 14.8-24.8 20.5-9 5.8-18.6 10.5-28.6 14-9.9 3.4-20.4 5.8-31 6.9-20.1 2.2-40.6 0.1-60.9-6.3-20.6-6.4-40.5-16.9-58.9-31.4-19.1-14.9-36.4-33.7-51.5-56q-3.6-5.4-7.1-11zm-7.1-78.5q6.1 17.4 13.2 32.8 6.3 13.6 13.3 25.7c42.8 73.5 103.8 103.5 156.2 97.9 78.6-8.4 137.7-97.1 86.1-240q-2.7-7.5-5.8-15.1c-40.7-114.6-116.5-160.6-180-153.9-21.6 2.3-41.7 10.8-58.5 24.7-7.1 5.8-13.6 12.6-19.3 20.3-11.3 15.1-19.9 33.7-24.6 55.6q-2.7 12.3-3.7 25.9c-0.9 13.2-0.6 27.4 1.1 42.5 3 25.5 10 53.5 22 83.6z"/>
    <path class="a"
          d="m3728.8 1205.6c0 0-17.4-13.4-46.7-45.1-44.7-48.1-79.4-136.9-79.4-136.9 0 0 9.4 64.7 53.2 127.3 33.7 48.2 72.9 54.7 72.9 54.7z"/>
    <path class="a"
          d="m3843 1896.4c-14.9-21.9-32-40.5-50.8-55.2-18.1-14.2-37.6-24.5-57.9-30.8-20-6.2-40.2-8.3-60-6.1-10.7 1.1-21.2 3.5-31.2 7-10 3.5-19.6 8.2-28.6 14-8.3 5.3-16 11.6-23.1 18.7q-0.9 0.9-1.9 1.9c-6.1 6.4-11.8 13.4-16.8 21q-1.8 2.7-3.5 5.5c-8 13.4-14.3 28.2-18.6 44.2-3.5 13.3-5.8 27.3-6.6 42q-0.3 5.1-0.4 10.3-0.2 12.7 0.9 25.9 0.2 2.6 0.5 5.2h27.1c-1.7-15.1-2-29.3-1.1-42.5q1-13.6 3.7-25.9c4.7-21.9 13.3-40.5 24.6-55.6 5.7-7.7 12.2-14.5 19.3-20.3 16.8-13.9 36.9-22.4 58.5-24.7 63.5-6.7 139.3 39.3 180 153.9q3.1 7.6 5.8 15.1h28.5q-4.1-12.2-9.1-24.7c-10.5-29.5-23.7-56-39.3-78.9z"/>
    <path class="a"
          d="m3655.5 1847.5c-5.2 26.1 0.7 53.3 9 78.2 9.2 26.7 23.3 51.5 40 74.3h33.7c-9-11.2-18.5-22.6-26.7-34.1-25.1-35.7-48.3-74.9-56-118.4z"/>
    <path class="a"
          d="m3762.7 1875.1c-30.7-23.6-48.4-22.7-48.4-22.7 0 0 30.8 15.3 62.2 45.8 8.7 8.5 31.7 30.4 31.7 30.4 0 0-22.8-36-45.5-53.5z"/>
</svg>
