<svg xmlns="http://www.w3.org/2000/svg" xmlns:xlink="http://www.w3.org/1999/xlink" width="500" zoomAndPan="magnify" viewBox="0 0 375 225" height="300" preserveAspectRatio="xMidYMid meet" version="1.0"><defs><g/><clipPath id="139c8adb7e"><path d="M 258.765625 47.632812 L 323.394531 47.632812 L 323.394531 104.179688 L 258.765625 104.179688 Z M 258.765625 47.632812 " clip-rule="nonzero"/></clipPath><clipPath id="3b3e3144c2"><path d="M 261.328125 56.660156 C 256.089844 65.292969 259.78125 73.695312 264.421875 78.15625 L 291.546875 104.179688 L 318.097656 78.246094 C 322.414062 73.449219 324.066406 68.363281 323.148438 62.695312 C 321.878906 54.855469 315.421875 48.777344 307.441406 47.90625 C 302.546875 47.378906 297.820312 48.765625 294.128906 51.832031 C 293.136719 52.65625 292.25 53.578125 291.476562 54.582031 C 290.558594 53.441406 289.480469 52.394531 288.265625 51.46875 C 284.019531 48.246094 278.621094 46.964844 273.433594 47.960938 C 268.519531 48.910156 264.109375 52.078125 261.328125 56.660156 Z M 261.328125 56.660156 " clip-rule="nonzero"/></clipPath><linearGradient x1="9.145136" gradientTransform="matrix(0.22089, 0, 0, 0.22089, 258.7666, 47.63088)" y1="-9.140863" x2="283.428998" gradientUnits="userSpaceOnUse" y2="265.143018" id="de5739ad9d"><stop stop-opacity="1" stop-color="rgb(71.398926%, 12.5%, 14.500427%)" offset="0"/><stop stop-opacity="1" stop-color="rgb(71.510315%, 12.644958%, 14.759827%)" offset="0.00390625"/><stop stop-opacity="1" stop-color="rgb(71.62323%, 12.791443%, 15.020752%)" offset="0.0078125"/><stop stop-opacity="1" stop-color="rgb(71.734619%, 12.936401%, 15.281677%)" offset="0.0117188"/><stop stop-opacity="1" stop-color="rgb(71.846008%, 13.082886%, 15.542603%)" offset="0.015625"/><stop stop-opacity="1" stop-color="rgb(71.957397%, 13.227844%, 15.802002%)" offset="0.0195312"/><stop stop-opacity="1" stop-color="rgb(72.070312%, 13.374329%, 16.062927%)" offset="0.0234375"/><stop stop-opacity="1" stop-color="rgb(72.181702%, 13.519287%, 16.323853%)" offset="0.0273438"/><stop stop-opacity="1" stop-color="rgb(72.293091%, 13.665771%, 16.584778%)" offset="0.03125"/><stop stop-opacity="1" stop-color="rgb(72.40448%, 13.81073%, 16.844177%)" offset="0.0351562"/><stop stop-opacity="1" stop-color="rgb(72.517395%, 13.957214%, 17.105103%)" offset="0.0390625"/><stop stop-opacity="1" stop-color="rgb(72.628784%, 14.102173%, 17.366028%)" offset="0.0429688"/><stop stop-opacity="1" stop-color="rgb(72.740173%, 14.248657%, 17.626953%)" offset="0.046875"/><stop stop-opacity="1" stop-color="rgb(72.851562%, 14.393616%, 17.886353%)" offset="0.0507812"/><stop stop-opacity="1" stop-color="rgb(72.962952%, 14.5401%, 18.147278%)" offset="0.0546875"/><stop stop-opacity="1" stop-color="rgb(73.074341%, 14.685059%, 18.408203%)" offset="0.0585937"/><stop stop-opacity="1" stop-color="rgb(73.187256%, 14.830017%, 18.669128%)" offset="0.0625"/><stop stop-opacity="1" stop-color="rgb(73.298645%, 14.974976%, 18.928528%)" offset="0.0664062"/><stop stop-opacity="1" stop-color="rgb(73.410034%, 15.12146%, 19.189453%)" offset="0.0703125"/><stop stop-opacity="1" stop-color="rgb(73.521423%, 15.266418%, 19.450378%)" offset="0.0742187"/><stop stop-opacity="1" stop-color="rgb(73.634338%, 15.412903%, 19.711304%)" offset="0.078125"/><stop stop-opacity="1" stop-color="rgb(73.745728%, 15.557861%, 19.970703%)" offset="0.0820312"/><stop stop-opacity="1" stop-color="rgb(73.857117%, 15.704346%, 20.231628%)" offset="0.0859375"/><stop stop-opacity="1" stop-color="rgb(73.968506%, 15.849304%, 20.492554%)" offset="0.0898437"/><stop stop-opacity="1" stop-color="rgb(74.081421%, 15.995789%, 20.753479%)" offset="0.09375"/><stop stop-opacity="1" stop-color="rgb(74.19281%, 16.140747%, 21.012878%)" offset="0.0976562"/><stop stop-opacity="1" stop-color="rgb(74.304199%, 16.287231%, 21.273804%)" offset="0.101562"/><stop stop-opacity="1" stop-color="rgb(74.415588%, 16.43219%, 21.534729%)" offset="0.105469"/><stop stop-opacity="1" stop-color="rgb(74.526978%, 16.578674%, 21.795654%)" offset="0.109375"/><stop stop-opacity="1" stop-color="rgb(74.638367%, 16.723633%, 22.055054%)" offset="0.113281"/><stop stop-opacity="1" stop-color="rgb(74.751282%, 16.870117%, 22.315979%)" offset="0.117187"/><stop stop-opacity="1" stop-color="rgb(74.862671%, 17.015076%, 22.576904%)" offset="0.121094"/><stop stop-opacity="1" stop-color="rgb(74.97406%, 17.16156%, 22.83783%)" offset="0.125"/><stop stop-opacity="1" stop-color="rgb(75.085449%, 17.306519%, 23.097229%)" offset="0.128906"/><stop stop-opacity="1" stop-color="rgb(75.198364%, 17.453003%, 23.358154%)" offset="0.132812"/><stop stop-opacity="1" stop-color="rgb(75.309753%, 17.597961%, 23.61908%)" offset="0.136719"/><stop stop-opacity="1" stop-color="rgb(75.421143%, 17.744446%, 23.880005%)" offset="0.140625"/><stop stop-opacity="1" stop-color="rgb(75.532532%, 17.889404%, 24.139404%)" offset="0.144531"/><stop stop-opacity="1" stop-color="rgb(75.645447%, 18.035889%, 24.40033%)" offset="0.148437"/><stop stop-opacity="1" stop-color="rgb(75.756836%, 18.180847%, 24.661255%)" offset="0.152344"/><stop stop-opacity="1" stop-color="rgb(75.868225%, 18.327332%, 24.92218%)" offset="0.15625"/><stop stop-opacity="1" stop-color="rgb(75.979614%, 18.47229%, 25.18158%)" offset="0.160156"/><stop stop-opacity="1" stop-color="rgb(76.091003%, 18.618774%, 25.442505%)" offset="0.164062"/><stop stop-opacity="1" stop-color="rgb(76.202393%, 18.763733%, 25.70343%)" offset="0.167969"/><stop stop-opacity="1" stop-color="rgb(76.315308%, 18.910217%, 25.964355%)" offset="0.171875"/><stop stop-opacity="1" stop-color="rgb(76.426697%, 19.055176%, 26.223755%)" offset="0.175781"/><stop stop-opacity="1" stop-color="rgb(76.538086%, 19.20166%, 26.48468%)" offset="0.179687"/><stop stop-opacity="1" stop-color="rgb(76.649475%, 19.346619%, 26.745605%)" offset="0.183594"/><stop stop-opacity="1" stop-color="rgb(76.76239%, 19.493103%, 27.006531%)" offset="0.1875"/><stop stop-opacity="1" stop-color="rgb(76.873779%, 19.638062%, 27.26593%)" offset="0.191406"/><stop stop-opacity="1" stop-color="rgb(76.985168%, 19.784546%, 27.526855%)" offset="0.195312"/><stop stop-opacity="1" stop-color="rgb(77.096558%, 19.929504%, 27.787781%)" offset="0.199219"/><stop stop-opacity="1" stop-color="rgb(77.209473%, 20.075989%, 28.048706%)" offset="0.203125"/><stop stop-opacity="1" stop-color="rgb(77.320862%, 20.220947%, 28.308105%)" offset="0.207031"/><stop stop-opacity="1" stop-color="rgb(77.432251%, 20.367432%, 28.569031%)" offset="0.210938"/><stop stop-opacity="1" stop-color="rgb(77.54364%, 20.51239%, 28.829956%)" offset="0.214844"/><stop stop-opacity="1" stop-color="rgb(77.655029%, 20.658875%, 29.090881%)" offset="0.21875"/><stop stop-opacity="1" stop-color="rgb(77.766418%, 20.803833%, 29.350281%)" offset="0.222656"/><stop stop-opacity="1" stop-color="rgb(77.879333%, 20.950317%, 29.611206%)" offset="0.226562"/><stop stop-opacity="1" stop-color="rgb(77.990723%, 21.095276%, 29.872131%)" offset="0.230469"/><stop stop-opacity="1" stop-color="rgb(78.102112%, 21.24176%, 30.133057%)" offset="0.234375"/><stop stop-opacity="1" stop-color="rgb(78.213501%, 21.386719%, 30.392456%)" offset="0.238281"/><stop stop-opacity="1" stop-color="rgb(78.326416%, 21.533203%, 30.653381%)" offset="0.242188"/><stop stop-opacity="1" stop-color="rgb(78.437805%, 21.678162%, 30.914307%)" offset="0.246094"/><stop stop-opacity="1" stop-color="rgb(78.549194%, 21.824646%, 31.175232%)" offset="0.25"/><stop stop-opacity="1" stop-color="rgb(78.660583%, 21.969604%, 31.434631%)" offset="0.253906"/><stop stop-opacity="1" stop-color="rgb(78.773499%, 22.116089%, 31.695557%)" offset="0.257813"/><stop stop-opacity="1" stop-color="rgb(78.884888%, 22.261047%, 31.956482%)" offset="0.261719"/><stop stop-opacity="1" stop-color="rgb(78.996277%, 22.407532%, 32.217407%)" offset="0.265625"/><stop stop-opacity="1" stop-color="rgb(79.107666%, 22.55249%, 32.476807%)" offset="0.269531"/><stop stop-opacity="1" stop-color="rgb(79.219055%, 22.698975%, 32.737732%)" offset="0.273438"/><stop stop-opacity="1" stop-color="rgb(79.330444%, 22.843933%, 32.998657%)" offset="0.277344"/><stop stop-opacity="1" stop-color="rgb(79.443359%, 22.990417%, 33.259583%)" offset="0.28125"/><stop stop-opacity="1" stop-color="rgb(79.554749%, 23.135376%, 33.518982%)" offset="0.285156"/><stop stop-opacity="1" stop-color="rgb(79.666138%, 23.28186%, 33.779907%)" offset="0.289062"/><stop stop-opacity="1" stop-color="rgb(79.777527%, 23.426819%, 34.040833%)" offset="0.292969"/><stop stop-opacity="1" stop-color="rgb(79.890442%, 23.573303%, 34.301758%)" offset="0.296875"/><stop stop-opacity="1" stop-color="rgb(80.001831%, 23.718262%, 34.561157%)" offset="0.300781"/><stop stop-opacity="1" stop-color="rgb(80.11322%, 23.864746%, 34.822083%)" offset="0.304688"/><stop stop-opacity="1" stop-color="rgb(80.224609%, 24.009705%, 35.083008%)" offset="0.308594"/><stop stop-opacity="1" stop-color="rgb(80.337524%, 24.156189%, 35.343933%)" offset="0.3125"/><stop stop-opacity="1" stop-color="rgb(80.448914%, 24.301147%, 35.603333%)" offset="0.316406"/><stop stop-opacity="1" stop-color="rgb(80.560303%, 24.447632%, 35.864258%)" offset="0.320312"/><stop stop-opacity="1" stop-color="rgb(80.671692%, 24.59259%, 36.125183%)" offset="0.324219"/><stop stop-opacity="1" stop-color="rgb(80.783081%, 24.739075%, 36.386108%)" offset="0.328125"/><stop stop-opacity="1" stop-color="rgb(80.89447%, 24.884033%, 36.645508%)" offset="0.332031"/><stop stop-opacity="1" stop-color="rgb(81.007385%, 25.030518%, 36.906433%)" offset="0.335938"/><stop stop-opacity="1" stop-color="rgb(81.118774%, 25.175476%, 37.167358%)" offset="0.339844"/><stop stop-opacity="1" stop-color="rgb(81.230164%, 25.32196%, 37.428284%)" offset="0.34375"/><stop stop-opacity="1" stop-color="rgb(81.341553%, 25.466919%, 37.687683%)" offset="0.347656"/><stop stop-opacity="1" stop-color="rgb(81.454468%, 25.613403%, 37.948608%)" offset="0.351563"/><stop stop-opacity="1" stop-color="rgb(81.565857%, 25.758362%, 38.209534%)" offset="0.355469"/><stop stop-opacity="1" stop-color="rgb(81.677246%, 25.904846%, 38.470459%)" offset="0.359375"/><stop stop-opacity="1" stop-color="rgb(81.788635%, 26.049805%, 38.729858%)" offset="0.363281"/><stop stop-opacity="1" stop-color="rgb(81.90155%, 26.194763%, 38.990784%)" offset="0.367188"/><stop stop-opacity="1" stop-color="rgb(82.012939%, 26.339722%, 39.251709%)" offset="0.371094"/><stop stop-opacity="1" stop-color="rgb(82.124329%, 26.486206%, 39.512634%)" offset="0.375"/><stop stop-opacity="1" stop-color="rgb(82.235718%, 26.631165%, 39.772034%)" offset="0.378906"/><stop stop-opacity="1" stop-color="rgb(82.347107%, 26.777649%, 40.032959%)" offset="0.382812"/><stop stop-opacity="1" stop-color="rgb(82.458496%, 26.922607%, 40.293884%)" offset="0.386719"/><stop stop-opacity="1" stop-color="rgb(82.571411%, 27.069092%, 40.55481%)" offset="0.390625"/><stop stop-opacity="1" stop-color="rgb(82.6828%, 27.21405%, 40.814209%)" offset="0.394531"/><stop stop-opacity="1" stop-color="rgb(82.794189%, 27.360535%, 41.075134%)" offset="0.398438"/><stop stop-opacity="1" stop-color="rgb(82.905579%, 27.505493%, 41.33606%)" offset="0.402344"/><stop stop-opacity="1" stop-color="rgb(83.018494%, 27.651978%, 41.596985%)" offset="0.40625"/><stop stop-opacity="1" stop-color="rgb(83.129883%, 27.796936%, 41.856384%)" offset="0.410156"/><stop stop-opacity="1" stop-color="rgb(83.241272%, 27.94342%, 42.11731%)" offset="0.414062"/><stop stop-opacity="1" stop-color="rgb(83.352661%, 28.088379%, 42.378235%)" offset="0.417969"/><stop stop-opacity="1" stop-color="rgb(83.465576%, 28.234863%, 42.63916%)" offset="0.421875"/><stop stop-opacity="1" stop-color="rgb(83.576965%, 28.379822%, 42.89856%)" offset="0.425781"/><stop stop-opacity="1" stop-color="rgb(83.688354%, 28.526306%, 43.159485%)" offset="0.429687"/><stop stop-opacity="1" stop-color="rgb(83.799744%, 28.671265%, 43.42041%)" offset="0.433594"/><stop stop-opacity="1" stop-color="rgb(83.911133%, 28.817749%, 43.681335%)" offset="0.4375"/><stop stop-opacity="1" stop-color="rgb(84.022522%, 28.962708%, 43.940735%)" offset="0.441406"/><stop stop-opacity="1" stop-color="rgb(84.135437%, 29.109192%, 44.20166%)" offset="0.445313"/><stop stop-opacity="1" stop-color="rgb(84.246826%, 29.25415%, 44.462585%)" offset="0.449219"/><stop stop-opacity="1" stop-color="rgb(84.358215%, 29.400635%, 44.723511%)" offset="0.453125"/><stop stop-opacity="1" stop-color="rgb(84.469604%, 29.545593%, 44.98291%)" offset="0.457031"/><stop stop-opacity="1" stop-color="rgb(84.58252%, 29.692078%, 45.243835%)" offset="0.460938"/><stop stop-opacity="1" stop-color="rgb(84.693909%, 29.837036%, 45.504761%)" offset="0.464844"/><stop stop-opacity="1" stop-color="rgb(84.805298%, 29.983521%, 45.765686%)" offset="0.46875"/><stop stop-opacity="1" stop-color="rgb(84.916687%, 30.128479%, 46.025085%)" offset="0.472656"/><stop stop-opacity="1" stop-color="rgb(85.029602%, 30.274963%, 46.286011%)" offset="0.476562"/><stop stop-opacity="1" stop-color="rgb(85.140991%, 30.419922%, 46.546936%)" offset="0.480469"/><stop stop-opacity="1" stop-color="rgb(85.25238%, 30.566406%, 46.807861%)" offset="0.484375"/><stop stop-opacity="1" stop-color="rgb(85.36377%, 30.711365%, 47.067261%)" offset="0.488281"/><stop stop-opacity="1" stop-color="rgb(85.475159%, 30.857849%, 47.328186%)" offset="0.492188"/><stop stop-opacity="1" stop-color="rgb(85.586548%, 31.002808%, 47.589111%)" offset="0.496094"/><stop stop-opacity="1" stop-color="rgb(85.699463%, 31.149292%, 47.850037%)" offset="0.5"/><stop stop-opacity="1" stop-color="rgb(85.810852%, 31.29425%, 48.109436%)" offset="0.503906"/><stop stop-opacity="1" stop-color="rgb(85.922241%, 31.440735%, 48.370361%)" offset="0.507812"/><stop stop-opacity="1" stop-color="rgb(86.03363%, 31.585693%, 48.631287%)" offset="0.511719"/><stop stop-opacity="1" stop-color="rgb(86.146545%, 31.732178%, 48.892212%)" offset="0.515625"/><stop stop-opacity="1" stop-color="rgb(86.257935%, 31.877136%, 49.151611%)" offset="0.519531"/><stop stop-opacity="1" stop-color="rgb(86.369324%, 32.023621%, 49.412537%)" offset="0.523437"/><stop stop-opacity="1" stop-color="rgb(86.480713%, 32.168579%, 49.673462%)" offset="0.527344"/><stop stop-opacity="1" stop-color="rgb(86.593628%, 32.315063%, 49.934387%)" offset="0.53125"/><stop stop-opacity="1" stop-color="rgb(86.705017%, 32.460022%, 50.193787%)" offset="0.535156"/><stop stop-opacity="1" stop-color="rgb(86.816406%, 32.606506%, 50.454712%)" offset="0.539063"/><stop stop-opacity="1" stop-color="rgb(86.927795%, 32.751465%, 50.715637%)" offset="0.542969"/><stop stop-opacity="1" stop-color="rgb(87.04071%, 32.897949%, 50.976562%)" offset="0.546875"/><stop stop-opacity="1" stop-color="rgb(87.1521%, 33.042908%, 51.235962%)" offset="0.550781"/><stop stop-opacity="1" stop-color="rgb(87.263489%, 33.189392%, 51.496887%)" offset="0.554688"/><stop stop-opacity="1" stop-color="rgb(87.374878%, 33.334351%, 51.757812%)" offset="0.558594"/><stop stop-opacity="1" stop-color="rgb(87.486267%, 33.480835%, 52.018738%)" offset="0.5625"/><stop stop-opacity="1" stop-color="rgb(87.597656%, 33.625793%, 52.278137%)" offset="0.566406"/><stop stop-opacity="1" stop-color="rgb(87.710571%, 33.772278%, 52.539062%)" offset="0.570312"/><stop stop-opacity="1" stop-color="rgb(87.82196%, 33.917236%, 52.799988%)" offset="0.574219"/><stop stop-opacity="1" stop-color="rgb(87.93335%, 34.063721%, 53.060913%)" offset="0.578125"/><stop stop-opacity="1" stop-color="rgb(88.044739%, 34.208679%, 53.320312%)" offset="0.582031"/><stop stop-opacity="1" stop-color="rgb(88.157654%, 34.355164%, 53.581238%)" offset="0.585938"/><stop stop-opacity="1" stop-color="rgb(88.269043%, 34.500122%, 53.842163%)" offset="0.589844"/><stop stop-opacity="1" stop-color="rgb(88.380432%, 34.646606%, 54.103088%)" offset="0.59375"/><stop stop-opacity="1" stop-color="rgb(88.491821%, 34.791565%, 54.362488%)" offset="0.597656"/><stop stop-opacity="1" stop-color="rgb(88.604736%, 34.938049%, 54.623413%)" offset="0.601562"/><stop stop-opacity="1" stop-color="rgb(88.716125%, 35.083008%, 54.884338%)" offset="0.605469"/><stop stop-opacity="1" stop-color="rgb(88.827515%, 35.229492%, 55.145264%)" offset="0.609375"/><stop stop-opacity="1" stop-color="rgb(88.938904%, 35.374451%, 55.404663%)" offset="0.613281"/><stop stop-opacity="1" stop-color="rgb(89.050293%, 35.520935%, 55.665588%)" offset="0.617187"/><stop stop-opacity="1" stop-color="rgb(89.161682%, 35.665894%, 55.926514%)" offset="0.621094"/><stop stop-opacity="1" stop-color="rgb(89.274597%, 35.812378%, 56.187439%)" offset="0.625"/><stop stop-opacity="1" stop-color="rgb(89.385986%, 35.957336%, 56.446838%)" offset="0.628906"/><stop stop-opacity="1" stop-color="rgb(89.497375%, 36.103821%, 56.707764%)" offset="0.632812"/><stop stop-opacity="1" stop-color="rgb(89.608765%, 36.248779%, 56.968689%)" offset="0.636719"/><stop stop-opacity="1" stop-color="rgb(89.72168%, 36.395264%, 57.229614%)" offset="0.640625"/><stop stop-opacity="1" stop-color="rgb(89.833069%, 36.540222%, 57.489014%)" offset="0.644531"/><stop stop-opacity="1" stop-color="rgb(89.944458%, 36.686707%, 57.749939%)" offset="0.648438"/><stop stop-opacity="1" stop-color="rgb(90.055847%, 36.831665%, 58.010864%)" offset="0.652344"/><stop stop-opacity="1" stop-color="rgb(90.168762%, 36.978149%, 58.27179%)" offset="0.65625"/><stop stop-opacity="1" stop-color="rgb(90.280151%, 37.123108%, 58.531189%)" offset="0.660156"/><stop stop-opacity="1" stop-color="rgb(90.391541%, 37.269592%, 58.792114%)" offset="0.664062"/><stop stop-opacity="1" stop-color="rgb(90.50293%, 37.414551%, 59.05304%)" offset="0.667969"/><stop stop-opacity="1" stop-color="rgb(90.614319%, 37.559509%, 59.313965%)" offset="0.671875"/><stop stop-opacity="1" stop-color="rgb(90.725708%, 37.704468%, 59.573364%)" offset="0.675781"/><stop stop-opacity="1" stop-color="rgb(90.838623%, 37.850952%, 59.83429%)" offset="0.679687"/><stop stop-opacity="1" stop-color="rgb(90.950012%, 37.995911%, 60.095215%)" offset="0.683594"/><stop stop-opacity="1" stop-color="rgb(91.061401%, 38.142395%, 60.35614%)" offset="0.6875"/><stop stop-opacity="1" stop-color="rgb(91.172791%, 38.287354%, 60.61554%)" offset="0.691406"/><stop stop-opacity="1" stop-color="rgb(91.285706%, 38.433838%, 60.876465%)" offset="0.695312"/><stop stop-opacity="1" stop-color="rgb(91.397095%, 38.578796%, 61.13739%)" offset="0.699219"/><stop stop-opacity="1" stop-color="rgb(91.508484%, 38.725281%, 61.398315%)" offset="0.703125"/><stop stop-opacity="1" stop-color="rgb(91.619873%, 38.870239%, 61.657715%)" offset="0.707031"/><stop stop-opacity="1" stop-color="rgb(91.732788%, 39.016724%, 61.91864%)" offset="0.710937"/><stop stop-opacity="1" stop-color="rgb(91.844177%, 39.161682%, 62.179565%)" offset="0.714844"/><stop stop-opacity="1" stop-color="rgb(91.955566%, 39.308167%, 62.440491%)" offset="0.71875"/><stop stop-opacity="1" stop-color="rgb(92.066956%, 39.453125%, 62.69989%)" offset="0.722656"/><stop stop-opacity="1" stop-color="rgb(92.178345%, 39.599609%, 62.960815%)" offset="0.726562"/><stop stop-opacity="1" stop-color="rgb(92.289734%, 39.744568%, 63.221741%)" offset="0.730469"/><stop stop-opacity="1" stop-color="rgb(92.402649%, 39.891052%, 63.482666%)" offset="0.734375"/><stop stop-opacity="1" stop-color="rgb(92.514038%, 40.036011%, 63.742065%)" offset="0.738281"/><stop stop-opacity="1" stop-color="rgb(92.625427%, 40.182495%, 64.002991%)" offset="0.742188"/><stop stop-opacity="1" stop-color="rgb(92.736816%, 40.327454%, 64.263916%)" offset="0.746094"/><stop stop-opacity="1" stop-color="rgb(92.849731%, 40.473938%, 64.524841%)" offset="0.75"/><stop stop-opacity="1" stop-color="rgb(92.961121%, 40.618896%, 64.784241%)" offset="0.753906"/><stop stop-opacity="1" stop-color="rgb(93.07251%, 40.765381%, 65.045166%)" offset="0.757812"/><stop stop-opacity="1" stop-color="rgb(93.183899%, 40.910339%, 65.306091%)" offset="0.761719"/><stop stop-opacity="1" stop-color="rgb(93.296814%, 41.056824%, 65.567017%)" offset="0.765625"/><stop stop-opacity="1" stop-color="rgb(93.408203%, 41.201782%, 65.826416%)" offset="0.769531"/><stop stop-opacity="1" stop-color="rgb(93.519592%, 41.348267%, 66.087341%)" offset="0.773437"/><stop stop-opacity="1" stop-color="rgb(93.630981%, 41.493225%, 66.348267%)" offset="0.777344"/><stop stop-opacity="1" stop-color="rgb(93.742371%, 41.639709%, 66.609192%)" offset="0.78125"/><stop stop-opacity="1" stop-color="rgb(93.85376%, 41.784668%, 66.868591%)" offset="0.785156"/><stop stop-opacity="1" stop-color="rgb(93.966675%, 41.931152%, 67.129517%)" offset="0.789063"/><stop stop-opacity="1" stop-color="rgb(94.078064%, 42.076111%, 67.390442%)" offset="0.792969"/><stop stop-opacity="1" stop-color="rgb(94.189453%, 42.222595%, 67.651367%)" offset="0.796875"/><stop stop-opacity="1" stop-color="rgb(94.300842%, 42.367554%, 67.910767%)" offset="0.800781"/><stop stop-opacity="1" stop-color="rgb(94.413757%, 42.514038%, 68.171692%)" offset="0.804688"/><stop stop-opacity="1" stop-color="rgb(94.525146%, 42.658997%, 68.432617%)" offset="0.808594"/><stop stop-opacity="1" stop-color="rgb(94.636536%, 42.805481%, 68.693542%)" offset="0.8125"/><stop stop-opacity="1" stop-color="rgb(94.747925%, 42.950439%, 68.952942%)" offset="0.816406"/><stop stop-opacity="1" stop-color="rgb(94.86084%, 43.096924%, 69.213867%)" offset="0.820312"/><stop stop-opacity="1" stop-color="rgb(94.972229%, 43.241882%, 69.474792%)" offset="0.824219"/><stop stop-opacity="1" stop-color="rgb(95.083618%, 43.388367%, 69.735718%)" offset="0.828125"/><stop stop-opacity="1" stop-color="rgb(95.195007%, 43.533325%, 69.995117%)" offset="0.832031"/><stop stop-opacity="1" stop-color="rgb(95.306396%, 43.67981%, 70.256042%)" offset="0.835938"/><stop stop-opacity="1" stop-color="rgb(95.417786%, 43.824768%, 70.516968%)" offset="0.839844"/><stop stop-opacity="1" stop-color="rgb(95.530701%, 43.971252%, 70.777893%)" offset="0.84375"/><stop stop-opacity="1" stop-color="rgb(95.64209%, 44.116211%, 71.037292%)" offset="0.847656"/><stop stop-opacity="1" stop-color="rgb(95.753479%, 44.262695%, 71.298218%)" offset="0.851562"/><stop stop-opacity="1" stop-color="rgb(95.864868%, 44.407654%, 71.559143%)" offset="0.855469"/><stop stop-opacity="1" stop-color="rgb(95.977783%, 44.554138%, 71.820068%)" offset="0.859375"/><stop stop-opacity="1" stop-color="rgb(96.089172%, 44.699097%, 72.079468%)" offset="0.863281"/><stop stop-opacity="1" stop-color="rgb(96.200562%, 44.845581%, 72.340393%)" offset="0.867187"/><stop stop-opacity="1" stop-color="rgb(96.311951%, 44.99054%, 72.601318%)" offset="0.871094"/><stop stop-opacity="1" stop-color="rgb(96.424866%, 45.137024%, 72.862244%)" offset="0.875"/><stop stop-opacity="1" stop-color="rgb(96.536255%, 45.281982%, 73.121643%)" offset="0.878906"/><stop stop-opacity="1" stop-color="rgb(96.647644%, 45.428467%, 73.382568%)" offset="0.882813"/><stop stop-opacity="1" stop-color="rgb(96.759033%, 45.573425%, 73.643494%)" offset="0.886719"/><stop stop-opacity="1" stop-color="rgb(96.870422%, 45.71991%, 73.904419%)" offset="0.890625"/><stop stop-opacity="1" stop-color="rgb(96.981812%, 45.864868%, 74.163818%)" offset="0.894531"/><stop stop-opacity="1" stop-color="rgb(97.094727%, 46.011353%, 74.424744%)" offset="0.898438"/><stop stop-opacity="1" stop-color="rgb(97.206116%, 46.156311%, 74.685669%)" offset="0.902344"/><stop stop-opacity="1" stop-color="rgb(97.317505%, 46.302795%, 74.946594%)" offset="0.90625"/><stop stop-opacity="1" stop-color="rgb(97.428894%, 46.447754%, 75.205994%)" offset="0.910156"/><stop stop-opacity="1" stop-color="rgb(97.541809%, 46.594238%, 75.466919%)" offset="0.914062"/><stop stop-opacity="1" stop-color="rgb(97.653198%, 46.739197%, 75.727844%)" offset="0.917969"/><stop stop-opacity="1" stop-color="rgb(97.764587%, 46.885681%, 75.98877%)" offset="0.921875"/><stop stop-opacity="1" stop-color="rgb(97.875977%, 47.03064%, 76.248169%)" offset="0.925781"/><stop stop-opacity="1" stop-color="rgb(97.988892%, 47.177124%, 76.509094%)" offset="0.929688"/><stop stop-opacity="1" stop-color="rgb(98.100281%, 47.322083%, 76.77002%)" offset="0.933594"/><stop stop-opacity="1" stop-color="rgb(98.21167%, 47.468567%, 77.030945%)" offset="0.9375"/><stop stop-opacity="1" stop-color="rgb(98.323059%, 47.613525%, 77.290344%)" offset="0.941406"/><stop stop-opacity="1" stop-color="rgb(98.434448%, 47.76001%, 77.55127%)" offset="0.945312"/><stop stop-opacity="1" stop-color="rgb(98.545837%, 47.904968%, 77.812195%)" offset="0.949219"/><stop stop-opacity="1" stop-color="rgb(98.658752%, 48.051453%, 78.07312%)" offset="0.953125"/><stop stop-opacity="1" stop-color="rgb(98.770142%, 48.196411%, 78.33252%)" offset="0.957031"/><stop stop-opacity="1" stop-color="rgb(98.881531%, 48.342896%, 78.593445%)" offset="0.960937"/><stop stop-opacity="1" stop-color="rgb(98.99292%, 48.487854%, 78.85437%)" offset="0.964844"/><stop stop-opacity="1" stop-color="rgb(99.105835%, 48.634338%, 79.115295%)" offset="0.96875"/><stop stop-opacity="1" stop-color="rgb(99.217224%, 48.779297%, 79.374695%)" offset="0.972656"/><stop stop-opacity="1" stop-color="rgb(99.328613%, 48.925781%, 79.63562%)" offset="0.976563"/><stop stop-opacity="1" stop-color="rgb(99.440002%, 49.07074%, 79.896545%)" offset="0.980469"/><stop stop-opacity="1" stop-color="rgb(99.552917%, 49.215698%, 80.157471%)" offset="0.984375"/><stop stop-opacity="1" stop-color="rgb(99.664307%, 49.360657%, 80.41687%)" offset="0.988281"/><stop stop-opacity="1" stop-color="rgb(99.775696%, 49.507141%, 80.677795%)" offset="0.992188"/><stop stop-opacity="1" stop-color="rgb(99.887085%, 49.6521%, 80.938721%)" offset="0.996094"/><stop stop-opacity="1" stop-color="rgb(100%, 49.798584%, 81.199646%)" offset="1"/></linearGradient></defs><g fill="#000000" fill-opacity="1"><g transform="translate(146.699482, 109.255441)"><g><path d="M 19.5 -11.796875 C 19.894531 -11.703125 20.144531 -11.5 20.25 -11.1875 C 20.363281 -10.875 20.3125 -10.566406 20.09375 -10.265625 C 19.976562 -10.078125 19.742188 -9.925781 19.390625 -9.8125 C 19.035156 -9.695312 18.648438 -9.617188 18.234375 -9.578125 C 17.816406 -9.535156 17.414062 -9.515625 17.03125 -9.515625 C 16.65625 -9.523438 16.367188 -9.535156 16.171875 -9.546875 C 15.148438 -9.691406 14.296875 -10.09375 13.609375 -10.75 C 12.929688 -11.40625 12.382812 -12.238281 11.96875 -13.25 C 11.550781 -14.257812 11.222656 -15.359375 10.984375 -16.546875 C 10.742188 -17.734375 10.535156 -18.921875 10.359375 -20.109375 C 10.191406 -21.304688 10.015625 -22.414062 9.828125 -23.4375 C 9.734375 -23.96875 9.601562 -24.660156 9.4375 -25.515625 C 9.269531 -26.367188 9.054688 -27.273438 8.796875 -28.234375 C 8.535156 -29.203125 8.210938 -30.132812 7.828125 -31.03125 C 7.453125 -31.925781 7.003906 -32.691406 6.484375 -33.328125 C 5.972656 -33.972656 5.375 -34.382812 4.6875 -34.5625 C 4.6875 -34.53125 4.644531 -34.378906 4.5625 -34.109375 C 4.488281 -33.835938 4.421875 -33.59375 4.359375 -33.375 C 4.097656 -32.332031 3.816406 -31.242188 3.515625 -30.109375 C 3.222656 -28.972656 2.941406 -27.769531 2.671875 -26.5 C 2.609375 -26.175781 2.523438 -25.695312 2.421875 -25.0625 C 2.328125 -24.425781 2.222656 -23.726562 2.109375 -22.96875 C 2.003906 -22.207031 1.894531 -21.453125 1.78125 -20.703125 C 1.675781 -19.953125 1.582031 -19.273438 1.5 -18.671875 C 1.425781 -18.066406 1.390625 -17.617188 1.390625 -17.328125 C 1.390625 -16.898438 1.195312 -16.546875 0.8125 -16.265625 C 0.425781 -15.992188 -0.0195312 -15.828125 -0.53125 -15.765625 C -1.050781 -15.710938 -1.53125 -15.773438 -1.96875 -15.953125 C -2.40625 -16.140625 -2.671875 -16.472656 -2.765625 -16.953125 C -3.609375 -21.523438 -4.28125 -26.125 -4.78125 -30.75 C -5.289062 -35.382812 -5.644531 -40.039062 -5.84375 -44.71875 C -5.925781 -46.34375 -5.972656 -48.015625 -5.984375 -49.734375 C -5.984375 -49.984375 -5.988281 -50.234375 -6 -50.484375 C -6.019531 -50.742188 -6.03125 -51.003906 -6.03125 -51.265625 C -6.019531 -51.347656 -6.019531 -51.4375 -6.03125 -51.53125 C -6.039062 -51.632812 -6.035156 -51.722656 -6.015625 -51.796875 C -6.054688 -54.796875 -6.019531 -57.789062 -5.90625 -60.78125 C -5.800781 -63.78125 -5.53125 -66.742188 -5.09375 -69.671875 C -4.9375 -70.765625 -4.742188 -71.925781 -4.515625 -73.15625 C -4.296875 -74.382812 -3.984375 -75.582031 -3.578125 -76.75 C -3.171875 -77.914062 -2.601562 -78.921875 -1.875 -79.765625 C -1.738281 -79.941406 -1.492188 -80.179688 -1.140625 -80.484375 C -0.785156 -80.785156 -0.359375 -81.066406 0.140625 -81.328125 C 0.640625 -81.585938 1.1875 -81.75 1.78125 -81.8125 C 2.382812 -81.882812 3.007812 -81.773438 3.65625 -81.484375 C 4.59375 -81.054688 5.359375 -80.097656 5.953125 -78.609375 C 6.554688 -77.117188 6.914062 -75.210938 7.03125 -72.890625 C 7.144531 -70.566406 6.972656 -67.90625 6.515625 -64.90625 C 6.066406 -61.90625 5.28125 -58.660156 4.15625 -55.171875 C 3.03125 -51.679688 1.519531 -48.039062 -0.375 -44.25 C -0.375 -44.238281 -0.367188 -44.222656 -0.359375 -44.203125 C -0.359375 -44.179688 -0.359375 -44.148438 -0.359375 -44.109375 C -0.359375 -44.109375 -0.363281 -44.109375 -0.375 -44.109375 C -0.382812 -44.109375 -0.390625 -44.109375 -0.390625 -44.109375 C -0.390625 -43.953125 -0.382812 -43.828125 -0.375 -43.734375 C -0.375 -43.640625 -0.367188 -43.582031 -0.359375 -43.5625 C -0.347656 -42.945312 -0.3125 -42.195312 -0.25 -41.3125 C -0.1875 -40.4375 -0.128906 -39.492188 -0.078125 -38.484375 C -0.0234375 -37.484375 0.0351562 -36.472656 0.109375 -35.453125 C 0.191406 -34.441406 0.269531 -33.492188 0.34375 -32.609375 C 0.414062 -31.734375 0.476562 -30.992188 0.53125 -30.390625 C 0.550781 -30.484375 0.625 -30.867188 0.75 -31.546875 C 0.875 -32.222656 1.050781 -33.113281 1.28125 -34.21875 C 1.507812 -35.332031 1.796875 -36.5625 2.140625 -37.90625 C 2.492188 -39.25 2.898438 -40.632812 3.359375 -42.0625 C 3.816406 -43.5 4.335938 -44.878906 4.921875 -46.203125 C 5.503906 -47.523438 6.144531 -48.71875 6.84375 -49.78125 C 7.539062 -50.84375 8.304688 -51.675781 9.140625 -52.28125 C 9.929688 -52.800781 10.75 -53.070312 11.59375 -53.09375 C 12.4375 -53.113281 13.160156 -52.867188 13.765625 -52.359375 C 14.054688 -52.117188 14.300781 -51.617188 14.5 -50.859375 C 14.695312 -50.097656 14.660156 -49.125 14.390625 -47.9375 C 14.347656 -47.644531 14.195312 -47.425781 13.9375 -47.28125 C 13.6875 -47.144531 13.410156 -47.082031 13.109375 -47.09375 C 12.816406 -47.113281 12.570312 -47.203125 12.375 -47.359375 C 12.1875 -47.515625 12.140625 -47.734375 12.234375 -48.015625 C 12.484375 -48.847656 12.546875 -49.515625 12.421875 -50.015625 C 12.296875 -50.515625 12.128906 -50.875 11.921875 -51.09375 C 11.890625 -51.113281 11.867188 -51.117188 11.859375 -51.109375 C 11.847656 -51.109375 11.832031 -51.117188 11.8125 -51.140625 C 11.726562 -51.046875 11.613281 -50.957031 11.46875 -50.875 C 11.332031 -50.800781 11.148438 -50.640625 10.921875 -50.390625 C 10.703125 -50.140625 10.441406 -49.75 10.140625 -49.21875 C 9.835938 -48.6875 9.46875 -47.9375 9.03125 -46.96875 C 8.601562 -46 8.101562 -44.738281 7.53125 -43.1875 C 6.96875 -41.632812 6.316406 -39.71875 5.578125 -37.4375 C 5.648438 -37.457031 5.726562 -37.476562 5.8125 -37.5 C 5.90625 -37.519531 6.046875 -37.519531 6.234375 -37.5 C 7.265625 -37.414062 8.179688 -37.019531 8.984375 -36.3125 C 9.796875 -35.613281 10.5 -34.691406 11.09375 -33.546875 C 11.6875 -32.410156 12.203125 -31.132812 12.640625 -29.71875 C 13.085938 -28.300781 13.460938 -26.851562 13.765625 -25.375 C 14.078125 -23.894531 14.34375 -22.472656 14.5625 -21.109375 C 14.664062 -20.398438 14.832031 -19.5625 15.0625 -18.59375 C 15.300781 -17.632812 15.613281 -16.679688 16 -15.734375 C 16.394531 -14.796875 16.875 -13.960938 17.4375 -13.234375 C 18 -12.515625 18.6875 -12.035156 19.5 -11.796875 Z M 0.40625 -70.796875 C -0.132812 -67.710938 -0.460938 -64.578125 -0.578125 -61.390625 C -0.691406 -58.203125 -0.710938 -55.019531 -0.640625 -51.84375 C -0.640625 -51.625 -0.632812 -51.410156 -0.625 -51.203125 C -0.613281 -51.003906 -0.609375 -50.796875 -0.609375 -50.578125 C -0.585938 -50.203125 -0.570312 -49.820312 -0.5625 -49.4375 C -0.5625 -49.0625 -0.554688 -48.6875 -0.546875 -48.3125 C 0.492188 -50.8125 1.4375 -53.351562 2.28125 -55.9375 C 3.125 -58.519531 3.785156 -61.175781 4.265625 -63.90625 C 4.492188 -65.175781 4.710938 -66.515625 4.921875 -67.921875 C 5.128906 -69.335938 5.242188 -70.753906 5.265625 -72.171875 C 5.285156 -73.585938 5.117188 -74.929688 4.765625 -76.203125 C 4.722656 -76.378906 4.628906 -76.628906 4.484375 -76.953125 C 4.335938 -77.285156 4.175781 -77.628906 4 -77.984375 C 3.820312 -78.335938 3.644531 -78.628906 3.46875 -78.859375 C 3.300781 -79.085938 3.171875 -79.1875 3.078125 -79.15625 C 2.941406 -79.132812 2.785156 -78.953125 2.609375 -78.609375 C 2.441406 -78.273438 2.289062 -77.90625 2.15625 -77.5 C 2.019531 -77.101562 1.910156 -76.800781 1.828125 -76.59375 C 1.503906 -75.65625 1.226562 -74.695312 1 -73.71875 C 0.78125 -72.75 0.582031 -71.773438 0.40625 -70.796875 Z M 0.40625 -70.796875 "/></g></g></g><g fill="#000000" fill-opacity="1"><g transform="translate(168.504106, 107.138396)"><g><path d="M 17.09375 -41.421875 C 17.164062 -41.617188 17.304688 -41.75 17.515625 -41.8125 C 17.722656 -41.875 17.90625 -41.851562 18.0625 -41.75 C 18.21875 -41.644531 18.253906 -41.460938 18.171875 -41.203125 C 18.109375 -39.316406 17.535156 -37.710938 16.453125 -36.390625 C 15.378906 -35.078125 13.851562 -33.914062 11.875 -32.90625 C 11.789062 -31.28125 11.613281 -29.664062 11.34375 -28.0625 C 11.070312 -26.457031 10.691406 -24.972656 10.203125 -23.609375 C 9.710938 -22.242188 9.085938 -21.117188 8.328125 -20.234375 C 7.566406 -19.359375 6.660156 -18.84375 5.609375 -18.6875 C 4.421875 -18.488281 3.351562 -18.578125 2.40625 -18.953125 C 1.457031 -19.335938 0.628906 -19.921875 -0.078125 -20.703125 C -0.796875 -21.492188 -1.421875 -22.421875 -1.953125 -23.484375 C -2.484375 -24.546875 -2.925781 -25.65625 -3.28125 -26.8125 C -3.644531 -27.96875 -3.941406 -29.09375 -4.171875 -30.1875 C -4.410156 -31.28125 -4.585938 -32.28125 -4.703125 -33.1875 C -4.828125 -34.101562 -4.898438 -34.816406 -4.921875 -35.328125 C -4.953125 -35.566406 -4.957031 -35.785156 -4.9375 -35.984375 C -4.914062 -36.191406 -4.882812 -36.378906 -4.84375 -36.546875 C -5.300781 -37.835938 -5.519531 -39.21875 -5.5 -40.6875 C -5.488281 -42.15625 -5.25 -43.601562 -4.78125 -45.03125 C -4.3125 -46.457031 -3.660156 -47.753906 -2.828125 -48.921875 C -2.003906 -50.054688 -1.078125 -50.847656 -0.046875 -51.296875 C 0.984375 -51.753906 2.019531 -51.910156 3.0625 -51.765625 C 4.113281 -51.617188 5.070312 -51.238281 5.9375 -50.625 C 7.976562 -49.144531 9.476562 -47.191406 10.4375 -44.765625 C 11.394531 -42.335938 11.882812 -39.320312 11.90625 -35.71875 C 11.914062 -35.601562 11.921875 -35.484375 11.921875 -35.359375 C 11.929688 -35.234375 11.929688 -35.097656 11.921875 -34.953125 C 12.898438 -35.378906 13.800781 -35.894531 14.625 -36.5 C 15.445312 -37.101562 16.09375 -37.816406 16.5625 -38.640625 C 17.03125 -39.472656 17.207031 -40.398438 17.09375 -41.421875 Z M -1.28125 -44.609375 C -1.363281 -44.191406 -1.453125 -43.609375 -1.546875 -42.859375 C -1.640625 -42.109375 -1.679688 -41.289062 -1.671875 -40.40625 C -1.671875 -39.53125 -1.582031 -38.6875 -1.40625 -37.875 C -1.070312 -37.707031 -0.800781 -37.5 -0.59375 -37.25 C -0.382812 -37.007812 -0.253906 -36.722656 -0.203125 -36.390625 C -0.191406 -36.273438 -0.175781 -36.117188 -0.15625 -35.921875 C -0.144531 -35.734375 -0.125 -35.503906 -0.09375 -35.234375 C -0.0507812 -35.222656 -0.0195312 -35.203125 0 -35.171875 C 0.03125 -35.148438 0.0546875 -35.125 0.078125 -35.09375 C 0.773438 -34.457031 1.796875 -34.019531 3.140625 -33.78125 C 4.484375 -33.539062 5.953125 -33.53125 7.546875 -33.75 C 7.554688 -34.84375 7.523438 -35.753906 7.453125 -36.484375 C 7.378906 -37.703125 7.265625 -38.988281 7.109375 -40.34375 C 6.953125 -41.695312 6.707031 -43.015625 6.375 -44.296875 C 6.050781 -45.585938 5.554688 -46.757812 4.890625 -47.8125 C 4.210938 -48.882812 3.554688 -49.539062 2.921875 -49.78125 C 2.285156 -50.03125 1.691406 -49.953125 1.140625 -49.546875 C 0.597656 -49.140625 0.117188 -48.492188 -0.296875 -47.609375 C -0.722656 -46.734375 -1.050781 -45.734375 -1.28125 -44.609375 Z M 5.09375 -21.921875 C 5.539062 -22.015625 5.910156 -22.335938 6.203125 -22.890625 C 6.492188 -23.453125 6.726562 -24.1875 6.90625 -25.09375 C 7.09375 -26 7.234375 -26.988281 7.328125 -28.0625 C 7.421875 -29.132812 7.484375 -30.195312 7.515625 -31.25 C 6.273438 -30.9375 5.054688 -30.769531 3.859375 -30.75 C 2.660156 -30.726562 1.5625 -30.882812 0.5625 -31.21875 C 0.757812 -30.125 1.003906 -29.015625 1.296875 -27.890625 C 1.585938 -26.765625 1.914062 -25.734375 2.28125 -24.796875 C 2.65625 -23.867188 3.070312 -23.132812 3.53125 -22.59375 C 3.988281 -22.050781 4.507812 -21.828125 5.09375 -21.921875 Z M 5.09375 -21.921875 "/></g></g></g><g fill="#000000" fill-opacity="1"><g transform="translate(189.150449, 105.13381)"><g><path d="M 23.34375 -44.109375 C 23.6875 -44.140625 23.960938 -44.085938 24.171875 -43.953125 C 24.378906 -43.816406 24.460938 -43.660156 24.421875 -43.484375 C 24.378906 -43.304688 24.160156 -43.15625 23.765625 -43.03125 C 22.921875 -42.769531 22.015625 -42.484375 21.046875 -42.171875 C 20.085938 -41.867188 18.945312 -41.390625 17.625 -40.734375 C 17.726562 -39.546875 17.742188 -38.34375 17.671875 -37.125 C 17.597656 -35.90625 17.484375 -34.703125 17.328125 -33.515625 C 17.003906 -31.265625 16.457031 -29.078125 15.6875 -26.953125 C 15.394531 -26.148438 15.050781 -25.300781 14.65625 -24.40625 C 14.257812 -23.507812 13.71875 -22.773438 13.03125 -22.203125 C 12.539062 -21.785156 11.941406 -21.4375 11.234375 -21.15625 C 10.535156 -20.882812 9.832031 -20.734375 9.125 -20.703125 C 8.425781 -20.671875 7.773438 -20.804688 7.171875 -21.109375 C 6.578125 -21.421875 6.132812 -21.945312 5.84375 -22.6875 C 5.46875 -23.550781 5.273438 -24.460938 5.265625 -25.421875 C 5.265625 -26.390625 5.382812 -27.363281 5.625 -28.34375 C 5.863281 -29.320312 6.175781 -30.269531 6.5625 -31.1875 C 6.945312 -32.113281 7.34375 -32.960938 7.75 -33.734375 C 8.300781 -34.765625 8.957031 -35.726562 9.71875 -36.625 C 10.476562 -37.519531 11.300781 -38.351562 12.1875 -39.125 C 12.175781 -40.21875 12.109375 -41.359375 11.984375 -42.546875 C 11.859375 -43.742188 11.617188 -44.890625 11.265625 -45.984375 C 10.921875 -47.078125 10.414062 -47.988281 9.75 -48.71875 C 9.21875 -49.300781 8.71875 -49.578125 8.25 -49.546875 C 7.789062 -49.523438 7.34375 -49.3125 6.90625 -48.90625 C 6.476562 -48.507812 6.03125 -48.019531 5.5625 -47.4375 C 4.9375 -46.644531 4.382812 -45.789062 3.90625 -44.875 C 3.4375 -43.957031 3.023438 -43.023438 2.671875 -42.078125 C 2.066406 -40.515625 1.585938 -38.925781 1.234375 -37.3125 C 0.890625 -35.695312 0.609375 -34.066406 0.390625 -32.421875 C 0.523438 -30.660156 0.664062 -28.898438 0.8125 -27.140625 C 0.96875 -25.390625 1.128906 -23.640625 1.296875 -21.890625 C 1.535156 -19.203125 1.804688 -16.519531 2.109375 -13.84375 C 2.421875 -11.175781 2.75 -8.503906 3.09375 -5.828125 C 3.257812 -4.535156 3.429688 -3.242188 3.609375 -1.953125 C 3.796875 -0.671875 3.976562 0.625 4.15625 1.9375 C 4.269531 2.6875 4.382812 3.484375 4.5 4.328125 C 4.625 5.179688 4.722656 6.035156 4.796875 6.890625 C 4.878906 7.742188 4.90625 8.523438 4.875 9.234375 C 4.863281 9.523438 4.691406 9.71875 4.359375 9.8125 C 4.023438 9.914062 3.613281 9.9375 3.125 9.875 C 2.632812 9.820312 2.132812 9.710938 1.625 9.546875 C 1.125 9.378906 0.6875 9.175781 0.3125 8.9375 C -0.0625 8.707031 -0.289062 8.460938 -0.375 8.203125 C -0.726562 7.203125 -0.953125 6.234375 -1.046875 5.296875 C -1.140625 4.359375 -1.269531 3.300781 -1.4375 2.125 C -1.613281 0.820312 -1.789062 -0.472656 -1.96875 -1.765625 C -2.15625 -3.054688 -2.332031 -4.34375 -2.5 -5.625 C -2.820312 -8.226562 -3.128906 -10.828125 -3.421875 -13.421875 C -3.722656 -16.015625 -4 -18.613281 -4.25 -21.21875 C -4.488281 -23.90625 -4.71875 -26.582031 -4.9375 -29.25 C -5.15625 -31.914062 -5.347656 -34.597656 -5.515625 -37.296875 C -5.578125 -38.609375 -5.644531 -39.914062 -5.71875 -41.21875 C -5.789062 -42.519531 -5.84375 -43.820312 -5.875 -45.125 C -5.882812 -46 -5.914062 -46.726562 -5.96875 -47.3125 C -6.03125 -47.894531 -6.050781 -48.410156 -6.03125 -48.859375 C -6.007812 -49.304688 -5.925781 -49.738281 -5.78125 -50.15625 C -5.601562 -50.582031 -5.265625 -50.847656 -4.765625 -50.953125 C -4.265625 -51.054688 -3.722656 -51.039062 -3.140625 -50.90625 C -2.554688 -50.769531 -2.035156 -50.578125 -1.578125 -50.328125 C -1.128906 -50.078125 -0.867188 -49.8125 -0.796875 -49.53125 C -0.671875 -49.082031 -0.59375 -48.71875 -0.5625 -48.4375 C -0.539062 -48.15625 -0.523438 -47.789062 -0.515625 -47.34375 C -0.503906 -46.894531 -0.472656 -46.207031 -0.421875 -45.28125 C -0.347656 -44.363281 -0.285156 -43.441406 -0.234375 -42.515625 C -0.179688 -41.585938 -0.132812 -40.65625 -0.09375 -39.71875 C 0.175781 -40.90625 0.484375 -42.050781 0.828125 -43.15625 C 1.171875 -44.257812 1.585938 -45.332031 2.078125 -46.375 C 2.410156 -47.101562 2.84375 -47.914062 3.375 -48.8125 C 3.914062 -49.71875 4.472656 -50.460938 5.046875 -51.046875 C 5.628906 -51.617188 6.304688 -52.03125 7.078125 -52.28125 C 7.859375 -52.539062 8.640625 -52.664062 9.421875 -52.65625 C 10.765625 -52.65625 11.921875 -52.363281 12.890625 -51.78125 C 13.859375 -51.207031 14.664062 -50.425781 15.3125 -49.4375 C 15.96875 -48.457031 16.457031 -47.363281 16.78125 -46.15625 C 16.9375 -45.550781 17.066406 -44.9375 17.171875 -44.3125 C 17.285156 -43.695312 17.378906 -43.066406 17.453125 -42.421875 C 18.503906 -42.898438 19.457031 -43.265625 20.3125 -43.515625 C 21.175781 -43.773438 22.1875 -43.972656 23.34375 -44.109375 Z M 9.671875 -25.625 C 11.171875 -29.113281 11.992188 -32.773438 12.140625 -36.609375 C 11.429688 -35.773438 10.773438 -34.832031 10.171875 -33.78125 C 9.566406 -32.738281 9.054688 -31.53125 8.640625 -30.15625 C 8.367188 -29.238281 8.160156 -28.273438 8.015625 -27.265625 C 7.867188 -26.253906 7.910156 -25.273438 8.140625 -24.328125 C 8.203125 -24.035156 8.242188 -23.804688 8.265625 -23.640625 C 8.296875 -23.484375 8.359375 -23.320312 8.453125 -23.15625 C 8.503906 -23.25 8.546875 -23.320312 8.578125 -23.375 C 8.617188 -23.425781 8.671875 -23.5 8.734375 -23.59375 C 8.898438 -23.945312 9.054688 -24.285156 9.203125 -24.609375 C 9.347656 -24.929688 9.503906 -25.269531 9.671875 -25.625 Z M 9.671875 -25.625 "/></g></g></g><g fill="#000000" fill-opacity="1"><g transform="translate(216.254196, 102.502265)"><g><path d="M -4.828125 -41.28125 C -4.859375 -41.78125 -4.882812 -42.390625 -4.90625 -43.109375 C -4.925781 -43.835938 -4.953125 -44.5625 -4.984375 -45.28125 C -5.015625 -46.007812 -5.054688 -46.617188 -5.109375 -47.109375 C -5.109375 -47.148438 -5.101562 -47.195312 -5.09375 -47.25 C -5.09375 -47.3125 -5.097656 -47.359375 -5.109375 -47.390625 C -5.609375 -47.359375 -6.066406 -47.40625 -6.484375 -47.53125 C -6.898438 -47.664062 -7.125 -47.910156 -7.15625 -48.265625 C -7.195312 -48.671875 -7.023438 -48.984375 -6.640625 -49.203125 C -6.265625 -49.429688 -5.734375 -49.601562 -5.046875 -49.71875 C -4.367188 -49.832031 -3.617188 -49.929688 -2.796875 -50.015625 C -1.535156 -50.128906 -0.46875 -50.117188 0.40625 -49.984375 C 1.289062 -49.859375 1.769531 -49.578125 1.84375 -49.140625 C 1.894531 -48.828125 1.785156 -48.578125 1.515625 -48.390625 C 1.242188 -48.210938 0.804688 -48.070312 0.203125 -47.96875 C 0.203125 -47.925781 0.203125 -47.875 0.203125 -47.8125 C 0.210938 -47.757812 0.222656 -47.71875 0.234375 -47.6875 C 0.304688 -47.15625 0.375 -46.453125 0.4375 -45.578125 C 0.5 -44.703125 0.550781 -43.773438 0.59375 -42.796875 C 0.644531 -41.816406 0.691406 -40.882812 0.734375 -40 C 0.785156 -39.125 0.828125 -38.429688 0.859375 -37.921875 C 0.972656 -35.878906 1.082031 -33.816406 1.1875 -31.734375 C 1.300781 -29.648438 1.613281 -27.613281 2.125 -25.625 C 2.195312 -25.375 2.3125 -24.992188 2.46875 -24.484375 C 2.625 -23.984375 2.816406 -23.460938 3.046875 -22.921875 C 3.285156 -22.390625 3.5625 -21.941406 3.875 -21.578125 C 4.195312 -21.210938 4.539062 -21.050781 4.90625 -21.09375 C 5.570312 -21.132812 6.164062 -21.492188 6.6875 -22.171875 C 7.21875 -22.859375 7.6875 -23.75 8.09375 -24.84375 C 8.507812 -25.945312 8.867188 -27.15625 9.171875 -28.46875 C 9.484375 -29.78125 9.75 -31.09375 9.96875 -32.40625 C 10.195312 -33.726562 10.375 -34.941406 10.5 -36.046875 C 10.625 -37.160156 10.71875 -38.070312 10.78125 -38.78125 C 10.789062 -39.007812 10.894531 -39.148438 11.09375 -39.203125 C 11.300781 -39.265625 11.507812 -39.257812 11.71875 -39.1875 C 11.925781 -39.113281 12.019531 -38.972656 12 -38.765625 C 11.914062 -37.691406 11.804688 -36.46875 11.671875 -35.09375 C 11.535156 -33.71875 11.347656 -32.285156 11.109375 -30.796875 C 10.878906 -29.316406 10.5625 -27.859375 10.15625 -26.421875 C 9.757812 -24.992188 9.269531 -23.691406 8.6875 -22.515625 C 8.101562 -21.335938 7.394531 -20.378906 6.5625 -19.640625 C 5.738281 -18.898438 4.757812 -18.472656 3.625 -18.359375 C 2.507812 -18.253906 1.421875 -18.507812 0.359375 -19.125 C -0.671875 -19.769531 -1.484375 -20.617188 -2.078125 -21.671875 C -2.671875 -22.722656 -3.109375 -23.875 -3.390625 -25.125 C -3.671875 -26.375 -3.867188 -27.632812 -3.984375 -28.90625 C -4.097656 -30.1875 -4.191406 -31.351562 -4.265625 -32.40625 C -4.367188 -33.894531 -4.460938 -35.378906 -4.546875 -36.859375 C -4.628906 -38.335938 -4.722656 -39.8125 -4.828125 -41.28125 Z M 1.640625 -55.359375 C 1.679688 -54.773438 1.332031 -54.25 0.59375 -53.78125 C -0.132812 -53.3125 -1.039062 -53.035156 -2.125 -52.953125 C -3.21875 -52.859375 -4.164062 -52.984375 -4.96875 -53.328125 C -5.78125 -53.671875 -6.207031 -54.125 -6.25 -54.6875 C -6.289062 -55.082031 -6.144531 -55.453125 -5.8125 -55.796875 C -5.488281 -56.140625 -5.03125 -56.429688 -4.4375 -56.671875 C -3.84375 -56.921875 -3.1875 -57.070312 -2.46875 -57.125 C -1.382812 -57.207031 -0.441406 -57.070312 0.359375 -56.71875 C 1.160156 -56.363281 1.585938 -55.910156 1.640625 -55.359375 Z M 1.640625 -55.359375 "/></g></g></g><g fill="#000000" fill-opacity="1"><g transform="translate(100.426863, 182.981581)"><g><path d="M 19.5 -11.796875 C 19.894531 -11.703125 20.144531 -11.5 20.25 -11.1875 C 20.363281 -10.875 20.3125 -10.566406 20.09375 -10.265625 C 19.976562 -10.078125 19.742188 -9.925781 19.390625 -9.8125 C 19.035156 -9.695312 18.648438 -9.617188 18.234375 -9.578125 C 17.816406 -9.535156 17.414062 -9.515625 17.03125 -9.515625 C 16.65625 -9.523438 16.367188 -9.535156 16.171875 -9.546875 C 15.148438 -9.691406 14.296875 -10.09375 13.609375 -10.75 C 12.929688 -11.40625 12.382812 -12.238281 11.96875 -13.25 C 11.550781 -14.257812 11.222656 -15.359375 10.984375 -16.546875 C 10.742188 -17.734375 10.535156 -18.921875 10.359375 -20.109375 C 10.191406 -21.304688 10.015625 -22.414062 9.828125 -23.4375 C 9.734375 -23.96875 9.601562 -24.660156 9.4375 -25.515625 C 9.269531 -26.367188 9.054688 -27.273438 8.796875 -28.234375 C 8.535156 -29.203125 8.210938 -30.132812 7.828125 -31.03125 C 7.453125 -31.925781 7.003906 -32.691406 6.484375 -33.328125 C 5.972656 -33.972656 5.375 -34.382812 4.6875 -34.5625 C 4.6875 -34.53125 4.644531 -34.378906 4.5625 -34.109375 C 4.488281 -33.835938 4.421875 -33.59375 4.359375 -33.375 C 4.097656 -32.332031 3.816406 -31.242188 3.515625 -30.109375 C 3.222656 -28.972656 2.941406 -27.769531 2.671875 -26.5 C 2.609375 -26.175781 2.523438 -25.695312 2.421875 -25.0625 C 2.328125 -24.425781 2.222656 -23.726562 2.109375 -22.96875 C 2.003906 -22.207031 1.894531 -21.453125 1.78125 -20.703125 C 1.675781 -19.953125 1.582031 -19.273438 1.5 -18.671875 C 1.425781 -18.066406 1.390625 -17.617188 1.390625 -17.328125 C 1.390625 -16.898438 1.195312 -16.546875 0.8125 -16.265625 C 0.425781 -15.992188 -0.0195312 -15.828125 -0.53125 -15.765625 C -1.050781 -15.710938 -1.53125 -15.773438 -1.96875 -15.953125 C -2.40625 -16.140625 -2.671875 -16.472656 -2.765625 -16.953125 C -3.609375 -21.523438 -4.28125 -26.125 -4.78125 -30.75 C -5.289062 -35.382812 -5.644531 -40.039062 -5.84375 -44.71875 C -5.925781 -46.34375 -5.972656 -48.015625 -5.984375 -49.734375 C -5.984375 -49.984375 -5.988281 -50.234375 -6 -50.484375 C -6.019531 -50.742188 -6.03125 -51.003906 -6.03125 -51.265625 C -6.019531 -51.347656 -6.019531 -51.4375 -6.03125 -51.53125 C -6.039062 -51.632812 -6.035156 -51.722656 -6.015625 -51.796875 C -6.054688 -54.796875 -6.019531 -57.789062 -5.90625 -60.78125 C -5.800781 -63.78125 -5.53125 -66.742188 -5.09375 -69.671875 C -4.9375 -70.765625 -4.742188 -71.925781 -4.515625 -73.15625 C -4.296875 -74.382812 -3.984375 -75.582031 -3.578125 -76.75 C -3.171875 -77.914062 -2.601562 -78.921875 -1.875 -79.765625 C -1.738281 -79.941406 -1.492188 -80.179688 -1.140625 -80.484375 C -0.785156 -80.785156 -0.359375 -81.066406 0.140625 -81.328125 C 0.640625 -81.585938 1.1875 -81.75 1.78125 -81.8125 C 2.382812 -81.882812 3.007812 -81.773438 3.65625 -81.484375 C 4.59375 -81.054688 5.359375 -80.097656 5.953125 -78.609375 C 6.554688 -77.117188 6.914062 -75.210938 7.03125 -72.890625 C 7.144531 -70.566406 6.972656 -67.90625 6.515625 -64.90625 C 6.066406 -61.90625 5.28125 -58.660156 4.15625 -55.171875 C 3.03125 -51.679688 1.519531 -48.039062 -0.375 -44.25 C -0.375 -44.238281 -0.367188 -44.222656 -0.359375 -44.203125 C -0.359375 -44.179688 -0.359375 -44.148438 -0.359375 -44.109375 C -0.359375 -44.109375 -0.363281 -44.109375 -0.375 -44.109375 C -0.382812 -44.109375 -0.390625 -44.109375 -0.390625 -44.109375 C -0.390625 -43.953125 -0.382812 -43.828125 -0.375 -43.734375 C -0.375 -43.640625 -0.367188 -43.582031 -0.359375 -43.5625 C -0.347656 -42.945312 -0.3125 -42.195312 -0.25 -41.3125 C -0.1875 -40.4375 -0.128906 -39.492188 -0.078125 -38.484375 C -0.0234375 -37.484375 0.0351562 -36.472656 0.109375 -35.453125 C 0.191406 -34.441406 0.269531 -33.492188 0.34375 -32.609375 C 0.414062 -31.734375 0.476562 -30.992188 0.53125 -30.390625 C 0.550781 -30.484375 0.625 -30.867188 0.75 -31.546875 C 0.875 -32.222656 1.050781 -33.113281 1.28125 -34.21875 C 1.507812 -35.332031 1.796875 -36.5625 2.140625 -37.90625 C 2.492188 -39.25 2.898438 -40.632812 3.359375 -42.0625 C 3.816406 -43.5 4.335938 -44.878906 4.921875 -46.203125 C 5.503906 -47.523438 6.144531 -48.71875 6.84375 -49.78125 C 7.539062 -50.84375 8.304688 -51.675781 9.140625 -52.28125 C 9.929688 -52.800781 10.75 -53.070312 11.59375 -53.09375 C 12.4375 -53.113281 13.160156 -52.867188 13.765625 -52.359375 C 14.054688 -52.117188 14.300781 -51.617188 14.5 -50.859375 C 14.695312 -50.097656 14.660156 -49.125 14.390625 -47.9375 C 14.347656 -47.644531 14.195312 -47.425781 13.9375 -47.28125 C 13.6875 -47.144531 13.410156 -47.082031 13.109375 -47.09375 C 12.816406 -47.113281 12.570312 -47.203125 12.375 -47.359375 C 12.1875 -47.515625 12.140625 -47.734375 12.234375 -48.015625 C 12.484375 -48.847656 12.546875 -49.515625 12.421875 -50.015625 C 12.296875 -50.515625 12.128906 -50.875 11.921875 -51.09375 C 11.890625 -51.113281 11.867188 -51.117188 11.859375 -51.109375 C 11.847656 -51.109375 11.832031 -51.117188 11.8125 -51.140625 C 11.726562 -51.046875 11.613281 -50.957031 11.46875 -50.875 C 11.332031 -50.800781 11.148438 -50.640625 10.921875 -50.390625 C 10.703125 -50.140625 10.441406 -49.75 10.140625 -49.21875 C 9.835938 -48.6875 9.46875 -47.9375 9.03125 -46.96875 C 8.601562 -46 8.101562 -44.738281 7.53125 -43.1875 C 6.96875 -41.632812 6.316406 -39.71875 5.578125 -37.4375 C 5.648438 -37.457031 5.726562 -37.476562 5.8125 -37.5 C 5.90625 -37.519531 6.046875 -37.519531 6.234375 -37.5 C 7.265625 -37.414062 8.179688 -37.019531 8.984375 -36.3125 C 9.796875 -35.613281 10.5 -34.691406 11.09375 -33.546875 C 11.6875 -32.410156 12.203125 -31.132812 12.640625 -29.71875 C 13.085938 -28.300781 13.460938 -26.851562 13.765625 -25.375 C 14.078125 -23.894531 14.34375 -22.472656 14.5625 -21.109375 C 14.664062 -20.398438 14.832031 -19.5625 15.0625 -18.59375 C 15.300781 -17.632812 15.613281 -16.679688 16 -15.734375 C 16.394531 -14.796875 16.875 -13.960938 17.4375 -13.234375 C 18 -12.515625 18.6875 -12.035156 19.5 -11.796875 Z M 0.40625 -70.796875 C -0.132812 -67.710938 -0.460938 -64.578125 -0.578125 -61.390625 C -0.691406 -58.203125 -0.710938 -55.019531 -0.640625 -51.84375 C -0.640625 -51.625 -0.632812 -51.410156 -0.625 -51.203125 C -0.613281 -51.003906 -0.609375 -50.796875 -0.609375 -50.578125 C -0.585938 -50.203125 -0.570312 -49.820312 -0.5625 -49.4375 C -0.5625 -49.0625 -0.554688 -48.6875 -0.546875 -48.3125 C 0.492188 -50.8125 1.4375 -53.351562 2.28125 -55.9375 C 3.125 -58.519531 3.785156 -61.175781 4.265625 -63.90625 C 4.492188 -65.175781 4.710938 -66.515625 4.921875 -67.921875 C 5.128906 -69.335938 5.242188 -70.753906 5.265625 -72.171875 C 5.285156 -73.585938 5.117188 -74.929688 4.765625 -76.203125 C 4.722656 -76.378906 4.628906 -76.628906 4.484375 -76.953125 C 4.335938 -77.285156 4.175781 -77.628906 4 -77.984375 C 3.820312 -78.335938 3.644531 -78.628906 3.46875 -78.859375 C 3.300781 -79.085938 3.171875 -79.1875 3.078125 -79.15625 C 2.941406 -79.132812 2.785156 -78.953125 2.609375 -78.609375 C 2.441406 -78.273438 2.289062 -77.90625 2.15625 -77.5 C 2.019531 -77.101562 1.910156 -76.800781 1.828125 -76.59375 C 1.503906 -75.65625 1.226562 -74.695312 1 -73.71875 C 0.78125 -72.75 0.582031 -71.773438 0.40625 -70.796875 Z M 0.40625 -70.796875 "/></g></g></g><g fill="#000000" fill-opacity="1"><g transform="translate(122.231487, 180.864536)"><g><path d="M 8.265625 -37.015625 C 7.816406 -36.066406 7.257812 -35.171875 6.59375 -34.328125 C 5.9375 -33.492188 5.171875 -32.820312 4.296875 -32.3125 C 3.421875 -31.800781 2.414062 -31.539062 1.28125 -31.53125 C 1.15625 -31.519531 1.03125 -31.515625 0.90625 -31.515625 C 0.789062 -31.523438 0.675781 -31.535156 0.5625 -31.546875 C 0.738281 -30.484375 0.988281 -29.460938 1.3125 -28.484375 C 1.632812 -27.503906 2.054688 -26.632812 2.578125 -25.875 C 3.097656 -25.113281 3.75 -24.515625 4.53125 -24.078125 C 5.3125 -23.648438 6.234375 -23.46875 7.296875 -23.53125 C 8.234375 -23.59375 9.085938 -23.894531 9.859375 -24.4375 C 10.640625 -24.976562 11.335938 -25.660156 11.953125 -26.484375 C 12.578125 -27.316406 13.132812 -28.1875 13.625 -29.09375 C 14.125 -30 14.570312 -30.851562 14.96875 -31.65625 C 15.101562 -31.914062 15.28125 -32.347656 15.5 -32.953125 C 15.71875 -33.566406 15.953125 -34.269531 16.203125 -35.0625 C 16.460938 -35.863281 16.710938 -36.6875 16.953125 -37.53125 C 17.191406 -38.382812 17.390625 -39.21875 17.546875 -40.03125 C 17.710938 -40.84375 17.820312 -41.554688 17.875 -42.171875 C 17.914062 -42.585938 18.0625 -42.863281 18.3125 -43 C 18.5625 -43.144531 18.804688 -43.160156 19.046875 -43.046875 C 19.285156 -42.929688 19.375 -42.675781 19.3125 -42.28125 C 19.175781 -41.226562 18.957031 -40.023438 18.65625 -38.671875 C 18.351562 -37.328125 17.988281 -35.929688 17.5625 -34.484375 C 17.132812 -33.046875 16.671875 -31.65625 16.171875 -30.3125 C 15.554688 -28.582031 14.796875 -26.992188 13.890625 -25.546875 C 12.992188 -24.109375 11.972656 -22.925781 10.828125 -22 C 9.691406 -21.070312 8.425781 -20.492188 7.03125 -20.265625 C 5.75 -20.035156 4.488281 -20.035156 3.25 -20.265625 C 2.007812 -20.503906 0.878906 -20.972656 -0.140625 -21.671875 C -1.160156 -22.367188 -2.019531 -23.304688 -2.71875 -24.484375 C -3.375 -25.617188 -3.882812 -26.851562 -4.25 -28.1875 C -4.613281 -29.519531 -4.867188 -30.882812 -5.015625 -32.28125 C -5.160156 -33.675781 -5.257812 -35.015625 -5.3125 -36.296875 C -5.34375 -37.347656 -5.304688 -38.503906 -5.203125 -39.765625 C -5.109375 -41.023438 -4.921875 -42.320312 -4.640625 -43.65625 C -4.367188 -44.988281 -3.988281 -46.285156 -3.5 -47.546875 C -3.007812 -48.804688 -2.390625 -49.945312 -1.640625 -50.96875 C -0.898438 -51.988281 -0.03125 -52.832031 0.96875 -53.5 C 1.976562 -54.164062 3.140625 -54.5625 4.453125 -54.6875 C 5.734375 -54.8125 6.78125 -54.660156 7.59375 -54.234375 C 8.414062 -53.816406 9.046875 -53.195312 9.484375 -52.375 C 9.921875 -51.5625 10.210938 -50.617188 10.359375 -49.546875 C 10.515625 -48.484375 10.554688 -47.359375 10.484375 -46.171875 C 10.410156 -44.984375 10.253906 -43.8125 10.015625 -42.65625 C 9.773438 -41.507812 9.5 -40.445312 9.1875 -39.46875 C 8.875 -38.488281 8.566406 -37.671875 8.265625 -37.015625 Z M 0.296875 -33.703125 C 0.359375 -33.679688 0.421875 -33.648438 0.484375 -33.609375 C 0.546875 -33.578125 0.613281 -33.539062 0.6875 -33.5 C 1.300781 -33.28125 1.847656 -33.273438 2.328125 -33.484375 C 2.816406 -33.691406 3.253906 -34.03125 3.640625 -34.5 C 4.023438 -34.96875 4.351562 -35.472656 4.625 -36.015625 C 4.894531 -36.554688 5.132812 -37.03125 5.34375 -37.4375 C 6.050781 -39.039062 6.570312 -40.71875 6.90625 -42.46875 C 7.25 -44.226562 7.347656 -45.976562 7.203125 -47.71875 C 7.179688 -48.15625 7.113281 -48.695312 7 -49.34375 C 6.894531 -50 6.71875 -50.625 6.46875 -51.21875 C 6.21875 -51.8125 5.847656 -52.210938 5.359375 -52.421875 C 4.898438 -52.617188 4.367188 -52.453125 3.765625 -51.921875 C 3.171875 -51.390625 2.59375 -50.546875 2.03125 -49.390625 C 1.46875 -48.234375 1.003906 -46.8125 0.640625 -45.125 C 0.285156 -43.4375 0.101562 -41.550781 0.09375 -39.46875 C 0.09375 -38.851562 0.0976562 -38.03125 0.109375 -37 C 0.117188 -35.976562 0.179688 -34.878906 0.296875 -33.703125 Z M 0.296875 -33.703125 "/></g></g></g><g fill="#000000" fill-opacity="1"><g transform="translate(144.238802, 178.727811)"><g><path d="M 20.8125 -13.8125 C 20.96875 -13.875 21.203125 -13.921875 21.515625 -13.953125 C 21.835938 -13.984375 22.03125 -13.867188 22.09375 -13.609375 C 22.21875 -13.128906 22.15625 -12.734375 21.90625 -12.421875 C 21.664062 -12.117188 21.34375 -11.882812 20.9375 -11.71875 C 20.53125 -11.550781 20.125 -11.421875 19.71875 -11.328125 C 18.695312 -11.097656 17.675781 -11.097656 16.65625 -11.328125 C 15.644531 -11.554688 14.765625 -12.035156 14.015625 -12.765625 C 13.359375 -13.578125 12.78125 -14.65625 12.28125 -16 C 11.789062 -17.34375 11.390625 -19.039062 11.078125 -21.09375 C 10.773438 -23.15625 10.570312 -25.628906 10.46875 -28.515625 C 10.363281 -31.410156 10.363281 -34.800781 10.46875 -38.6875 C 10.570312 -42.582031 10.773438 -47.039062 11.078125 -52.0625 C 11.003906 -52.789062 10.925781 -53.523438 10.84375 -54.265625 C 10.757812 -55.015625 10.664062 -55.742188 10.5625 -56.453125 C 10.539062 -56.515625 10.523438 -56.570312 10.515625 -56.625 C 10.515625 -56.6875 10.515625 -56.742188 10.515625 -56.796875 C 10.253906 -56.234375 10.03125 -55.769531 9.84375 -55.40625 C 9.488281 -54.695312 9.1875 -53.976562 8.9375 -53.25 C 8.6875 -52.53125 8.441406 -51.796875 8.203125 -51.046875 C 7.691406 -49.460938 7.265625 -47.84375 6.921875 -46.1875 C 6.578125 -44.539062 6.257812 -42.890625 5.96875 -41.234375 C 5.382812 -37.847656 4.832031 -34.429688 4.3125 -30.984375 C 3.789062 -27.546875 3.3125 -24.125 2.875 -20.71875 C 2.832031 -20.375 2.65625 -20.09375 2.34375 -19.875 C 2.03125 -19.664062 1.660156 -19.523438 1.234375 -19.453125 C 0.804688 -19.378906 0.40625 -19.390625 0.03125 -19.484375 C -0.332031 -19.578125 -0.609375 -19.75 -0.796875 -20 C -1.679688 -21.300781 -2.375 -22.71875 -2.875 -24.25 C -3.382812 -25.78125 -3.765625 -27.351562 -4.015625 -28.96875 C -4.273438 -30.582031 -4.488281 -32.132812 -4.65625 -33.625 C -4.789062 -35.050781 -4.882812 -36.484375 -4.9375 -37.921875 C -4.988281 -39.367188 -5 -40.75 -4.96875 -42.0625 C -4.9375 -43.382812 -4.875 -44.566406 -4.78125 -45.609375 C -4.6875 -46.660156 -4.5625 -47.492188 -4.40625 -48.109375 C -4.332031 -48.398438 -4.085938 -48.671875 -3.671875 -48.921875 C -3.265625 -49.179688 -2.800781 -49.359375 -2.28125 -49.453125 C -1.769531 -49.554688 -1.316406 -49.535156 -0.921875 -49.390625 C -0.523438 -49.253906 -0.320312 -48.941406 -0.3125 -48.453125 C -0.21875 -45.847656 -0.0625 -43.382812 0.15625 -41.0625 C 0.375 -38.738281 0.664062 -36.390625 1.03125 -34.015625 C 1.070312 -33.671875 1.117188 -33.320312 1.171875 -32.96875 C 1.234375 -32.625 1.289062 -32.28125 1.34375 -31.9375 C 1.625 -34.175781 1.910156 -36.398438 2.203125 -38.609375 C 2.503906 -40.816406 2.882812 -43.007812 3.34375 -45.1875 C 3.757812 -47.164062 4.253906 -49.125 4.828125 -51.0625 C 5.410156 -53.007812 6.015625 -54.953125 6.640625 -56.890625 C 6.878906 -57.617188 7.175781 -58.34375 7.53125 -59.0625 C 7.882812 -59.789062 8.304688 -60.425781 8.796875 -60.96875 C 9.296875 -61.519531 9.890625 -61.894531 10.578125 -62.09375 C 10.898438 -62.1875 11.300781 -62.171875 11.78125 -62.046875 C 12.257812 -61.929688 12.75 -61.75 13.25 -61.5 C 13.75 -61.257812 14.191406 -61 14.578125 -60.71875 C 14.972656 -60.445312 15.226562 -60.203125 15.34375 -59.984375 C 15.757812 -59.179688 16.0625 -58.273438 16.25 -57.265625 C 16.445312 -56.253906 16.570312 -55.265625 16.625 -54.296875 C 16.675781 -53.328125 16.703125 -52.507812 16.703125 -51.84375 C 16.671875 -50.476562 16.601562 -48.925781 16.5 -47.1875 C 16.394531 -45.445312 16.28125 -43.597656 16.15625 -41.640625 C 16.03125 -39.679688 15.929688 -37.6875 15.859375 -35.65625 C 15.785156 -33.625 15.757812 -31.617188 15.78125 -29.640625 C 15.8125 -27.660156 15.910156 -25.785156 16.078125 -24.015625 C 16.253906 -22.253906 16.53125 -20.660156 16.90625 -19.234375 C 17.289062 -17.804688 17.800781 -16.625 18.4375 -15.6875 C 19.082031 -14.75 19.875 -14.125 20.8125 -13.8125 Z M 20.8125 -13.8125 "/></g></g></g><g fill="#000000" fill-opacity="1"><g transform="translate(169.141817, 176.309939)"><g><path d="M 19.25 -43.03125 C 19.257812 -43.125 19.367188 -43.191406 19.578125 -43.234375 C 19.785156 -43.273438 20 -43.285156 20.21875 -43.265625 C 20.4375 -43.253906 20.539062 -43.195312 20.53125 -43.09375 C 20.46875 -40.65625 20.304688 -38.195312 20.046875 -35.71875 C 19.796875 -33.25 19.367188 -30.828125 18.765625 -28.453125 C 18.535156 -27.554688 18.269531 -26.640625 17.96875 -25.703125 C 17.664062 -24.765625 17.273438 -23.921875 16.796875 -23.171875 C 16.316406 -22.421875 15.679688 -21.859375 14.890625 -21.484375 C 14.109375 -21.109375 13.128906 -21.019531 11.953125 -21.21875 C 10.972656 -21.394531 10.175781 -21.820312 9.5625 -22.5 C 8.957031 -23.175781 8.472656 -24.003906 8.109375 -24.984375 C 7.753906 -25.960938 7.476562 -26.972656 7.28125 -28.015625 C 7.144531 -27.378906 6.992188 -26.742188 6.828125 -26.109375 C 6.660156 -25.484375 6.46875 -24.867188 6.25 -24.265625 C 6 -23.429688 5.660156 -22.640625 5.234375 -21.890625 C 4.804688 -21.140625 4.300781 -20.492188 3.71875 -19.953125 C 3.144531 -19.421875 2.46875 -19.050781 1.6875 -18.84375 C 0.914062 -18.644531 0.0351562 -18.679688 -0.953125 -18.953125 C -1.816406 -19.210938 -2.53125 -19.640625 -3.09375 -20.234375 C -3.65625 -20.835938 -4.109375 -21.53125 -4.453125 -22.3125 C -4.796875 -23.09375 -5.0625 -23.910156 -5.25 -24.765625 C -5.445312 -25.628906 -5.601562 -26.445312 -5.71875 -27.21875 C -6.03125 -29.269531 -6.164062 -31.320312 -6.125 -33.375 C -6.09375 -35.4375 -5.90625 -37.488281 -5.5625 -39.53125 C -5.425781 -40.40625 -5.253906 -41.34375 -5.046875 -42.34375 C -4.835938 -43.351562 -4.578125 -44.359375 -4.265625 -45.359375 C -3.953125 -46.359375 -3.5625 -47.296875 -3.09375 -48.171875 C -2.632812 -49.054688 -2.070312 -49.828125 -1.40625 -50.484375 C -0.882812 -50.972656 -0.269531 -51.367188 0.4375 -51.671875 C 1.15625 -51.984375 1.898438 -52.175781 2.671875 -52.25 C 3.441406 -52.332031 4.195312 -52.28125 4.9375 -52.09375 C 5.6875 -51.90625 6.332031 -51.554688 6.875 -51.046875 C 6.914062 -51.003906 6.957031 -50.960938 7 -50.921875 C 7.039062 -50.878906 7.085938 -50.828125 7.140625 -50.765625 C 7.679688 -50.984375 8.253906 -51.101562 8.859375 -51.125 C 9.472656 -51.144531 9.992188 -51.054688 10.421875 -50.859375 C 10.859375 -50.660156 11.078125 -50.347656 11.078125 -49.921875 C 11.140625 -47.222656 11.222656 -44.5 11.328125 -41.75 C 11.429688 -39 11.65625 -36.273438 12 -33.578125 C 12.34375 -30.878906 12.90625 -28.222656 13.6875 -25.609375 C 13.71875 -25.410156 13.765625 -25.210938 13.828125 -25.015625 C 13.898438 -24.816406 13.976562 -24.617188 14.0625 -24.421875 C 14.25 -24.703125 14.421875 -24.972656 14.578125 -25.234375 C 14.734375 -25.503906 14.878906 -25.773438 15.015625 -26.046875 C 15.484375 -26.890625 15.890625 -27.75 16.234375 -28.625 C 16.585938 -29.5 16.910156 -30.390625 17.203125 -31.296875 C 17.816406 -33.191406 18.285156 -35.113281 18.609375 -37.0625 C 18.929688 -39.019531 19.144531 -41.007812 19.25 -43.03125 Z M 4.1875 -34.03125 C 4.53125 -35.914062 4.769531 -37.800781 4.90625 -39.6875 C 5.050781 -41.582031 5.191406 -43.488281 5.328125 -45.40625 C 5.148438 -45.769531 4.941406 -46.125 4.703125 -46.46875 C 4.472656 -46.78125 4.253906 -47.09375 4.046875 -47.40625 C 3.835938 -47.71875 3.617188 -48.019531 3.390625 -48.3125 C 3.304688 -48.414062 3.210938 -48.519531 3.109375 -48.625 C 3.003906 -48.738281 2.894531 -48.84375 2.78125 -48.9375 C 2.664062 -48.71875 2.554688 -48.492188 2.453125 -48.265625 C 2.347656 -48.046875 2.25 -47.828125 2.15625 -47.609375 C 1.988281 -47.253906 1.835938 -46.890625 1.703125 -46.515625 C 1.566406 -46.140625 1.4375 -45.757812 1.3125 -45.375 C 0.769531 -43.8125 0.34375 -42.222656 0.03125 -40.609375 C -0.320312 -38.867188 -0.539062 -37.085938 -0.625 -35.265625 C -0.71875 -33.453125 -0.675781 -31.660156 -0.5 -29.890625 C -0.425781 -29.097656 -0.332031 -28.300781 -0.21875 -27.5 C -0.101562 -26.695312 0.0546875 -25.914062 0.265625 -25.15625 C 0.335938 -24.914062 0.445312 -24.546875 0.59375 -24.046875 C 0.738281 -23.546875 0.914062 -23.066406 1.125 -22.609375 C 1.4375 -23.140625 1.703125 -23.726562 1.921875 -24.375 C 2.140625 -25.03125 2.332031 -25.648438 2.5 -26.234375 C 2.664062 -26.828125 2.78125 -27.269531 2.84375 -27.5625 C 3.132812 -28.613281 3.382812 -29.675781 3.59375 -30.75 C 3.800781 -31.832031 4 -32.925781 4.1875 -34.03125 Z M 4.1875 -34.03125 "/></g></g></g><g fill="#000000" fill-opacity="1"><g transform="translate(192.510118, 174.041074)"><g><path d="M 20.8125 -13.8125 C 20.96875 -13.875 21.203125 -13.921875 21.515625 -13.953125 C 21.835938 -13.984375 22.03125 -13.867188 22.09375 -13.609375 C 22.21875 -13.128906 22.15625 -12.734375 21.90625 -12.421875 C 21.664062 -12.117188 21.34375 -11.882812 20.9375 -11.71875 C 20.53125 -11.550781 20.125 -11.421875 19.71875 -11.328125 C 18.695312 -11.097656 17.675781 -11.097656 16.65625 -11.328125 C 15.644531 -11.554688 14.765625 -12.035156 14.015625 -12.765625 C 13.359375 -13.578125 12.78125 -14.65625 12.28125 -16 C 11.789062 -17.34375 11.390625 -19.039062 11.078125 -21.09375 C 10.773438 -23.15625 10.570312 -25.628906 10.46875 -28.515625 C 10.363281 -31.410156 10.363281 -34.800781 10.46875 -38.6875 C 10.570312 -42.582031 10.773438 -47.039062 11.078125 -52.0625 C 11.003906 -52.789062 10.925781 -53.523438 10.84375 -54.265625 C 10.757812 -55.015625 10.664062 -55.742188 10.5625 -56.453125 C 10.539062 -56.515625 10.523438 -56.570312 10.515625 -56.625 C 10.515625 -56.6875 10.515625 -56.742188 10.515625 -56.796875 C 10.253906 -56.234375 10.03125 -55.769531 9.84375 -55.40625 C 9.488281 -54.695312 9.1875 -53.976562 8.9375 -53.25 C 8.6875 -52.53125 8.441406 -51.796875 8.203125 -51.046875 C 7.691406 -49.460938 7.265625 -47.84375 6.921875 -46.1875 C 6.578125 -44.539062 6.257812 -42.890625 5.96875 -41.234375 C 5.382812 -37.847656 4.832031 -34.429688 4.3125 -30.984375 C 3.789062 -27.546875 3.3125 -24.125 2.875 -20.71875 C 2.832031 -20.375 2.65625 -20.09375 2.34375 -19.875 C 2.03125 -19.664062 1.660156 -19.523438 1.234375 -19.453125 C 0.804688 -19.378906 0.40625 -19.390625 0.03125 -19.484375 C -0.332031 -19.578125 -0.609375 -19.75 -0.796875 -20 C -1.679688 -21.300781 -2.375 -22.71875 -2.875 -24.25 C -3.382812 -25.78125 -3.765625 -27.351562 -4.015625 -28.96875 C -4.273438 -30.582031 -4.488281 -32.132812 -4.65625 -33.625 C -4.789062 -35.050781 -4.882812 -36.484375 -4.9375 -37.921875 C -4.988281 -39.367188 -5 -40.75 -4.96875 -42.0625 C -4.9375 -43.382812 -4.875 -44.566406 -4.78125 -45.609375 C -4.6875 -46.660156 -4.5625 -47.492188 -4.40625 -48.109375 C -4.332031 -48.398438 -4.085938 -48.671875 -3.671875 -48.921875 C -3.265625 -49.179688 -2.800781 -49.359375 -2.28125 -49.453125 C -1.769531 -49.554688 -1.316406 -49.535156 -0.921875 -49.390625 C -0.523438 -49.253906 -0.320312 -48.941406 -0.3125 -48.453125 C -0.21875 -45.847656 -0.0625 -43.382812 0.15625 -41.0625 C 0.375 -38.738281 0.664062 -36.390625 1.03125 -34.015625 C 1.070312 -33.671875 1.117188 -33.320312 1.171875 -32.96875 C 1.234375 -32.625 1.289062 -32.28125 1.34375 -31.9375 C 1.625 -34.175781 1.910156 -36.398438 2.203125 -38.609375 C 2.503906 -40.816406 2.882812 -43.007812 3.34375 -45.1875 C 3.757812 -47.164062 4.253906 -49.125 4.828125 -51.0625 C 5.410156 -53.007812 6.015625 -54.953125 6.640625 -56.890625 C 6.878906 -57.617188 7.175781 -58.34375 7.53125 -59.0625 C 7.882812 -59.789062 8.304688 -60.425781 8.796875 -60.96875 C 9.296875 -61.519531 9.890625 -61.894531 10.578125 -62.09375 C 10.898438 -62.1875 11.300781 -62.171875 11.78125 -62.046875 C 12.257812 -61.929688 12.75 -61.75 13.25 -61.5 C 13.75 -61.257812 14.191406 -61 14.578125 -60.71875 C 14.972656 -60.445312 15.226562 -60.203125 15.34375 -59.984375 C 15.757812 -59.179688 16.0625 -58.273438 16.25 -57.265625 C 16.445312 -56.253906 16.570312 -55.265625 16.625 -54.296875 C 16.675781 -53.328125 16.703125 -52.507812 16.703125 -51.84375 C 16.671875 -50.476562 16.601562 -48.925781 16.5 -47.1875 C 16.394531 -45.445312 16.28125 -43.597656 16.15625 -41.640625 C 16.03125 -39.679688 15.929688 -37.6875 15.859375 -35.65625 C 15.785156 -33.625 15.757812 -31.617188 15.78125 -29.640625 C 15.8125 -27.660156 15.910156 -25.785156 16.078125 -24.015625 C 16.253906 -22.253906 16.53125 -20.660156 16.90625 -19.234375 C 17.289062 -17.804688 17.800781 -16.625 18.4375 -15.6875 C 19.082031 -14.75 19.875 -14.125 20.8125 -13.8125 Z M 20.8125 -13.8125 "/></g></g></g><g fill="#000000" fill-opacity="1"><g transform="translate(217.413133, 171.623201)"><g><path d="M 20.828125 -42.40625 C 20.859375 -42.457031 20.953125 -42.484375 21.109375 -42.484375 C 21.273438 -42.484375 21.4375 -42.460938 21.59375 -42.421875 C 21.757812 -42.378906 21.835938 -42.316406 21.828125 -42.234375 C 21.671875 -41.046875 21.328125 -39.59375 20.796875 -37.875 C 20.265625 -36.15625 19.472656 -34.171875 18.421875 -31.921875 C 17.367188 -29.679688 15.988281 -27.160156 14.28125 -24.359375 C 14.351562 -23.316406 14.425781 -22.273438 14.5 -21.234375 C 14.570312 -20.191406 14.632812 -19.144531 14.6875 -18.09375 C 14.820312 -15.800781 14.945312 -13.492188 15.0625 -11.171875 C 15.1875 -8.859375 15.210938 -6.550781 15.140625 -4.25 C 15.097656 -3 15.003906 -1.703125 14.859375 -0.359375 C 14.710938 0.984375 14.445312 2.285156 14.0625 3.546875 C 13.675781 4.804688 13.097656 5.960938 12.328125 7.015625 C 11.703125 7.859375 10.878906 8.582031 9.859375 9.1875 C 8.847656 9.800781 7.78125 10.203125 6.65625 10.390625 C 5.53125 10.578125 4.445312 10.460938 3.40625 10.046875 C 2.46875 9.648438 1.632812 9.097656 0.90625 8.390625 C 0.1875 7.679688 -0.394531 6.863281 -0.84375 5.9375 C -1.289062 5.019531 -1.578125 4.066406 -1.703125 3.078125 C -1.867188 1.765625 -1.820312 0.46875 -1.5625 -0.8125 C -1.3125 -2.101562 -0.914062 -3.359375 -0.375 -4.578125 C 0.164062 -5.796875 0.738281 -6.96875 1.34375 -8.09375 C 2.363281 -9.914062 3.457031 -11.679688 4.625 -13.390625 C 5.789062 -15.109375 6.972656 -16.820312 8.171875 -18.53125 C 8.328125 -18.769531 8.476562 -18.992188 8.625 -19.203125 C 8.78125 -19.421875 8.9375 -19.640625 9.09375 -19.859375 C 9.019531 -20.898438 8.941406 -21.9375 8.859375 -22.96875 C 8.773438 -24 8.695312 -25.03125 8.625 -26.0625 C 8.539062 -26.957031 8.460938 -27.84375 8.390625 -28.71875 C 8.316406 -29.59375 8.25 -30.476562 8.1875 -31.375 C 7.945312 -30.3125 7.671875 -29.257812 7.359375 -28.21875 C 7.054688 -27.175781 6.691406 -26.171875 6.265625 -25.203125 C 5.734375 -23.960938 4.898438 -23.035156 3.765625 -22.421875 C 2.628906 -21.804688 1.367188 -21.609375 -0.015625 -21.828125 C -1.023438 -22.023438 -1.820312 -22.425781 -2.40625 -23.03125 C -2.988281 -23.644531 -3.429688 -24.375 -3.734375 -25.21875 C -4.035156 -26.0625 -4.265625 -26.925781 -4.421875 -27.8125 C -4.785156 -29.75 -5.007812 -31.691406 -5.09375 -33.640625 C -5.175781 -35.585938 -5.128906 -37.535156 -4.953125 -39.484375 C -4.835938 -40.546875 -4.703125 -41.664062 -4.546875 -42.84375 C -4.398438 -44.019531 -4.15625 -45.171875 -3.8125 -46.296875 C -3.46875 -47.421875 -2.984375 -48.421875 -2.359375 -49.296875 C -1.566406 -50.347656 -0.53125 -51.113281 0.75 -51.59375 C 2.03125 -52.082031 3.304688 -52.210938 4.578125 -51.984375 C 5.066406 -51.898438 5.5 -51.769531 5.875 -51.59375 C 6.257812 -51.425781 6.59375 -51.222656 6.875 -50.984375 C 7.132812 -51.328125 7.539062 -51.585938 8.09375 -51.765625 C 8.644531 -51.941406 9.210938 -52.03125 9.796875 -52.03125 C 10.378906 -52.03125 10.890625 -51.929688 11.328125 -51.734375 C 11.765625 -51.546875 12.003906 -51.25 12.046875 -50.84375 C 12.429688 -46.882812 12.796875 -42.910156 13.140625 -38.921875 C 13.492188 -34.929688 13.8125 -30.941406 14.09375 -26.953125 C 14.40625 -27.421875 14.703125 -27.90625 14.984375 -28.40625 C 15.273438 -28.90625 15.546875 -29.410156 15.796875 -29.921875 C 16.835938 -31.929688 17.78125 -33.941406 18.625 -35.953125 C 19.46875 -37.972656 20.203125 -40.125 20.828125 -42.40625 Z M 6.34375 -39.8125 C 6.414062 -40.625 6.453125 -41.441406 6.453125 -42.265625 C 6.453125 -43.097656 6.519531 -43.910156 6.65625 -44.703125 C 6.488281 -44.785156 6.378906 -44.90625 6.328125 -45.0625 C 6.179688 -45.53125 5.96875 -46.03125 5.6875 -46.5625 C 5.414062 -47.101562 5.097656 -47.597656 4.734375 -48.046875 C 4.367188 -48.503906 3.984375 -48.828125 3.578125 -49.015625 C 3.171875 -49.210938 2.757812 -49.207031 2.34375 -49 C 1.9375 -48.789062 1.554688 -48.296875 1.203125 -47.515625 C 0.734375 -46.441406 0.390625 -45.28125 0.171875 -44.03125 C -0.046875 -42.78125 -0.210938 -41.585938 -0.328125 -40.453125 C -0.566406 -38.273438 -0.644531 -36.039062 -0.5625 -33.75 C -0.476562 -31.46875 -0.164062 -29.253906 0.375 -27.109375 C 0.40625 -27.035156 0.460938 -26.84375 0.546875 -26.53125 C 0.640625 -26.226562 0.75 -25.898438 0.875 -25.546875 C 1.007812 -25.203125 1.160156 -24.898438 1.328125 -24.640625 C 1.503906 -24.390625 1.675781 -24.285156 1.84375 -24.328125 C 2.394531 -24.617188 2.882812 -25.140625 3.3125 -25.890625 C 3.738281 -26.648438 4.113281 -27.539062 4.4375 -28.5625 C 4.757812 -29.59375 5.023438 -30.679688 5.234375 -31.828125 C 5.453125 -32.972656 5.632812 -34.078125 5.78125 -35.140625 C 5.9375 -36.210938 6.054688 -37.160156 6.140625 -37.984375 C 6.222656 -38.804688 6.289062 -39.414062 6.34375 -39.8125 Z M 9.546875 -1.875 C 9.710938 -4.363281 9.765625 -6.863281 9.703125 -9.375 C 9.640625 -11.882812 9.507812 -14.398438 9.3125 -16.921875 C 8.21875 -15.359375 7.144531 -13.757812 6.09375 -12.125 C 5.039062 -10.488281 4.109375 -8.816406 3.296875 -7.109375 C 2.492188 -5.398438 1.894531 -3.597656 1.5 -1.703125 C 1.300781 -0.722656 1.203125 0.273438 1.203125 1.296875 C 1.210938 2.316406 1.378906 3.300781 1.703125 4.25 C 1.835938 4.644531 2.023438 5.066406 2.265625 5.515625 C 2.515625 5.972656 2.8125 6.382812 3.15625 6.75 C 3.507812 7.125 3.898438 7.398438 4.328125 7.578125 C 4.753906 7.765625 5.21875 7.773438 5.71875 7.609375 C 6.332031 7.390625 6.859375 7.015625 7.296875 6.484375 C 7.734375 5.953125 8.085938 5.316406 8.359375 4.578125 C 8.640625 3.847656 8.859375 3.085938 9.015625 2.296875 C 9.171875 1.503906 9.285156 0.742188 9.359375 0.015625 C 9.441406 -0.703125 9.503906 -1.332031 9.546875 -1.875 Z M 9.546875 -1.875 "/></g></g></g><g fill="#000000" fill-opacity="1"><g transform="translate(242.316148, 169.205328)"><g><path d="M 19.25 -43.03125 C 19.257812 -43.125 19.367188 -43.191406 19.578125 -43.234375 C 19.785156 -43.273438 20 -43.285156 20.21875 -43.265625 C 20.4375 -43.253906 20.539062 -43.195312 20.53125 -43.09375 C 20.46875 -40.65625 20.304688 -38.195312 20.046875 -35.71875 C 19.796875 -33.25 19.367188 -30.828125 18.765625 -28.453125 C 18.535156 -27.554688 18.269531 -26.640625 17.96875 -25.703125 C 17.664062 -24.765625 17.273438 -23.921875 16.796875 -23.171875 C 16.316406 -22.421875 15.679688 -21.859375 14.890625 -21.484375 C 14.109375 -21.109375 13.128906 -21.019531 11.953125 -21.21875 C 10.972656 -21.394531 10.175781 -21.820312 9.5625 -22.5 C 8.957031 -23.175781 8.472656 -24.003906 8.109375 -24.984375 C 7.753906 -25.960938 7.476562 -26.972656 7.28125 -28.015625 C 7.144531 -27.378906 6.992188 -26.742188 6.828125 -26.109375 C 6.660156 -25.484375 6.46875 -24.867188 6.25 -24.265625 C 6 -23.429688 5.660156 -22.640625 5.234375 -21.890625 C 4.804688 -21.140625 4.300781 -20.492188 3.71875 -19.953125 C 3.144531 -19.421875 2.46875 -19.050781 1.6875 -18.84375 C 0.914062 -18.644531 0.0351562 -18.679688 -0.953125 -18.953125 C -1.816406 -19.210938 -2.53125 -19.640625 -3.09375 -20.234375 C -3.65625 -20.835938 -4.109375 -21.53125 -4.453125 -22.3125 C -4.796875 -23.09375 -5.0625 -23.910156 -5.25 -24.765625 C -5.445312 -25.628906 -5.601562 -26.445312 -5.71875 -27.21875 C -6.03125 -29.269531 -6.164062 -31.320312 -6.125 -33.375 C -6.09375 -35.4375 -5.90625 -37.488281 -5.5625 -39.53125 C -5.425781 -40.40625 -5.253906 -41.34375 -5.046875 -42.34375 C -4.835938 -43.351562 -4.578125 -44.359375 -4.265625 -45.359375 C -3.953125 -46.359375 -3.5625 -47.296875 -3.09375 -48.171875 C -2.632812 -49.054688 -2.070312 -49.828125 -1.40625 -50.484375 C -0.882812 -50.972656 -0.269531 -51.367188 0.4375 -51.671875 C 1.15625 -51.984375 1.898438 -52.175781 2.671875 -52.25 C 3.441406 -52.332031 4.195312 -52.28125 4.9375 -52.09375 C 5.6875 -51.90625 6.332031 -51.554688 6.875 -51.046875 C 6.914062 -51.003906 6.957031 -50.960938 7 -50.921875 C 7.039062 -50.878906 7.085938 -50.828125 7.140625 -50.765625 C 7.679688 -50.984375 8.253906 -51.101562 8.859375 -51.125 C 9.472656 -51.144531 9.992188 -51.054688 10.421875 -50.859375 C 10.859375 -50.660156 11.078125 -50.347656 11.078125 -49.921875 C 11.140625 -47.222656 11.222656 -44.5 11.328125 -41.75 C 11.429688 -39 11.65625 -36.273438 12 -33.578125 C 12.34375 -30.878906 12.90625 -28.222656 13.6875 -25.609375 C 13.71875 -25.410156 13.765625 -25.210938 13.828125 -25.015625 C 13.898438 -24.816406 13.976562 -24.617188 14.0625 -24.421875 C 14.25 -24.703125 14.421875 -24.972656 14.578125 -25.234375 C 14.734375 -25.503906 14.878906 -25.773438 15.015625 -26.046875 C 15.484375 -26.890625 15.890625 -27.75 16.234375 -28.625 C 16.585938 -29.5 16.910156 -30.390625 17.203125 -31.296875 C 17.816406 -33.191406 18.285156 -35.113281 18.609375 -37.0625 C 18.929688 -39.019531 19.144531 -41.007812 19.25 -43.03125 Z M 4.1875 -34.03125 C 4.53125 -35.914062 4.769531 -37.800781 4.90625 -39.6875 C 5.050781 -41.582031 5.191406 -43.488281 5.328125 -45.40625 C 5.148438 -45.769531 4.941406 -46.125 4.703125 -46.46875 C 4.472656 -46.78125 4.253906 -47.09375 4.046875 -47.40625 C 3.835938 -47.71875 3.617188 -48.019531 3.390625 -48.3125 C 3.304688 -48.414062 3.210938 -48.519531 3.109375 -48.625 C 3.003906 -48.738281 2.894531 -48.84375 2.78125 -48.9375 C 2.664062 -48.71875 2.554688 -48.492188 2.453125 -48.265625 C 2.347656 -48.046875 2.25 -47.828125 2.15625 -47.609375 C 1.988281 -47.253906 1.835938 -46.890625 1.703125 -46.515625 C 1.566406 -46.140625 1.4375 -45.757812 1.3125 -45.375 C 0.769531 -43.8125 0.34375 -42.222656 0.03125 -40.609375 C -0.320312 -38.867188 -0.539062 -37.085938 -0.625 -35.265625 C -0.71875 -33.453125 -0.675781 -31.660156 -0.5 -29.890625 C -0.425781 -29.097656 -0.332031 -28.300781 -0.21875 -27.5 C -0.101562 -26.695312 0.0546875 -25.914062 0.265625 -25.15625 C 0.335938 -24.914062 0.445312 -24.546875 0.59375 -24.046875 C 0.738281 -23.546875 0.914062 -23.066406 1.125 -22.609375 C 1.4375 -23.140625 1.703125 -23.726562 1.921875 -24.375 C 2.140625 -25.03125 2.332031 -25.648438 2.5 -26.234375 C 2.664062 -26.828125 2.78125 -27.269531 2.84375 -27.5625 C 3.132812 -28.613281 3.382812 -29.675781 3.59375 -30.75 C 3.800781 -31.832031 4 -32.925781 4.1875 -34.03125 Z M 4.1875 -34.03125 "/></g></g></g><g fill="#000000" fill-opacity="1"><g transform="translate(265.684449, 166.936463)"><g><path d="M 20.8125 -13.8125 C 20.96875 -13.875 21.203125 -13.921875 21.515625 -13.953125 C 21.835938 -13.984375 22.03125 -13.867188 22.09375 -13.609375 C 22.21875 -13.128906 22.15625 -12.734375 21.90625 -12.421875 C 21.664062 -12.117188 21.34375 -11.882812 20.9375 -11.71875 C 20.53125 -11.550781 20.125 -11.421875 19.71875 -11.328125 C 18.695312 -11.097656 17.675781 -11.097656 16.65625 -11.328125 C 15.644531 -11.554688 14.765625 -12.035156 14.015625 -12.765625 C 13.359375 -13.578125 12.78125 -14.65625 12.28125 -16 C 11.789062 -17.34375 11.390625 -19.039062 11.078125 -21.09375 C 10.773438 -23.15625 10.570312 -25.628906 10.46875 -28.515625 C 10.363281 -31.410156 10.363281 -34.800781 10.46875 -38.6875 C 10.570312 -42.582031 10.773438 -47.039062 11.078125 -52.0625 C 11.003906 -52.789062 10.925781 -53.523438 10.84375 -54.265625 C 10.757812 -55.015625 10.664062 -55.742188 10.5625 -56.453125 C 10.539062 -56.515625 10.523438 -56.570312 10.515625 -56.625 C 10.515625 -56.6875 10.515625 -56.742188 10.515625 -56.796875 C 10.253906 -56.234375 10.03125 -55.769531 9.84375 -55.40625 C 9.488281 -54.695312 9.1875 -53.976562 8.9375 -53.25 C 8.6875 -52.53125 8.441406 -51.796875 8.203125 -51.046875 C 7.691406 -49.460938 7.265625 -47.84375 6.921875 -46.1875 C 6.578125 -44.539062 6.257812 -42.890625 5.96875 -41.234375 C 5.382812 -37.847656 4.832031 -34.429688 4.3125 -30.984375 C 3.789062 -27.546875 3.3125 -24.125 2.875 -20.71875 C 2.832031 -20.375 2.65625 -20.09375 2.34375 -19.875 C 2.03125 -19.664062 1.660156 -19.523438 1.234375 -19.453125 C 0.804688 -19.378906 0.40625 -19.390625 0.03125 -19.484375 C -0.332031 -19.578125 -0.609375 -19.75 -0.796875 -20 C -1.679688 -21.300781 -2.375 -22.71875 -2.875 -24.25 C -3.382812 -25.78125 -3.765625 -27.351562 -4.015625 -28.96875 C -4.273438 -30.582031 -4.488281 -32.132812 -4.65625 -33.625 C -4.789062 -35.050781 -4.882812 -36.484375 -4.9375 -37.921875 C -4.988281 -39.367188 -5 -40.75 -4.96875 -42.0625 C -4.9375 -43.382812 -4.875 -44.566406 -4.78125 -45.609375 C -4.6875 -46.660156 -4.5625 -47.492188 -4.40625 -48.109375 C -4.332031 -48.398438 -4.085938 -48.671875 -3.671875 -48.921875 C -3.265625 -49.179688 -2.800781 -49.359375 -2.28125 -49.453125 C -1.769531 -49.554688 -1.316406 -49.535156 -0.921875 -49.390625 C -0.523438 -49.253906 -0.320312 -48.941406 -0.3125 -48.453125 C -0.21875 -45.847656 -0.0625 -43.382812 0.15625 -41.0625 C 0.375 -38.738281 0.664062 -36.390625 1.03125 -34.015625 C 1.070312 -33.671875 1.117188 -33.320312 1.171875 -32.96875 C 1.234375 -32.625 1.289062 -32.28125 1.34375 -31.9375 C 1.625 -34.175781 1.910156 -36.398438 2.203125 -38.609375 C 2.503906 -40.816406 2.882812 -43.007812 3.34375 -45.1875 C 3.757812 -47.164062 4.253906 -49.125 4.828125 -51.0625 C 5.410156 -53.007812 6.015625 -54.953125 6.640625 -56.890625 C 6.878906 -57.617188 7.175781 -58.34375 7.53125 -59.0625 C 7.882812 -59.789062 8.304688 -60.425781 8.796875 -60.96875 C 9.296875 -61.519531 9.890625 -61.894531 10.578125 -62.09375 C 10.898438 -62.1875 11.300781 -62.171875 11.78125 -62.046875 C 12.257812 -61.929688 12.75 -61.75 13.25 -61.5 C 13.75 -61.257812 14.191406 -61 14.578125 -60.71875 C 14.972656 -60.445312 15.226562 -60.203125 15.34375 -59.984375 C 15.757812 -59.179688 16.0625 -58.273438 16.25 -57.265625 C 16.445312 -56.253906 16.570312 -55.265625 16.625 -54.296875 C 16.675781 -53.328125 16.703125 -52.507812 16.703125 -51.84375 C 16.671875 -50.476562 16.601562 -48.925781 16.5 -47.1875 C 16.394531 -45.445312 16.28125 -43.597656 16.15625 -41.640625 C 16.03125 -39.679688 15.929688 -37.6875 15.859375 -35.65625 C 15.785156 -33.625 15.757812 -31.617188 15.78125 -29.640625 C 15.8125 -27.660156 15.910156 -25.785156 16.078125 -24.015625 C 16.253906 -22.253906 16.53125 -20.660156 16.90625 -19.234375 C 17.289062 -17.804688 17.800781 -16.625 18.4375 -15.6875 C 19.082031 -14.75 19.875 -14.125 20.8125 -13.8125 Z M 20.8125 -13.8125 "/></g></g></g><g clip-path="url(#139c8adb7e)"><g clip-path="url(#3b3e3144c2)"><path fill="url(#de5739ad9d)" d="M 258.765625 47.632812 L 258.765625 104.179688 L 323.394531 104.179688 L 323.394531 47.632812 Z M 258.765625 47.632812 " fill-rule="nonzero"/></g></g><g fill="#000000" fill-opacity="1"><g transform="translate(173.707862, 201.573293)"><g><path d="M 5.765625 0.015625 C 4.453125 0.148438 3.3125 -0.132812 2.34375 -0.84375 C 1.332031 -1.582031 0.753906 -2.640625 0.609375 -4.015625 C 0.472656 -5.316406 0.769531 -6.703125 1.5 -8.171875 C 2.300781 -9.828125 3.304688 -10.71875 4.515625 -10.84375 C 5.148438 -10.90625 5.867188 -10.828125 6.671875 -10.609375 C 7.703125 -10.335938 8.242188 -9.925781 8.296875 -9.375 C 8.328125 -9.125 8.269531 -8.894531 8.125 -8.6875 C 7.988281 -8.476562 7.800781 -8.363281 7.5625 -8.34375 C 7.375 -8.320312 7.203125 -8.359375 7.046875 -8.453125 C 6.890625 -8.546875 6.738281 -8.644531 6.59375 -8.75 C 6.195312 -9.007812 5.566406 -9.097656 4.703125 -9.015625 C 4.035156 -8.941406 3.445312 -8.289062 2.9375 -7.0625 C 2.46875 -5.914062 2.269531 -4.957031 2.34375 -4.1875 C 2.4375 -3.332031 2.796875 -2.691406 3.421875 -2.265625 C 4.003906 -1.867188 4.722656 -1.71875 5.578125 -1.8125 C 5.960938 -1.84375 6.363281 -1.976562 6.78125 -2.21875 L 7.828125 -2.9375 C 8.015625 -3.0625 8.148438 -3.128906 8.234375 -3.140625 C 8.472656 -3.160156 8.6875 -3.082031 8.875 -2.90625 C 9.070312 -2.738281 9.179688 -2.539062 9.203125 -2.3125 C 9.253906 -1.832031 8.804688 -1.320312 7.859375 -0.78125 C 7.035156 -0.300781 6.335938 -0.0351562 5.765625 0.015625 Z M 5.765625 0.015625 "/></g></g></g><g fill="#000000" fill-opacity="1"><g transform="translate(183.856048, 200.526804)"><g><path d="M 3.015625 -7.96875 L 3.375 -3.15625 C 3.425781 -2.644531 3.472656 -1.898438 3.515625 -0.921875 C 3.515625 -0.265625 3.234375 0.09375 2.671875 0.15625 C 2.035156 0.21875 1.679688 -0.0820312 1.609375 -0.75 C 1.535156 -1.519531 1.453125 -2.691406 1.359375 -4.265625 C 1.273438 -5.835938 1.191406 -7.007812 1.109375 -7.78125 C 1.003906 -8.800781 0.898438 -9.960938 0.796875 -11.265625 C 0.691406 -12.578125 0.585938 -13.738281 0.484375 -14.75 C 0.421875 -15.40625 0.707031 -15.765625 1.34375 -15.828125 C 1.976562 -15.898438 2.328125 -15.609375 2.390625 -14.953125 C 2.492188 -13.941406 2.597656 -12.78125 2.703125 -11.46875 C 2.804688 -10.15625 2.910156 -8.988281 3.015625 -7.96875 Z M 3.015625 -7.96875 "/></g></g></g><g fill="#000000" fill-opacity="1"><g transform="translate(189.267778, 199.968743)"><g><path d="M 5.015625 0.0625 C 3.941406 0.175781 2.972656 -0.125 2.109375 -0.84375 C 1.148438 -1.644531 0.570312 -2.796875 0.375 -4.296875 C 0.1875 -5.742188 0.414062 -7.0625 1.0625 -8.25 C 1.832031 -9.644531 3.019531 -10.425781 4.625 -10.59375 C 5.90625 -10.726562 6.941406 -10.238281 7.734375 -9.125 C 8.359375 -8.226562 8.726562 -7.109375 8.84375 -5.765625 C 8.976562 -4.335938 8.726562 -3.082031 8.09375 -2 C 7.40625 -0.757812 6.378906 -0.0703125 5.015625 0.0625 Z M 4.703125 -8.625 C 3.765625 -8.519531 3.078125 -7.992188 2.640625 -7.046875 C 2.296875 -6.273438 2.171875 -5.425781 2.265625 -4.5 C 2.359375 -3.5625 2.691406 -2.851562 3.265625 -2.375 C 3.734375 -2 4.25 -1.84375 4.8125 -1.90625 C 5.488281 -1.96875 6.039062 -2.265625 6.46875 -2.796875 C 6.957031 -3.398438 7.171875 -4.164062 7.109375 -5.09375 C 6.941406 -7.582031 6.140625 -8.757812 4.703125 -8.625 Z M 4.703125 -8.625 "/></g></g></g><g fill="#000000" fill-opacity="1"><g transform="translate(199.657136, 198.897384)"><g><path d="M 8.8125 -0.21875 C 8.257812 -0.15625 7.914062 -0.421875 7.78125 -1.015625 L 7.296875 -3.109375 C 7.117188 -3.859375 7 -4.554688 6.9375 -5.203125 C 6.914062 -5.378906 6.890625 -5.6875 6.859375 -6.125 C 6.835938 -6.5625 6.820312 -6.867188 6.8125 -7.046875 C 6.664062 -8.429688 6.34375 -9.097656 5.84375 -9.046875 C 5.113281 -8.972656 4.460938 -8.484375 3.890625 -7.578125 C 3.390625 -6.722656 3.035156 -5.6875 2.828125 -4.46875 C 2.828125 -4.207031 2.828125 -3.890625 2.828125 -3.515625 C 2.816406 -3.179688 2.828125 -2.863281 2.859375 -2.5625 C 2.878906 -2.363281 2.929688 -2.078125 3.015625 -1.703125 C 3.097656 -1.328125 3.148438 -1.039062 3.171875 -0.84375 C 3.191406 -0.550781 3.125 -0.304688 2.96875 -0.109375 C 2.8125 0.0859375 2.59375 0.203125 2.3125 0.234375 C 2.03125 0.265625 1.789062 0.195312 1.59375 0.03125 C 1.40625 -0.132812 1.300781 -0.363281 1.28125 -0.65625 C 1.257812 -0.851562 1.207031 -1.140625 1.125 -1.515625 C 1.039062 -1.890625 0.988281 -2.175781 0.96875 -2.375 C 0.90625 -3.039062 0.851562 -3.960938 0.8125 -5.140625 C 0.78125 -6.328125 0.734375 -7.25 0.671875 -7.90625 C 0.648438 -8.113281 0.609375 -8.414062 0.546875 -8.8125 C 0.492188 -9.21875 0.457031 -9.523438 0.4375 -9.734375 C 0.40625 -10.015625 0.46875 -10.25 0.625 -10.4375 C 0.78125 -10.632812 0.992188 -10.75 1.265625 -10.78125 C 1.859375 -10.832031 2.234375 -10.445312 2.390625 -9.625 L 2.53125 -8.484375 C 3.457031 -10.035156 4.492188 -10.867188 5.640625 -10.984375 C 6.660156 -11.085938 7.421875 -10.710938 7.921875 -9.859375 C 8.265625 -9.285156 8.507812 -8.40625 8.65625 -7.21875 L 8.75 -6.25 L 8.84375 -5.359375 C 8.894531 -4.816406 9.03125 -4.128906 9.25 -3.296875 C 9.476562 -2.472656 9.617188 -1.796875 9.671875 -1.265625 C 9.703125 -0.984375 9.632812 -0.742188 9.46875 -0.546875 C 9.3125 -0.347656 9.09375 -0.238281 8.8125 -0.21875 Z M 8.8125 -0.21875 "/></g></g></g><g fill="#000000" fill-opacity="1"><g transform="translate(209.998253, 197.831)"><g><path d="M 5.890625 -0.15625 C 4.441406 0 3.226562 -0.242188 2.25 -0.890625 C 1.1875 -1.585938 0.578125 -2.664062 0.421875 -4.125 C 0.253906 -5.789062 0.515625 -7.226562 1.203125 -8.4375 C 1.953125 -9.769531 3.0625 -10.515625 4.53125 -10.671875 C 5.601562 -10.773438 6.5 -10.679688 7.21875 -10.390625 C 8.09375 -10.023438 8.582031 -9.378906 8.6875 -8.453125 C 8.75 -7.816406 8.4375 -7.195312 7.75 -6.59375 C 7.445312 -6.332031 6.804688 -5.90625 5.828125 -5.3125 L 2.328125 -3.171875 C 2.742188 -2.679688 3.226562 -2.328125 3.78125 -2.109375 C 4.34375 -1.898438 4.984375 -1.835938 5.703125 -1.921875 C 6.148438 -1.960938 6.664062 -2.09375 7.25 -2.3125 C 7.988281 -2.59375 8.445312 -2.921875 8.625 -3.296875 C 8.8125 -3.671875 9.03125 -3.867188 9.28125 -3.890625 C 9.507812 -3.910156 9.71875 -3.84375 9.90625 -3.6875 C 10.09375 -3.539062 10.195312 -3.351562 10.21875 -3.125 C 10.300781 -2.414062 9.796875 -1.75 8.703125 -1.125 C 7.765625 -0.570312 6.828125 -0.25 5.890625 -0.15625 Z M 4.71875 -8.921875 C 3.945312 -8.835938 3.328125 -8.46875 2.859375 -7.8125 C 2.398438 -7.15625 2.101562 -6.195312 1.96875 -4.9375 L 4.796875 -6.65625 C 5.898438 -7.34375 6.675781 -7.914062 7.125 -8.375 C 6.53125 -8.84375 5.726562 -9.023438 4.71875 -8.921875 Z M 4.71875 -8.921875 "/></g></g></g></svg>